<svg width="188" height="40" viewBox="0 0 188 40" fill="none" xmlns="http://www.w3.org/2000/svg">
<g clip-path="url(#clip0_3537_5464)">
<g clip-path="url(#clip1_3537_5464)">
<path d="M36.3331 0.239746H3.27425C1.59941 0.241593 0.242133 1.59883 0.240234 3.27367V36.3313C0.242133 38.0061 1.59941 39.3633 3.27425 39.3652H36.3329C38.0077 39.3633 39.365 38.0061 39.3669 36.3313V3.27367C39.365 1.59893 38.0078 0.241727 36.3331 0.239746Z" fill="white"/>
<path fill-rule="evenodd" clip-rule="evenodd" d="M3.27405 0H36.3327C38.14 0.0019832 39.6047 1.46662 39.6067 3.27398V36.3328C39.6045 38.14 38.1399 39.6046 36.3327 39.6067H3.27405C1.4667 39.6047 0.00203294 38.1401 0 36.3328V3.27395C0.00203524 1.4666 1.4667 0.00198009 3.27405 0ZM36.3326 39.3654C38.0075 39.3636 39.3648 38.0063 39.3667 36.3315V3.27391C39.3648 1.59907 38.0075 0.241833 36.3326 0.239986H3.27405C1.59921 0.241832 0.241926 1.59907 0.240028 3.27391V36.3315C0.241926 38.0063 1.59921 39.3636 3.27405 39.3654H36.3326Z" fill="#CCCCCC"/>
<path fill-rule="evenodd" clip-rule="evenodd" d="M63.274 18.5775C64.1846 17.3744 65.6055 16.6664 67.1144 16.6641C70.0336 16.6641 72.4084 19.2206 72.4084 22.3618C72.4084 25.5031 70.0336 28.0589 67.1144 28.0589C65.6055 28.0565 64.1846 27.3486 63.274 26.1454V31.3006H62.0229V16.9245H63.274V18.5775ZM63.0565 22.3612C63.0565 24.8211 64.8767 26.8223 67.1144 26.8223V26.822C69.352 26.822 71.1722 24.8209 71.1722 22.3612C71.1722 19.9016 69.3519 17.9004 67.1144 17.9004C64.877 17.9004 63.0565 19.9013 63.0565 22.3612Z" fill="black"/>
<path fill-rule="evenodd" clip-rule="evenodd" d="M45.5996 20.4137C45.5996 16.0317 49.001 12.4668 53.1808 12.4668C57.3606 12.4668 60.762 16.0319 60.762 20.4137C60.762 24.7956 57.3613 28.3607 53.1808 28.3607C49.0002 28.3607 45.5996 24.7958 45.5996 20.4137ZM46.794 20.4135C46.794 24.1375 49.6591 27.1671 53.1808 27.1671C56.7025 27.1671 59.5679 24.1378 59.5679 20.4135C59.5679 16.6893 56.7025 13.66 53.1808 13.66C49.6591 13.66 46.794 16.6896 46.794 20.4135Z" fill="black"/>
<path d="M89.9122 16.7081C89.4861 16.7264 89.0696 16.8409 88.6939 17.0429C87.9183 17.4577 87.3135 18.1323 86.9853 18.9483C86.9771 18.9682 86.9677 18.9873 86.959 19.0067L86.9473 19.0045V17.0128H86.9458V16.9927H85.6948V27.764H86.9478V22.1113C86.934 21.4023 87.065 20.6979 87.3329 20.0414C87.5603 19.459 87.924 18.9396 88.3936 18.5268C88.9245 18.0422 89.6493 17.8296 90.3579 17.9504C90.479 17.9695 90.5982 17.9959 90.7239 18.0203C90.7953 17.6638 90.9661 17.2101 91.0373 16.849C90.6708 16.7489 90.292 16.7015 89.9122 16.7081Z" fill="black"/>
<path fill-rule="evenodd" clip-rule="evenodd" d="M73.5303 22.3787C73.5303 19.2374 75.9051 16.6816 78.8242 16.6816C81.9413 16.6816 84.117 19.0243 84.117 22.3789C84.117 22.5131 84.1112 22.647 84.1025 22.7795H74.7837C74.9688 25.0522 76.7088 26.84 78.8231 26.84C80.4548 26.84 81.8601 25.775 82.5046 24.2464L83.5825 24.8734C82.7217 26.7678 80.9124 28.0757 78.8242 28.0757C75.9039 28.0757 73.5303 25.5199 73.5303 22.3787ZM82.8396 21.6877C82.5805 19.4066 81.0346 17.917 78.8242 17.917L78.8242 17.9177C76.8008 17.9177 75.1235 19.556 74.82 21.6877H82.8396Z" fill="black"/>
<path fill-rule="evenodd" clip-rule="evenodd" d="M99.9042 18.5775V16.9245L101.155 16.9239V27.7636H99.9042V26.1447C98.9937 27.3478 97.5728 28.0558 96.064 28.0581C93.1449 28.0581 90.77 25.5021 90.77 22.3611C90.77 19.2201 93.1449 16.6641 96.064 16.6641C97.5728 16.6665 98.9937 17.3744 99.9042 18.5775ZM92.006 22.3615C92.006 24.8214 93.8262 26.8225 96.064 26.8225L96.0637 26.8223C98.3013 26.8223 100.122 24.8211 100.122 22.3615C100.122 19.9018 98.3018 17.9007 96.064 17.9007C93.8262 17.9007 92.006 19.9016 92.006 22.3615Z" fill="black"/>
<path d="M107.983 12.4795H109.381L117.158 24.7566C117.158 24.7566 117.683 25.6303 117.814 25.958V12.4795H119.081V27.7714H117.683L109.906 15.4943C109.906 15.4943 109.381 14.6204 109.25 14.2929V27.7714H107.983V12.4795Z" fill="black"/>
<path fill-rule="evenodd" clip-rule="evenodd" d="M125.35 26.9849C122.882 26.9849 121.352 24.9314 121.265 22.4628L130.506 22.4633V22.0481C130.506 18.8805 128.584 16.6304 125.351 16.6304C122.357 16.6304 119.998 19.0333 119.998 22.3538C119.998 25.6963 122.336 28.0772 125.285 28.0772C127.731 28.0772 129.26 26.8538 130.2 24.9096L129.282 24.3634C128.627 25.7614 127.491 26.9849 125.35 26.9849ZM129.129 21.3703H121.265C121.593 19.2951 123.254 17.7224 125.351 17.7222C127.251 17.7222 129.108 18.9456 129.129 21.3703Z" fill="black"/>
<path d="M140.73 26.4605L143.351 16.936H144.618L141.472 27.7713H140.009L137.387 18.2466L134.766 27.7713H133.302L130.157 16.936H131.424L134.045 26.4605L136.666 16.936H138.108L140.73 26.4605Z" fill="black"/>
<path d="M149.249 21.5673C151.369 21.9607 152.832 22.8343 152.832 24.7132C152.832 26.3733 151.5 28.0772 148.878 28.0772C146.562 28.0772 145.055 26.6792 144.4 24.9752L145.492 24.3198C146.016 25.9581 147.152 26.9841 148.878 26.9841C150.582 26.9841 151.565 26.0666 151.565 24.7778C151.565 23.5108 150.626 22.8992 148.638 22.5495C146.606 22.2 145.011 21.2607 145.011 19.4039C145.011 17.6999 146.628 16.6294 148.616 16.6294C150.779 16.6294 152.067 17.6561 152.723 19.229L151.696 19.8191C151.253 18.5203 150.009 17.6672 148.638 17.722C147.306 17.722 146.192 18.3336 146.192 19.4478C146.191 20.628 147.371 21.2178 149.249 21.5673Z" fill="black"/>
<path d="M159.397 12.4644H160.71V26.6504H167.473V27.7887H159.397L159.397 12.4644Z" fill="black"/>
<path fill-rule="evenodd" clip-rule="evenodd" d="M170.053 13.1206H168.433V14.872H170.053V13.1206ZM169.878 16.9299H168.608L168.608 27.7885H169.878V16.9299Z" fill="black"/>
<path d="M170.951 16.9293H172.856V13.9961H174.126V16.9293H176.84V17.8925H174.126V25.2482C174.126 26.4084 174.629 26.9994 175.68 26.9994C175.954 26.9895 176.226 26.9454 176.49 26.8681L176.599 27.9188C176.219 28.0473 175.819 28.1066 175.417 28.094C174.016 28.094 172.856 27.1963 172.856 25.1824V17.8918H170.952L170.951 16.9293Z" fill="black"/>
<path fill-rule="evenodd" clip-rule="evenodd" d="M182.16 26.9998C179.687 26.9998 178.154 24.942 178.067 22.4683L187.328 22.4681V22.0522C187.328 18.8778 185.401 16.623 182.161 16.623C179.162 16.623 176.798 19.0313 176.798 22.3588C176.798 25.7084 179.141 28.0946 182.096 28.0946C184.548 28.0946 186.08 26.8686 187.022 24.9202L186.101 24.3728C185.444 25.774 184.306 26.9998 182.16 26.9998ZM185.948 21.3738H178.067V21.3735C178.394 19.2939 180.058 17.7176 182.161 17.7178C184.065 17.7178 185.926 18.9437 185.948 21.3738Z" fill="black"/>
<path d="M6.05615 30.4238C6.48864 28.6934 9.71827 15.823 10.9151 11.0517C11.2257 9.81318 11.8585 9.30802 13.1247 9.30625C15.0102 9.30361 16.8957 9.30228 18.7812 9.30226C19.8458 9.30286 20.4752 9.75336 20.829 10.7659C21.5981 12.9672 23.2387 17.6548 23.3236 17.8802C23.3862 17.7002 24.5389 13.1764 25.0786 11.0136C25.3776 9.81577 26.0366 9.29742 27.2754 9.29665C29.2635 9.2954 33.5432 9.29541 33.7453 9.29541C33.4972 10.2949 30.2805 23.1617 28.9104 28.6437C28.5919 29.9183 27.9487 30.4341 26.6493 30.4346C24.7895 30.4354 22.9296 30.4341 21.0697 30.4307C19.8888 30.4286 19.2821 29.9918 18.8912 28.8688C18.1372 26.7028 16.5466 22.1311 16.472 21.9184C16.4087 22.0826 15.268 26.5481 14.732 28.6988C14.4337 29.896 13.7706 30.4246 12.5379 30.4259C10.5242 30.4281 6.24357 30.4238 6.05615 30.4238Z" fill="url(#paint0_linear_3537_5464)"/>
<path fill-rule="evenodd" clip-rule="evenodd" d="M33.7451 20.7266H23.6477C20.3735 20.7266 19.9575 23.9904 19.9575 25.1988V26.872H29.1282C33.3425 26.872 33.7451 23.2806 33.7451 22.0784L33.7451 20.7266Z" fill="#439F46"/>
<path d="M22.6255 22.2573H23.2071V24.8039H24.7535V25.3414H22.6255V22.2573Z" fill="white"/>
<path d="M25.0884 22.2573H25.67V25.3414H25.0884V22.2573Z" fill="white"/>
<path d="M25.9927 22.2573H28.4601V22.7949H27.5172V25.3414H26.9356V22.7949H25.9927V22.2573Z" fill="white"/>
<path d="M28.7896 22.2573H30.9176V22.7772H29.3711V23.4866H30.7942V24.0065H29.3711V24.8216H30.9309V25.3414H28.7896V22.2573Z" fill="white"/>
</g>
</g>
<defs>
<linearGradient id="paint0_linear_3537_5464" x1="6.05615" y1="30.4348" x2="33.7453" y2="30.4348" gradientUnits="userSpaceOnUse">
<stop stop-color="#FF3036"/>
<stop offset="1" stop-color="#CB0B1E"/>
</linearGradient>
<clipPath id="clip0_3537_5464">
<rect width="188" height="40" fill="white"/>
</clipPath>
<clipPath id="clip1_3537_5464">
<rect width="188" height="40" fill="white"/>
</clipPath>
</defs>
</svg>
