<svg fill="none" height="22" viewBox="0 0 22 22" width="22" xmlns="http://www.w3.org/2000/svg"><path clip-rule="evenodd" d="m10.9998 6.20898c-2.29056 0-4.21052 1.61571-4.68102 3.76717l-3.41717-5.91867c.17679-.20558.36196-.40558.55571-.59933 2.01471-2.01462 4.69333-3.124166 7.54248-3.124166 2.8492 0 5.5278 1.109546 7.5425 3.124166.8184.81842 1.4874 1.74638 1.9934 2.75083zm3.5418 4.79172c0 1.956-1.5857 3.5416-3.5417 3.5416-1.95599 0-3.54165-1.5856-3.54165-3.5416 0-1.95606 1.58566-3.54172 3.54165-3.54172 1.956 0 3.5417 1.58566 3.5417 3.54172zm-2.0883 4.5667c-.4586.1463-.9469.2255-1.4534.2255-1.7799 0-3.33615-.9755-4.1624-2.42-.00591-.0092-.01179-.0182-.01729-.0277l-4.7365-8.20392c-1.13875 1.725-1.750458 3.74541-1.750458 5.86002 0 2.8491 1.109538 5.5278 3.124168 7.5425 1.54346 1.5434 3.47679 2.5548 5.57775 2.9439zm3.3381-4.5667c0-1.40172-.605-2.66471-1.5675-3.54172h6.8427c.394 1.12292.5998 2.31642.5998 3.54172 0 2.8491-1.1095 5.5277-3.1242 7.5424s-4.6933 3.1242-7.5425 3.1242c-.206 0-.411-.0065-.615-.018l4.7375-8.2056c.0029-.0051.0054-.0102.0079-.0154.0015-.003.003-.0061.0046-.0091.4171-.7104.6567-1.537.6567-2.4185z" fill="#000" fill-rule="evenodd"/></svg>