<svg width="217" height="40" viewBox="0 0 217 40" fill="none" xmlns="http://www.w3.org/2000/svg">
<g clip-path="url(#clip0_3537_3953)">
<g clip-path="url(#clip1_3537_3953)">
<path fill-rule="evenodd" clip-rule="evenodd" d="M33.216 34.7839C29.5848 38.04 24.8775 39.8378 20.0002 39.8311C19.6836 39.8311 19.3688 39.8229 19.0557 39.808C8.29956 39.2952 -0.0818206 30.2925 0.174678 19.5271C0.431178 8.7618 9.23181 0.168405 20.0002 0.168457C20.0252 0.168457 20.0501 0.169446 20.075 0.169446C28.2846 0.199668 35.6267 5.28567 38.5405 12.9608C41.4543 20.636 39.3372 29.3131 33.216 34.7839ZM10.1587 19.551C10.1583 19.5616 10.1583 20.4385 10.1587 20.4492C10.2513 24.5775 11.6168 28.2558 13.7247 30.7444C15.4739 32.8093 17.734 34.0549 20.2024 34.0549C25.7525 34.0549 30.2519 27.7621 30.2519 20.0001C30.2519 12.2379 25.7525 5.94524 20.2024 5.94524C17.7338 5.94524 15.4739 7.19081 13.7245 9.25596C11.6167 11.7442 10.2513 15.4229 10.1587 19.551Z" fill="url(#paint0_linear_3537_3953)"/>
<path fill-rule="evenodd" clip-rule="evenodd" d="M20.0002 2.72706e-09C9.14007 -0.000177516 0.264436 8.66638 0.00578069 19.5234C-0.252875 30.3804 8.19998 39.4598 19.0478 39.9768C19.3736 39.9923 19.694 40.0002 20.0002 40.0002C31.0306 39.9998 39.9782 31.0687 39.9991 20.0382C40.0199 9.00776 31.106 0.0430092 20.0756 0.000988922L20.041 0.00049615L20.0002 2.72706e-09ZM20.0377 0.169088C20.0252 0.168841 20.0127 0.168593 20.0002 0.168593C9.23179 0.168541 0.431161 8.76194 0.174662 19.5273C-0.0818373 30.2926 8.29954 39.2954 19.0557 39.8082C19.3688 39.823 19.6836 39.8312 20.0002 39.8312C30.9375 39.8307 39.8094 30.975 39.83 20.0377C39.8506 9.10048 31.0122 0.211422 20.075 0.169582C20.0626 0.169582 20.0501 0.169335 20.0377 0.169088ZM30.2519 20.0001C30.2519 27.7621 25.7525 34.0549 20.2024 34.0549C17.734 34.0549 15.4739 32.8093 13.7247 30.7444C11.6168 28.2558 10.2513 24.5775 10.1587 20.4492C10.1583 20.4385 10.1583 19.5616 10.1587 19.551C10.2513 15.4229 11.6167 11.7442 13.7245 9.25597C15.4739 7.19081 17.7338 5.94524 20.2024 5.94524C25.7525 5.94524 30.2519 12.2379 30.2519 20.0001ZM13.8535 30.6356C15.6294 32.7319 17.884 33.8865 20.2025 33.8865C25.6507 33.8865 30.0832 27.6573 30.0832 20.0004C30.0832 12.3435 25.6507 6.11433 20.2025 6.11433C17.884 6.11433 15.6292 7.26894 13.8533 9.36538C11.7008 11.9063 10.4157 15.6203 10.3275 19.5538C10.3272 19.5845 10.3272 20.4164 10.3275 20.4457C10.4157 24.38 11.701 28.0943 13.8535 30.6356Z" fill="url(#paint1_linear_3537_3953)"/>
<mask id="mask0_3537_3953" style="mask-type:luminance" maskUnits="userSpaceOnUse" x="0" y="0" width="40" height="40">
<path fill-rule="evenodd" clip-rule="evenodd" d="M33.216 34.7839C29.5848 38.04 24.8775 39.8378 20.0002 39.8311C19.6836 39.8311 19.3688 39.8229 19.0557 39.808C8.29956 39.2952 -0.0818206 30.2925 0.174678 19.5271C0.431178 8.7618 9.23181 0.168405 20.0002 0.168457C20.0252 0.168457 20.0501 0.169446 20.075 0.169446C28.2846 0.199668 35.6267 5.28567 38.5405 12.9608C41.4543 20.636 39.3372 29.3131 33.216 34.7839ZM10.1587 19.551C10.1583 19.5616 10.1583 20.4385 10.1587 20.4492C10.2513 24.5775 11.6168 28.2558 13.7247 30.7444C15.4739 32.8093 17.734 34.0549 20.2024 34.0549C25.7525 34.0549 30.2519 27.7621 30.2519 20.0001C30.2519 12.2379 25.7525 5.94524 20.2024 5.94524C17.7338 5.94524 15.4739 7.19081 13.7245 9.25596C11.6167 11.7442 10.2513 15.4229 10.1587 19.551Z" fill="white"/>
</mask>
<g mask="url(#mask0_3537_3953)">
<path fill-rule="evenodd" clip-rule="evenodd" d="M34.4623 33.5597C38.6058 30.2943 40.4199 25.2471 40.4199 20.0001C40.4199 14.7545 39.1543 10.4231 34.4646 6.4425C31.3245 3.94178 27.857 3.45215 25.066 3.45215C20.5256 3.45215 16.4598 5.70432 13.7246 9.25616C15.5282 10.0856 17.7339 8.81992 20.2025 8.81992C25.7525 8.81992 28.0584 12.2381 28.0584 20.0003C28.0584 27.7623 25.7525 31.4334 20.2025 31.4334C17.7362 31.4334 16.1188 30.0412 13.7292 30.7498C16.4644 34.298 20.5283 36.5482 25.066 36.5482C27.8564 36.5482 31.3229 36.0584 34.4623 33.5597Z" fill="white"/>
<g style="mix-blend-mode:multiply" opacity="0.5">
<mask id="mask1_3537_3953" style="mask-type:luminance" maskUnits="userSpaceOnUse" x="13" y="3" width="27" height="34">
<path fill-rule="evenodd" clip-rule="evenodd" d="M34.4623 33.5597C41.6204 25.9381 41.6215 14.0653 34.4646 6.4425C31.3245 3.94178 27.857 3.45215 25.066 3.45215C20.5256 3.45215 16.4598 5.70432 13.7246 9.25616C15.474 7.19101 17.7339 5.94544 20.2025 5.94544C25.7525 5.94544 30.252 12.2381 30.252 20.0003C30.252 27.7623 25.7525 34.0551 20.2025 34.0551C17.7362 34.0551 15.4779 32.8115 13.7292 30.7498C16.4644 34.298 20.5283 36.5482 25.066 36.5482C27.8564 36.5482 31.3229 36.0584 34.4623 33.5597Z" fill="white"/>
</mask>
<g mask="url(#mask1_3537_3953)">
<path fill-rule="evenodd" clip-rule="evenodd" d="M20.4786 5.04932C26.8921 5.04932 32.0913 11.6391 32.0913 19.8735C32.0913 28.108 26.8921 34.7834 20.4786 34.7834C14.065 34.7834 8.62012 28.108 8.62012 19.8735C8.62012 11.6391 14.523 5.04932 20.4786 5.04932Z" stroke="#9C9EA1" stroke-width="0.198538"/>
<path fill-rule="evenodd" clip-rule="evenodd" d="M22.57 4.0835C29.1618 4.0835 34.5334 11.3101 34.5334 19.9572C34.5334 28.6048 29.1898 35.6148 22.5984 35.6148C14.0364 35.6148 9.50635 28.6048 9.50635 19.9572C9.50635 11.3101 10.968 4.0835 22.57 4.0835Z" stroke="#9C9EA1" stroke-width="0.198538"/>
<path fill-rule="evenodd" clip-rule="evenodd" d="M23.788 3.31348C31.2453 3.31348 37.2906 10.7648 37.2906 19.9565C37.2906 29.1485 31.2453 36.5996 23.788 36.5996C16.3305 36.5996 8.7915 29.1485 8.7915 19.9565C8.7915 10.7648 16.3305 3.31348 23.788 3.31348Z" stroke="#9C9EA1" stroke-width="0.198538"/>
<path d="M28.647 19.9139H42.0837" stroke="#9C9EA1" stroke-width="0.198538"/>
<path d="M27.8765 16.1493C32.3376 15.6304 36.8403 15.573 41.3131 15.9781" stroke="#9C9EA1" stroke-width="0.198538"/>
<path d="M26.4214 12.9827C29.0734 12.3035 33.1298 11.0037 39.773 12.2124" stroke="#9C9EA1" stroke-width="0.198538"/>
<path d="M25.8223 9.90171C29.9354 8.0879 32.5014 7.31894 38.66 8.78912" stroke="#9C9EA1" stroke-width="0.198538"/>
<path d="M23.5972 7.84832C26.8695 5.91682 30.0426 4.01172 36.5203 5.79454" stroke="#9C9EA1" stroke-width="0.198538"/>
<path d="M21.7148 6.82114C23.3563 4.31975 27.123 2.54287 34.0388 3.65478" stroke="#9C9EA1" stroke-width="0.198538"/>
<path d="M18.8047 6.56463C19.6837 4.7032 22.6983 2.78622 26.7643 2.37158" stroke="#9C9EA1" stroke-width="0.198538"/>
<path d="M27.8765 23.6792C32.3376 24.1981 36.8403 24.2555 41.3131 23.8503" stroke="#9C9EA1" stroke-width="0.198538"/>
<path d="M26.4214 26.8457C29.0734 27.5247 33.1298 28.8247 39.773 27.6157" stroke="#9C9EA1" stroke-width="0.198538"/>
<path d="M25.8223 29.9258C29.9354 31.7399 32.5014 32.5085 38.66 31.0385" stroke="#9C9EA1" stroke-width="0.198538"/>
<path d="M23.5972 31.9805C26.8695 33.912 30.0426 35.8171 36.5203 34.0339" stroke="#9C9EA1" stroke-width="0.198538"/>
<path d="M21.7148 33.0068C23.3563 35.5082 27.123 37.2851 34.0388 36.173" stroke="#9C9EA1" stroke-width="0.198538"/>
<path d="M18.8047 33.2637C19.6837 35.125 22.6983 37.0423 26.7643 37.4569" stroke="#9C9EA1" stroke-width="0.198538"/>
</g>
</g>
<g style="mix-blend-mode:multiply">
<path fill-rule="evenodd" clip-rule="evenodd" d="M34.4623 33.5597C38.6058 30.2943 40.4199 25.2471 40.4199 20.0001C40.4199 14.7545 39.1543 10.4231 34.4646 6.4425C31.3245 3.94178 27.857 3.45215 25.066 3.45215C20.5256 3.45215 16.4598 5.70432 13.7246 9.25616C15.5282 10.0856 17.7339 8.81992 20.2025 8.81992C25.7525 8.81992 28.0584 12.2381 28.0584 20.0003C28.0584 27.7623 25.7525 31.4334 20.2025 31.4334C17.7362 31.4334 16.1188 30.0412 13.7292 30.7498C16.4644 34.298 20.5283 36.5482 25.066 36.5482C27.8564 36.5482 31.3229 36.0584 34.4623 33.5597Z" fill="url(#paint2_linear_3537_3953)"/>
</g>
<path fill-rule="evenodd" clip-rule="evenodd" d="M13.7246 9.25616C16.4598 5.70432 20.5256 3.45215 25.066 3.45215C27.857 3.45215 31.3245 3.94178 34.4646 6.4425C39.1543 10.4231 40.4199 14.7545 40.4199 20.0001C40.4199 25.2471 38.6058 30.2943 34.4623 33.5597C31.3229 36.0584 27.8564 36.5482 25.066 36.5482C20.5283 36.5482 16.4644 34.298 13.7292 30.7498C14.1745 30.6163 14.6368 30.5486 15.1017 30.5488C15.9259 30.5488 16.6845 30.7547 17.4697 30.9678C18.312 31.1965 19.185 31.4334 20.2025 31.4334C25.7525 31.4334 28.0584 27.7623 28.0584 20.0003C28.0584 12.2381 25.7525 8.81992 20.2025 8.81992C19.2231 8.81992 18.2852 9.0191 17.3974 9.20766C16.5995 9.3771 15.8421 9.53795 15.1313 9.53795C14.6475 9.54805 14.1673 9.45186 13.7246 9.25616ZM34.3554 6.57083C31.8636 4.58661 28.8237 3.62054 25.0659 3.62054C20.8209 3.62054 16.7975 5.64563 13.9943 9.18458C14.3594 9.31273 14.7443 9.37511 15.1312 9.36883C15.884 9.33554 16.6315 9.22611 17.3622 9.04222C18.2924 8.8115 19.2444 8.68029 20.2024 8.6508C25.8272 8.6508 28.2271 12.0449 28.2271 19.9999C28.2271 28.0236 25.7521 31.6018 20.2024 31.6018C19.2593 31.5737 18.3247 31.4149 17.4253 31.1302C16.6728 30.8886 15.8912 30.7497 15.1016 30.7172C14.7369 30.7167 14.3735 30.7599 14.0192 30.846C16.8216 34.3656 20.8341 36.3791 25.0659 36.3791C28.8224 36.3791 31.8617 35.4137 34.3571 33.4272C38.1581 30.4317 40.2511 25.6634 40.2511 19.9998C40.2511 14.0947 38.488 10.0785 34.3554 6.57083Z" fill="url(#paint3_linear_3537_3953)"/>
</g>
<g style="mix-blend-mode:multiply" opacity="0.5">
<mask id="mask2_3537_3953" style="mask-type:luminance" maskUnits="userSpaceOnUse" x="0" y="0" width="35" height="40">
<path fill-rule="evenodd" clip-rule="evenodd" d="M34.4622 33.5594C31.3228 36.0581 27.8563 36.5479 25.0659 36.5479C20.5282 36.5479 16.4643 34.2977 13.7291 30.7495H13.7293L13.7247 30.7442C11.6169 28.2557 10.2513 24.5773 10.1587 20.449C10.1583 20.4383 10.1583 19.5614 10.1587 19.5509C10.2513 15.4227 11.6167 11.744 13.7245 9.25583C16.4598 5.70399 20.5256 3.45182 25.0659 3.45182C27.857 3.45182 31.3241 3.94145 34.4642 6.442C34.0654 6.0168 33.6521 5.60547 33.2177 5.21669C29.6053 1.97735 24.9271 0.180752 20.075 0.169446C20.0501 0.169446 20.0252 0.168457 20.0002 0.168457C9.23181 0.168405 0.431178 8.7618 0.174678 19.5271C-0.0818206 30.2925 8.29956 39.2952 19.0557 39.808C19.3688 39.8229 19.6836 39.8311 20.0002 39.8311C24.8775 39.8378 29.5848 38.04 33.216 34.7839C33.6505 34.3953 34.0638 33.9843 34.4622 33.5594V33.5594Z" fill="white"/>
</mask>
<g mask="url(#mask2_3537_3953)">
<path fill-rule="evenodd" clip-rule="evenodd" d="M20.516 -0.195312C30.915 -0.195312 40.0517 8.90803 40.0517 20.1326C40.0517 31.3569 30.915 40.452 20.516 40.452C10.1173 40.452 1.6875 31.353 1.6875 20.1285C1.6875 8.90395 10.1173 -0.195312 20.516 -0.195312Z" stroke="#9C9EA1" stroke-width="0.198538"/>
<path fill-rule="evenodd" clip-rule="evenodd" d="M22.3559 0.147461C32.5417 0.147461 40.7993 9.01678 40.7993 19.9577C40.7993 30.8986 32.5417 39.7683 22.3559 39.7683C11.521 39.7683 3.9126 30.8986 3.9126 19.9577C3.9126 9.01675 11.5151 0.147461 22.3559 0.147461Z" stroke="#9C9EA1" stroke-width="0.198538"/>
<path fill-rule="evenodd" clip-rule="evenodd" d="M23.3829 1.25977C32.5291 1.25977 39.9432 9.65019 39.9432 20.0004C39.9432 30.3507 32.5291 38.7411 23.3829 38.7411C14.2367 38.7411 6.82227 30.3507 6.82227 20.0004C6.82227 9.65019 14.2367 1.25977 23.3829 1.25977Z" stroke="#9C9EA1" stroke-width="0.198538"/>
<path d="M11.2725 15.5512C9.97912 14.9045 1.39326 13.5197 -0.225098 15.2945" stroke="#9C9EA1" stroke-width="0.198538"/>
<path d="M12.7277 11.0161C9.82223 9.19476 5.15304 7.97636 2.11523 10.0748" stroke="#9C9EA1" stroke-width="0.198538"/>
<path d="M15.8086 7.84979C13.7914 5.49211 9.03477 3.27967 5.28174 5.96726" stroke="#9C9EA1" stroke-width="0.198538"/>
<path d="M19.2327 5.11128C17.1509 3.04599 13.2355 0.338444 8.021 3.31428" stroke="#9C9EA1" stroke-width="0.198538"/>
<path d="M22.9589 3.83612C21.4342 1.72303 19.0729 -0.357603 14.7817 0.490468" stroke="#9C9EA1" stroke-width="0.198538"/>
<path d="M26.8017 3.7034C26.1438 2.44943 24.9447 0.458445 21.4575 -0.194336" stroke="#9C9EA1" stroke-width="0.198538"/>
<path d="M30.1869 4.34117C29.7188 2.05568 26.8486 0.661621 26.8486 0.661621" stroke="#9C9EA1" stroke-width="0.198538"/>
<path d="M11.1873 20.0013H-1.13672" stroke="#9C9EA1" stroke-width="0.198538"/>
<path d="M11.2725 24.2798C9.97912 24.9268 1.39326 26.3111 -0.225098 24.5365" stroke="#9C9EA1" stroke-width="0.198538"/>
<path d="M12.7277 28.8154C9.82223 30.6368 5.15304 31.855 2.11523 29.7568" stroke="#9C9EA1" stroke-width="0.198538"/>
<path d="M15.8086 31.9819C13.7914 34.3396 9.03477 36.5522 5.28174 33.8646" stroke="#9C9EA1" stroke-width="0.198538"/>
<path d="M19.2327 34.8906C17.1509 36.9559 13.2355 39.6636 8.021 36.6877" stroke="#9C9EA1" stroke-width="0.198538"/>
<path d="M22.9589 36.0776C21.5502 38.2267 19.0729 40.3599 14.7817 39.5115" stroke="#9C9EA1" stroke-width="0.198538"/>
<path d="M26.8459 36.2544C26.1412 37.6433 24.9447 39.5435 21.4575 40.1965" stroke="#9C9EA1" stroke-width="0.198538"/>
<path d="M30.1869 35.6611C29.7188 37.9466 26.8486 39.3405 26.8486 39.3405" stroke="#9C9EA1" stroke-width="0.198538"/>
</g>
</g>
<path fill-rule="evenodd" clip-rule="evenodd" d="M66.4529 18.9661C67.4927 17.6787 68.9782 16.8369 70.7608 16.8369C74.0289 16.8369 76.6533 19.7089 76.7029 23.2246C76.7029 26.7403 74.0289 29.6122 70.7608 29.6122C68.9782 29.6122 67.4927 28.82 66.4529 27.483V33.2765H65.0664V17.134H66.4529V18.9661ZM66.2054 23.274C66.2054 26.0469 68.2356 28.2752 70.7609 28.2752C73.2368 28.2752 75.267 25.9974 75.3165 23.274C75.3165 20.501 73.2863 18.2728 70.7609 18.2728C68.2356 18.2728 66.2054 20.501 66.2054 23.274Z" fill="black"/>
<path fill-rule="evenodd" clip-rule="evenodd" d="M46.5967 21.0458C46.5967 16.1437 50.4095 12.1328 55.1136 12.1328C59.8177 12.1328 63.6305 16.1437 63.6305 21.0458C63.6305 25.948 59.8177 29.9589 55.1136 29.9589C50.4095 29.9589 46.5967 25.948 46.5967 21.0458ZM47.9336 21.0457C47.9336 25.2051 51.1522 28.6218 55.1135 28.6218C59.0749 28.6218 62.2935 25.2546 62.2935 21.0457C62.2935 16.8863 59.0749 13.4696 55.1135 13.4696C51.1522 13.4696 47.9336 16.8863 47.9336 21.0457Z" fill="black"/>
<path d="M96.3112 16.8862C95.8161 16.8862 95.3704 17.0348 94.9248 17.2824C94.0335 17.7775 93.3897 18.4708 92.9936 19.4116C92.9936 19.4116 92.9936 19.4611 92.9441 19.4611V19.4611C92.9441 18.7184 92.9441 17.9756 92.9441 17.2328V17.2328V17.2328H91.5576V17.2328C91.5576 21.2437 91.5576 25.2546 91.5576 29.3149C92.0033 29.3149 92.4984 29.3149 92.9441 29.3149V29.3149C92.9441 29.2654 92.9441 29.2654 92.9441 29.2159C92.9441 27.0372 92.9441 25.106 92.9441 22.9768C92.9441 22.0855 93.0926 21.3427 93.3897 20.6495C93.6373 20.0058 94.0335 19.4116 94.5781 18.9659C95.2219 18.4213 95.9646 18.1737 96.8064 18.3222C96.9549 18.3222 97.054 18.3717 97.2025 18.4213C97.3016 18.0251 97.4501 17.5299 97.5491 17.0843C97.2025 16.9357 96.6578 16.8862 96.3112 16.8862Z" fill="black"/>
<path fill-rule="evenodd" clip-rule="evenodd" d="M77.9409 23.2739C77.9409 19.7582 80.6148 16.8862 83.8829 16.8862C87.3491 16.8862 89.8249 19.5106 89.8249 23.2739V23.7195H88.9832H79.3769C79.6245 26.2449 81.5556 28.2751 83.9325 28.2751C85.7646 28.2751 87.2996 27.0867 88.0423 25.3536L89.2307 26.0468C88.2404 28.1761 86.2102 29.6616 83.8829 29.6616C80.6148 29.6616 77.9409 26.7896 77.9409 23.2739ZM88.3889 22.4817C88.0918 19.9564 86.3588 18.2728 83.8829 18.2728C81.6051 18.2728 79.7235 20.1049 79.3769 22.4817H88.3889Z" fill="black"/>
<path fill-rule="evenodd" clip-rule="evenodd" d="M107.502 18.9661V17.134H108.889V29.3151H107.502V27.483C106.463 28.7705 104.977 29.6122 103.194 29.6122C99.9263 29.6122 97.2524 26.7403 97.2524 23.2246C97.2524 19.7089 99.9263 16.8369 103.194 16.8369C104.977 16.8369 106.463 17.6292 107.502 18.9661ZM98.639 23.274C98.639 26.0469 100.669 28.2752 103.195 28.2752C105.72 28.2752 107.75 25.9974 107.75 23.274C107.75 20.501 105.72 18.2728 103.195 18.2728C100.669 18.2728 98.639 20.501 98.639 23.274Z" fill="black"/>
<path fill-rule="evenodd" clip-rule="evenodd" d="M167.259 29.1989V12.6836H165.89V29.1989H167.259ZM120.93 29.5293C122.935 29.5293 124.492 28.326 125.176 26.9104V29.199H126.545V12.6837H125.176V19.7381C124.351 18.1101 122.746 17.1664 120.835 17.1664C117.674 17.1664 115.314 19.856 115.314 23.3478C115.314 26.8396 117.65 29.5293 120.93 29.5293ZM121.024 28.3496C118.476 28.3496 116.73 26.297 116.73 23.3478C116.73 20.3987 118.476 18.346 121.024 18.346C123.572 18.346 125.318 20.4694 125.318 23.3478C125.318 26.2262 123.572 28.3496 121.024 28.3496ZM140.003 26.1082C138.988 28.208 137.337 29.5293 134.694 29.5293C131.509 29.5293 128.985 26.9576 128.985 23.3478C128.985 19.7616 131.533 17.1664 134.765 17.1664C138.257 17.1664 140.333 19.5965 140.333 23.0175V23.4658H130.353C130.447 26.1318 132.099 28.3496 134.765 28.3496C137.077 28.3496 138.304 27.0284 139.012 25.5184L140.003 26.1082ZM138.847 22.2861H130.353C130.707 20.0448 132.5 18.346 134.765 18.346C136.818 18.346 138.823 19.6673 138.847 22.2861ZM151.644 17.4966L146.973 29.1989H145.51L140.838 17.4966H142.325L146.241 27.689L150.158 17.4966H151.644ZM157.765 29.5293C160.407 29.5293 162.059 28.208 163.073 26.1082L162.082 25.5184C161.374 27.0284 160.147 28.3496 157.835 28.3496C155.169 28.3496 153.518 26.1318 153.423 23.4658H163.403V23.0175C163.403 19.5965 161.327 17.1664 157.835 17.1664C154.603 17.1664 152.055 19.7616 152.055 23.3478C152.055 26.9576 154.579 29.5293 157.765 29.5293ZM153.423 22.2861H161.917C161.893 19.6673 159.888 18.346 157.835 18.346C155.57 18.346 153.777 20.0448 153.423 22.2861ZM181.684 23.3478C181.684 27.2643 178.877 29.5293 175.692 29.5293C172.506 29.5293 169.699 27.2643 169.699 23.3478C169.699 19.4313 172.506 17.1664 175.692 17.1664C178.877 17.1664 181.684 19.4313 181.684 23.3478ZM175.691 28.3496C173.049 28.3496 171.067 26.2498 171.067 23.3478C171.067 20.4458 173.049 18.346 175.691 18.346C178.334 18.346 180.316 20.4458 180.316 23.3478C180.316 26.2498 178.334 28.3496 175.691 28.3496ZM185.493 27.0992V34.012H184.124V17.4967H185.493V19.856C186.177 18.4168 187.781 17.1664 189.834 17.1664C193.019 17.1664 195.355 19.856 195.355 23.3478C195.355 26.8396 193.09 29.5293 189.81 29.5293C187.899 29.5293 186.295 28.6327 185.493 27.0992ZM189.645 28.3496C187.097 28.3496 185.351 26.2262 185.351 23.3478C185.351 20.4694 187.097 18.346 189.645 18.346C192.193 18.346 193.939 20.3987 193.939 23.3478C193.939 26.297 192.193 28.3496 189.645 28.3496ZM208.01 26.1082C206.996 28.208 205.344 29.5293 202.702 29.5293C199.517 29.5293 196.992 26.9576 196.992 23.3478C196.992 19.7616 199.54 17.1664 202.773 17.1664C206.265 17.1664 208.341 19.5965 208.341 23.0175V23.4658H198.361C198.455 26.1318 200.107 28.3496 202.773 28.3496C205.085 28.3496 206.312 27.0284 207.02 25.5184L208.01 26.1082ZM206.854 22.2861H198.361C198.715 20.0448 200.508 18.346 202.773 18.346C204.825 18.346 206.831 19.6673 206.854 22.2861ZM212.196 22.8052V29.199H210.828V17.4967H212.196V19.7145C212.715 18.346 214.013 17.1664 215.57 17.1664C215.948 17.1664 216.207 17.19 216.537 17.2843L216.301 18.464C216.066 18.3932 215.782 18.346 215.429 18.346C213.683 18.346 212.196 20.3987 212.196 22.8052Z" fill="black"/>
</g>
</g>
<defs>
<linearGradient id="paint0_linear_3537_3953" x1="0.611255" y1="0.53728" x2="0.611255" y2="39.3144" gradientUnits="userSpaceOnUse">
<stop offset="0.4" stop-color="white"/>
<stop offset="1" stop-color="#9C9EA1"/>
</linearGradient>
<linearGradient id="paint1_linear_3537_3953" x1="0.000600802" y1="0" x2="0.000600802" y2="40.0002" gradientUnits="userSpaceOnUse">
<stop offset="0.4" stop-color="#9C9EA1"/>
<stop offset="1" stop-color="#828487"/>
</linearGradient>
<linearGradient id="paint2_linear_3537_3953" x1="42.5646" y1="39.3149" x2="42.5646" y2="0.900968" gradientUnits="userSpaceOnUse">
<stop offset="0.4" stop-color="white"/>
<stop offset="1" stop-color="#9C9EA1"/>
</linearGradient>
<linearGradient id="paint3_linear_3537_3953" x1="13.7246" y1="3.45215" x2="13.7246" y2="36.5482" gradientUnits="userSpaceOnUse">
<stop offset="0.4" stop-color="#9C9EA1"/>
<stop offset="1" stop-color="#828487"/>
</linearGradient>
<clipPath id="clip0_3537_3953">
<rect width="217" height="40.0002" fill="white"/>
</clipPath>
<clipPath id="clip1_3537_3953">
<rect width="217" height="40.0002" fill="white"/>
</clipPath>
</defs>
</svg>
