<svg width="151" height="40" viewBox="0 0 151 40" fill="none" xmlns="http://www.w3.org/2000/svg">
<g clip-path="url(#clip0_3537_3958)">
<g clip-path="url(#clip1_3537_3958)">
<path d="M36.3374 0.240234L3.27466 0.240276C1.5996 0.242175 0.242156 1.5996 0.240234 3.27466V36.3374C0.242141 38.0124 1.59959 39.3699 3.27466 39.3717L36.3374 39.3717C38.0124 39.3697 39.3697 38.0124 39.3717 36.3374L39.3717 3.27466C39.3699 1.59959 38.0124 0.242141 36.3374 0.240234Z" fill="white"/>
<mask id="mask0_3537_3958" style="mask-type:luminance" maskUnits="userSpaceOnUse" x="2" y="2" width="35" height="35">
<path fill-rule="evenodd" clip-rule="evenodd" d="M3.84513 2.68457H35.7713C36.0796 2.68457 36.3753 2.80705 36.5933 3.02506C36.8113 3.24307 36.9338 3.53876 36.9338 3.84708V35.7717C36.9338 36.4137 36.4133 36.9342 35.7713 36.9342H3.84513C3.20309 36.9342 2.68262 36.4137 2.68262 35.7717V3.84708C2.68262 3.20504 3.20309 2.68457 3.84513 2.68457H3.84513Z" fill="white"/>
</mask>
<g mask="url(#mask0_3537_3958)">
<rect x="2.68262" y="2.68457" width="34.2512" height="1.31186" fill="#EEEEEE"/>
<rect x="2.68262" y="4.88037" width="34.2512" height="1.31186" fill="#EEEEEE"/>
<rect x="2.68262" y="7.07617" width="34.2512" height="1.31186" fill="#EEEEEE"/>
<rect x="2.68262" y="9.27197" width="34.2512" height="1.31186" fill="#EEEEEE"/>
<rect x="2.68262" y="11.4683" width="34.2512" height="1.31186" fill="#EEEEEE"/>
<rect x="2.68262" y="13.6641" width="34.2512" height="1.31186" fill="#EEEEEE"/>
<rect x="2.68262" y="15.8599" width="34.2512" height="1.31186" fill="#EEEEEE"/>
<rect x="2.68262" y="18.0557" width="34.2512" height="1.31186" fill="#EEEEEE"/>
<rect x="2.68262" y="20.2515" width="34.2512" height="1.31186" fill="#EEEEEE"/>
<rect x="2.68262" y="22.4473" width="34.2512" height="1.31186" fill="#EEEEEE"/>
<rect x="2.68262" y="24.6431" width="34.2512" height="1.31186" fill="#EEEEEE"/>
<rect x="2.68262" y="26.8389" width="34.2512" height="1.31186" fill="#EEEEEE"/>
<rect x="2.68262" y="29.0347" width="34.2512" height="1.31186" fill="#EEEEEE"/>
<rect x="2.68262" y="31.231" width="34.2512" height="1.31186" fill="#EEEEEE"/>
<rect x="2.68262" y="35.6226" width="34.2512" height="1.31186" fill="#EEEEEE"/>
<rect x="2.68262" y="33.4268" width="34.2512" height="1.31186" fill="#EEEEEE"/>
<path d="M38.6328 36.3531V24.6426L26.2754 24.6433V38.6335L36.3525 38.6335C37.6113 38.6321 38.6314 37.6119 38.6328 36.3531V36.3531Z" fill="#EEEEEE"/>
<path fill-rule="evenodd" clip-rule="evenodd" d="M39.371 23.7593L39.371 36.3375C39.3691 38.0125 38.0117 39.3699 36.3367 39.3718L25.3911 39.3719L25.3911 23.7593L39.371 23.7593ZM38.6326 24.6427L26.2751 24.6434L26.2751 38.6335L36.3522 38.6335C37.611 38.6321 38.6312 37.612 38.6326 36.3532V24.6427Z" fill="white"/>
<path d="M0.978032 3.29256L0.978027 10.5838L17.1417 10.5838L17.1417 0.978521L3.29207 0.978516C2.01466 0.979962 0.979478 2.01515 0.978032 3.29256Z" fill="#EEEEEE"/>
<path fill-rule="evenodd" clip-rule="evenodd" d="M3.27417 0.240255L18.0259 0.240234L18.0259 11.468L0.239746 11.468V3.27464C0.241668 1.59957 1.59911 0.242154 3.27417 0.240255ZM0.978237 10.584L17.1419 10.584L17.1419 0.978725L3.29228 0.97872C2.01487 0.980165 0.979688 2.01535 0.978242 3.29276L0.978237 10.584Z" fill="white"/>
</g>
<path d="M20.0845 9.26855L25.9682 24.3502L19.2222 30.3431L13.3696 17.6451L20.0845 9.26855V9.26855Z" fill="url(#paint0_linear_3537_3958)"/>
<path d="M5.45117 30.343H12.9296C13.8737 30.343 14.3066 29.7095 14.596 28.7751L20.0845 9.26855H13.9222C11.8742 9.26855 10.3316 10.6859 9.85519 12.7571C9.13916 15.87 5.45117 30.343 5.45117 30.343Z" fill="url(#paint1_linear_3537_3958)"/>
<path d="M33.8589 9.26855H26.3805C25.4364 9.26855 25.0035 9.90205 24.7141 10.8365L19.2256 30.343H25.3879C27.4359 30.343 28.9785 28.9257 29.4549 26.8545C30.1709 23.7416 33.8589 9.26855 33.8589 9.26855Z" fill="url(#paint2_linear_3537_3958)"/>
<path fill-rule="evenodd" clip-rule="evenodd" d="M3.27445 0H36.3372C38.1448 0.00203014 39.6096 1.46686 39.6117 3.27445L39.6116 36.3372C39.6095 38.1447 38.1447 39.6095 36.3372 39.6116L3.27445 39.6117C1.46686 39.6096 0.00203014 38.1448 0 36.3372V3.27445C0.00204826 1.46687 1.46687 0.00204826 3.27445 0ZM36.3372 39.3714C38.0122 39.3695 39.3696 38.0121 39.3715 36.3371L39.3716 3.27441C39.3697 1.59934 38.0122 0.241893 36.3372 0.239986L3.27448 0.240028C1.59941 0.241926 0.241974 1.59935 0.240052 3.27441V36.3371C0.24196 38.0122 1.59941 39.3696 3.27448 39.3715L36.3372 39.3714Z" fill="#EEEEEE"/>
<path fill-rule="evenodd" clip-rule="evenodd" d="M61.1873 18.5806C62.1036 17.4078 63.4574 16.667 65.0283 16.667C67.9478 16.667 70.3232 19.2233 70.3232 22.365C70.3232 25.5069 67.9478 28.0629 65.0283 28.0629C63.4574 28.0629 62.1036 27.3224 61.1873 26.1495V31.3056H59.936V16.9273H61.1873V18.5806ZM60.9696 22.3649C60.9696 24.8252 62.7902 26.8266 65.0282 26.8266C67.2662 26.8266 69.0868 24.8252 69.0868 22.3649C69.0868 19.9048 67.2662 17.9034 65.0282 17.9034C62.7902 17.9034 60.9696 19.9048 60.9696 22.3649Z" fill="black"/>
<path fill-rule="evenodd" clip-rule="evenodd" d="M43.5112 20.4169C43.5112 16.0342 46.9123 12.4688 51.0928 12.4688C55.2733 12.4688 58.6744 16.0342 58.6744 20.4169C58.6744 24.7994 55.2733 28.3651 51.0928 28.3651C46.9123 28.3651 43.5112 24.7994 43.5112 20.4169ZM44.7049 20.4169C44.7049 24.1413 47.5705 27.1713 51.0928 27.1713C54.6152 27.1713 57.4808 24.1413 57.4808 20.4169C57.4808 16.6923 54.6152 13.6624 51.0928 13.6624C47.5705 13.6624 44.7049 16.6923 44.7049 20.4169Z" fill="black"/>
<path d="M87.8297 16.7106C87.4035 16.7289 86.987 16.8434 86.6113 17.0454C85.8103 17.4722 85.2565 18.1225 84.9026 18.9512C84.8943 18.971 84.885 18.9903 84.8761 19.0096C84.8722 19.009 84.8685 19.0081 84.8646 19.0074V17.0154H84.8631V16.9954H83.6118V27.7683H84.865V27.6956C84.865 25.7576 84.8652 24.0524 84.865 22.1146C84.865 21.32 84.9899 20.6742 85.2502 20.0444C85.491 19.4612 85.8279 18.9434 86.311 18.5296C86.879 18.043 87.5299 17.8342 88.2757 17.9529C88.3964 17.972 88.516 17.9985 88.6417 18.0228C88.7132 17.6663 88.8829 17.2126 88.9552 16.8513C88.5887 16.7512 88.2097 16.7038 87.8297 16.7106Z" fill="black"/>
<path fill-rule="evenodd" clip-rule="evenodd" d="M71.4453 22.3816C71.4453 19.2397 73.8206 16.6836 76.7401 16.6836C79.8577 16.6836 82.0349 19.0267 82.0349 22.3816C82.0349 22.5166 82.029 22.6499 82.0203 22.7824H72.7C72.8852 25.0551 74.6254 26.8433 76.7401 26.8433C78.3709 26.8433 79.7765 25.7781 80.4211 24.2494L81.4991 24.8766C80.638 26.7712 78.8285 28.0793 76.7401 28.0793C73.8206 28.0793 71.4453 25.5234 71.4453 22.3816ZM80.7561 21.6912C80.4969 19.4097 78.951 17.9199 76.7401 17.9199C74.7164 17.9199 73.0387 19.5585 72.7352 21.6912H80.7561Z" fill="black"/>
<path fill-rule="evenodd" clip-rule="evenodd" d="M97.8233 18.5806V16.9273H99.0745V27.7685H97.8233V26.1495C96.9068 27.3224 95.5531 28.0629 93.9823 28.0629C91.0627 28.0629 88.6875 25.5069 88.6875 22.365C88.6875 19.2233 91.0627 16.667 93.9823 16.667C95.5531 16.667 96.9068 17.4078 97.8233 18.5806ZM89.9238 22.3649C89.9238 24.8252 91.7443 26.8266 93.9823 26.8266C96.2203 26.8266 98.0408 24.8252 98.0408 22.3649C98.0408 19.9048 96.2203 17.9034 93.9823 17.9034C91.7443 17.9034 89.9238 19.9048 89.9238 22.3649Z" fill="black"/>
<path d="M105.904 12.481H107.302L115.08 24.7599C115.08 24.7599 115.605 25.6339 115.736 25.9616V12.481H117.003V27.775H115.605L107.826 15.496C107.826 15.496 107.302 14.6221 107.171 14.2944V27.775H105.904V12.481Z" fill="black"/>
<path fill-rule="evenodd" clip-rule="evenodd" d="M123.273 26.9886C120.804 26.9886 119.275 24.9348 119.188 22.4659H128.43V22.0508C128.43 18.8828 126.507 16.6323 123.273 16.6323C120.28 16.6323 117.92 19.0356 117.92 22.3567C117.92 25.6996 120.258 28.081 123.208 28.081C125.655 28.081 127.184 26.8575 128.124 24.9129L127.206 24.3667C126.551 25.7651 125.415 26.9886 123.273 26.9886ZM127.053 21.3735H119.188C119.515 19.2979 121.176 17.7248 123.273 17.7248C125.174 17.7248 127.031 18.9483 127.053 21.3735Z" fill="black"/>
<path d="M138.655 26.4644L141.277 16.9385H142.544L139.398 27.7754H137.934L135.312 18.2493L132.69 27.7754H131.226L128.08 16.9385H129.347L131.969 26.4644L134.591 16.9385H136.033L138.655 26.4644Z" fill="black"/>
<path d="M147.176 21.5701C149.295 21.9634 150.759 22.8374 150.759 24.7164C150.759 26.3768 149.426 28.081 146.805 28.081C144.489 28.081 142.981 26.6827 142.326 24.9785L143.418 24.3231C143.942 25.9617 145.079 26.9886 146.805 26.9886C148.509 26.9886 149.492 26.071 149.492 24.7819C149.492 23.5146 148.553 22.9029 146.564 22.5533C144.532 22.2038 142.937 21.2643 142.937 19.4072C142.937 17.7029 144.554 16.6323 146.542 16.6323C148.705 16.6323 149.995 17.6592 150.65 19.2323L149.623 19.8223C149.055 18.3584 147.897 17.7248 146.564 17.7248C145.231 17.7248 144.117 18.3366 144.117 19.4508C144.117 20.6306 145.297 21.2206 147.176 21.5701Z" fill="black"/>
</g>
</g>
<defs>
<linearGradient id="paint0_linear_3537_3958" x1="8.42282" y1="27.2294" x2="25.639" y2="31.5473" gradientUnits="userSpaceOnUse">
<stop stop-color="#9C0000"/>
<stop offset="0.71613" stop-color="#FF4B4B"/>
<stop offset="1" stop-color="#FF4B4B"/>
</linearGradient>
<linearGradient id="paint1_linear_3537_3958" x1="-8.05312" y1="26.48" x2="22.0848" y2="40.0283" gradientUnits="userSpaceOnUse">
<stop stop-color="#FF1B2D"/>
<stop offset="0.3" stop-color="#FF1B2D"/>
<stop offset="0.42009" stop-color="#FA1A2C"/>
<stop offset="0.55548" stop-color="#ED1528"/>
<stop offset="0.69828" stop-color="#D60E21"/>
<stop offset="0.84533" stop-color="#B70519"/>
<stop offset="0.9086" stop-color="#A70014"/>
</linearGradient>
<linearGradient id="paint2_linear_3537_3958" x1="19.0316" y1="24.4862" x2="30.6528" y2="27.7212" gradientUnits="userSpaceOnUse">
<stop stop-color="#FF1B2D"/>
<stop offset="0.10809" stop-color="#FF1B2D"/>
<stop offset="0.26862" stop-color="#FA1A2C"/>
<stop offset="0.4496" stop-color="#ED1528"/>
<stop offset="0.64048" stop-color="#D60E21"/>
<stop offset="0.83704" stop-color="#B70519"/>
<stop offset="0.92161" stop-color="#A70014"/>
</linearGradient>
<clipPath id="clip0_3537_3958">
<rect width="151" height="40" fill="white"/>
</clipPath>
<clipPath id="clip1_3537_3958">
<rect width="151" height="40" fill="white"/>
</clipPath>
</defs>
</svg>
