<svg fill="none" height="493" viewBox="0 0 862 493" width="862" xmlns="http://www.w3.org/2000/svg"><path d="m597 262.5h-134c-1.657 0-3 1.343-3 3v30c0 1.657 1.343 3 3 3h134c1.657 0 3-1.343 3-3v-30c0-1.657-1.343-3-3-3z" fill="#d5e7f7"/><path d="m597 262.5h-134c-1.657 0-3 1.343-3 3v30c0 1.657 1.343 3 3 3h134c1.657 0 3-1.343 3-3v-30c0-1.657-1.343-3-3-3z" stroke="#2c88d9" stroke-linecap="round" stroke-linejoin="round" stroke-width="2"/><path d="m522.04 286.304c-1.008 0-1.648-.608-1.92-1.52l-.592-2.032c-.224-.752-.768-1.296-1.488-1.296h-2.336v4.544h-1.984v-11.344h5.344c2.496 0 4.176 1.36 4.176 3.376 0 1.552-1.088 2.736-2.896 3.056v.016c.608.272.96.784 1.152 1.44l.464 1.696c.096.368.32.64.672.64.32 0 .656-.24.896-.608l.624 1.024c-.512.608-1.264 1.008-2.112 1.008zm-6.336-10.064v3.696h3.184c1.408 0 2.352-.736 2.352-1.84 0-1.088-.944-1.856-2.352-1.856zm13.014 10.08c-2.672 0-4.432-1.744-4.432-4.384 0-2.656 1.76-4.4 4.432-4.4s4.432 1.744 4.432 4.4c0 2.64-1.76 4.384-4.432 4.384zm0-1.536c1.6 0 2.64-1.12 2.64-2.848s-1.04-2.832-2.64-2.832c-1.616 0-2.64 1.104-2.64 2.832s1.024 2.848 2.64 2.848zm7.383 1.216h-1.808v-11.824h1.808zm5.826.32c-2.736 0-4.688-1.856-4.688-4.448 0-2.544 1.76-4.336 4.272-4.336 2.464 0 4.08 1.76 4.096 4.24 0 .224-.016.496-.064.688h-6.432c.16 1.456 1.312 2.432 2.864 2.432 1.152 0 2.16-.576 2.64-1.344l1.2.736c-.576 1.2-2.112 2.032-3.888 2.032zm-2.816-5.088h4.64c-.128-1.44-.992-2.272-2.24-2.272-1.28 0-2.224.928-2.4 2.272z" fill="#293845"/><path d="m510.333 140.5h-134c-1.656 0-3 1.343-3 3v46c0 1.657 1.344 3 3 3h134c1.657 0 3-1.343 3-3v-46c0-1.657-1.343-3-3-3z" fill="#fff"/><path d="m510.333 140.5h-134c-1.656 0-3 1.343-3 3v46c0 1.657 1.344 3 3 3h134c1.657 0 3-1.343 3-3v-46c0-1.657-1.343-3-3-3z" fill="#2c88d9"/><path d="m435.373 172.304c-1.008 0-1.648-.608-1.92-1.52l-.592-2.032c-.224-.752-.768-1.296-1.488-1.296h-2.336v4.544h-1.984v-11.344h5.344c2.496 0 4.176 1.36 4.176 3.376 0 1.552-1.088 2.736-2.896 3.056v.016c.608.272.96.784 1.152 1.44l.464 1.696c.096.368.32.64.672.64.32 0 .656-.24.896-.608l.624 1.024c-.512.608-1.264 1.008-2.112 1.008zm-6.336-10.064v3.696h3.184c1.408 0 2.352-.736 2.352-1.84 0-1.088-.944-1.856-2.352-1.856zm13.014 10.08c-2.672 0-4.432-1.744-4.432-4.384 0-2.656 1.76-4.4 4.432-4.4s4.432 1.744 4.432 4.4c0 2.64-1.76 4.384-4.432 4.384zm0-1.536c1.6 0 2.64-1.12 2.64-2.848s-1.04-2.832-2.64-2.832c-1.616 0-2.64 1.104-2.64 2.832s1.024 2.848 2.64 2.848zm7.383 1.216h-1.808v-11.824h1.808zm5.826.32c-2.736 0-4.688-1.856-4.688-4.448 0-2.544 1.76-4.336 4.272-4.336 2.464 0 4.08 1.76 4.096 4.24 0 .224-.016.496-.064.688h-6.432c.16 1.456 1.312 2.432 2.864 2.432 1.152 0 2.16-.576 2.64-1.344l1.2.736c-.576 1.2-2.112 2.032-3.888 2.032zm-2.816-5.088h4.64c-.128-1.44-.992-2.272-2.24-2.272-1.28 0-2.224.928-2.4 2.272z" fill="#fff"/><path d="m684.667 140.5h-134c-1.657 0-3 1.343-3 3v46c0 1.657 1.343 3 3 3h134c1.657 0 3-1.343 3-3v-46c0-1.657-1.343-3-3-3z" fill="#fff"/><path d="m684.667 140.5h-134c-1.657 0-3 1.343-3 3v46c0 1.657 1.343 3 3 3h134c1.657 0 3-1.343 3-3v-46c0-1.657-1.343-3-3-3z" fill="#1aae9f"/><path d="m609.706 172.304c-1.008 0-1.648-.608-1.92-1.52l-.592-2.032c-.224-.752-.768-1.296-1.488-1.296h-2.336v4.544h-1.984v-11.344h5.344c2.496 0 4.176 1.36 4.176 3.376 0 1.552-1.088 2.736-2.896 3.056v.016c.608.272.96.784 1.152 1.44l.464 1.696c.096.368.32.64.672.64.32 0 .656-.24.896-.608l.624 1.024c-.512.608-1.264 1.008-2.112 1.008zm-6.336-10.064v3.696h3.184c1.408 0 2.352-.736 2.352-1.84 0-1.088-.944-1.856-2.352-1.856zm13.014 10.08c-2.672 0-4.432-1.744-4.432-4.384 0-2.656 1.76-4.4 4.432-4.4s4.432 1.744 4.432 4.4c0 2.64-1.76 4.384-4.432 4.384zm0-1.536c1.6 0 2.64-1.12 2.64-2.848s-1.04-2.832-2.64-2.832c-1.616 0-2.64 1.104-2.64 2.832s1.024 2.848 2.64 2.848zm7.384 1.216h-1.808v-11.824h1.808zm5.826.32c-2.736 0-4.688-1.856-4.688-4.448 0-2.544 1.76-4.336 4.272-4.336 2.464 0 4.08 1.76 4.096 4.24 0 .224-.016.496-.064.688h-6.432c.16 1.456 1.312 2.432 2.864 2.432 1.152 0 2.16-.576 2.64-1.344l1.2.736c-.576 1.2-2.112 2.032-3.888 2.032zm-2.816-5.088h4.64c-.128-1.44-.992-2.272-2.24-2.272-1.28 0-2.224.928-2.4 2.272z" fill="#fff"/><path d="m187 263.5h-134c-1.6569 0-3 1.343-3 3v30c0 1.657 1.3431 3 3 3h134c1.657 0 3-1.343 3-3v-30c0-1.657-1.343-3-3-3z" fill="#fdf3d3"/><path d="m187 263.5h-134c-1.6569 0-3 1.343-3 3v30c0 1.657 1.3431 3 3 3h134c1.657 0 3-1.343 3-3v-30c0-1.657-1.343-3-3-3z" stroke="#f7c325" stroke-linecap="round" stroke-linejoin="round" stroke-width="2"/><path d="m112.04 287.304c-1.008 0-1.648-.608-1.92-1.52l-.592-2.032c-.224-.752-.768-1.296-1.488-1.296h-2.336v4.544h-1.984v-11.344h5.344c2.496 0 4.176 1.36 4.176 3.376 0 1.552-1.088 2.736-2.896 3.056v.016c.608.272.96.784 1.152 1.44l.464 1.696c.096.368.32.64.672.64.32 0 .656-.24.896-.608l.624 1.024c-.512.608-1.264 1.008-2.112 1.008zm-6.336-10.064v3.696h3.184c1.408 0 2.352-.736 2.352-1.84 0-1.088-.944-1.856-2.352-1.856zm13.014 10.08c-2.672 0-4.432-1.744-4.432-4.384 0-2.656 1.76-4.4 4.432-4.4s4.432 1.744 4.432 4.4c0 2.64-1.76 4.384-4.432 4.384zm0-1.536c1.6 0 2.64-1.12 2.64-2.848s-1.04-2.832-2.64-2.832c-1.616 0-2.64 1.104-2.64 2.832s1.024 2.848 2.64 2.848zm7.383 1.216h-1.808v-11.824h1.808zm5.826.32c-2.736 0-4.688-1.856-4.688-4.448 0-2.544 1.76-4.336 4.272-4.336 2.464 0 4.08 1.76 4.096 4.24 0 .224-.016.496-.064.688h-6.432c.16 1.456 1.312 2.432 2.864 2.432 1.152 0 2.16-.576 2.64-1.344l1.2.736c-.576 1.2-2.112 2.032-3.888 2.032zm-2.816-5.088h4.64c-.128-1.44-.992-2.272-2.24-2.272-1.28 0-2.224.928-2.4 2.272z" fill="#293845"/><path d="m167 395.5h-134c-1.6569 0-3 1.343-3 3v30c0 1.657 1.3431 3 3 3h134c1.657 0 3-1.343 3-3v-30c0-1.657-1.343-3-3-3z" fill="#fdf3d3"/><path d="m167 395.5h-134c-1.6569 0-3 1.343-3 3v30c0 1.657 1.3431 3 3 3h134c1.657 0 3-1.343 3-3v-30c0-1.657-1.343-3-3-3z" stroke="#f7c325" stroke-linecap="round" stroke-linejoin="round" stroke-width="2"/><path d="m92.0395 419.304c-1.008 0-1.648-.608-1.92-1.52l-.592-2.032c-.224-.752-.768-1.296-1.488-1.296h-2.336v4.544h-1.984v-11.344h5.344c2.496 0 4.176 1.36 4.176 3.376 0 1.552-1.088 2.736-2.896 3.056v.016c.608.272.96.784 1.152 1.44l.464 1.696c.096.368.32.64.672.64.32 0 .656-.24.896-.608l.624 1.024c-.512.608-1.264 1.008-2.112 1.008zm-6.336-10.064v3.696h3.184c1.408 0 2.352-.736 2.352-1.84 0-1.088-.944-1.856-2.352-1.856zm13.0141 10.08c-2.672 0-4.432-1.744-4.432-4.384 0-2.656 1.76-4.4 4.432-4.4 2.6724 0 4.4324 1.744 4.4324 4.4 0 2.64-1.76 4.384-4.4324 4.384zm0-1.536c1.6004 0 2.6404-1.12 2.6404-2.848s-1.04-2.832-2.6404-2.832c-1.616 0-2.64 1.104-2.64 2.832s1.024 2.848 2.64 2.848zm7.3834 1.216h-1.808v-11.824h1.808zm5.826.32c-2.736 0-4.688-1.856-4.688-4.448 0-2.544 1.76-4.336 4.272-4.336 2.464 0 4.08 1.76 4.096 4.24 0 .224-.016.496-.064.688h-6.432c.16 1.456 1.312 2.432 2.864 2.432 1.152 0 2.16-.576 2.64-1.344l1.2.736c-.576 1.2-2.112 2.032-3.888 2.032zm-2.816-5.088h4.64c-.128-1.44-.992-2.272-2.24-2.272-1.28 0-2.224.928-2.4 2.272z" fill="#293845"/><path d="m167 342.5h-134c-1.6569 0-3 1.343-3 3v30c0 1.657 1.3431 3 3 3h134c1.657 0 3-1.343 3-3v-30c0-1.657-1.343-3-3-3z" fill="#fdf3d3"/><path d="m167 342.5h-134c-1.6569 0-3 1.343-3 3v30c0 1.657 1.3431 3 3 3h134c1.657 0 3-1.343 3-3v-30c0-1.657-1.343-3-3-3z" stroke="#f7c325" stroke-linecap="round" stroke-linejoin="round" stroke-width="2"/><path d="m92.0395 366.304c-1.008 0-1.648-.608-1.92-1.52l-.592-2.032c-.224-.752-.768-1.296-1.488-1.296h-2.336v4.544h-1.984v-11.344h5.344c2.496 0 4.176 1.36 4.176 3.376 0 1.552-1.088 2.736-2.896 3.056v.016c.608.272.96.784 1.152 1.44l.464 1.696c.096.368.32.64.672.64.32 0 .656-.24.896-.608l.624 1.024c-.512.608-1.264 1.008-2.112 1.008zm-6.336-10.064v3.696h3.184c1.408 0 2.352-.736 2.352-1.84 0-1.088-.944-1.856-2.352-1.856zm13.0141 10.08c-2.672 0-4.432-1.744-4.432-4.384 0-2.656 1.76-4.4 4.432-4.4 2.6724 0 4.4324 1.744 4.4324 4.4 0 2.64-1.76 4.384-4.4324 4.384zm0-1.536c1.6004 0 2.6404-1.12 2.6404-2.848s-1.04-2.832-2.6404-2.832c-1.616 0-2.64 1.104-2.64 2.832s1.024 2.848 2.64 2.848zm7.3834 1.216h-1.808v-11.824h1.808zm5.826.32c-2.736 0-4.688-1.856-4.688-4.448 0-2.544 1.76-4.336 4.272-4.336 2.464 0 4.08 1.76 4.096 4.24 0 .224-.016.496-.064.688h-6.432c.16 1.456 1.312 2.432 2.864 2.432 1.152 0 2.16-.576 2.64-1.344l1.2.736c-.576 1.2-2.112 2.032-3.888 2.032zm-2.816-5.088h4.64c-.128-1.44-.992-2.272-2.24-2.272-1.28 0-2.224.928-2.4 2.272z" fill="#293845"/><path d="m336 140.5h-134c-1.657 0-3 1.343-3 3v46c0 1.657 1.343 3 3 3h134c1.657 0 3-1.343 3-3v-46c0-1.657-1.343-3-3-3z" fill="#fff"/><path d="m336 140.5h-134c-1.657 0-3 1.343-3 3v46c0 1.657 1.343 3 3 3h134c1.657 0 3-1.343 3-3v-46c0-1.657-1.343-3-3-3z" fill="#f7c325"/><path d="m261.04 172.304c-1.008 0-1.648-.608-1.92-1.52l-.592-2.032c-.224-.752-.768-1.296-1.488-1.296h-2.336v4.544h-1.984v-11.344h5.344c2.496 0 4.176 1.36 4.176 3.376 0 1.552-1.088 2.736-2.896 3.056v.016c.608.272.96.784 1.152 1.44l.464 1.696c.096.368.32.64.672.64.32 0 .656-.24.896-.608l.624 1.024c-.512.608-1.264 1.008-2.112 1.008zm-6.336-10.064v3.696h3.184c1.408 0 2.352-.736 2.352-1.84 0-1.088-.944-1.856-2.352-1.856zm13.014 10.08c-2.672 0-4.432-1.744-4.432-4.384 0-2.656 1.76-4.4 4.432-4.4s4.432 1.744 4.432 4.4c0 2.64-1.76 4.384-4.432 4.384zm0-1.536c1.6 0 2.64-1.12 2.64-2.848s-1.04-2.832-2.64-2.832c-1.616 0-2.64 1.104-2.64 2.832s1.024 2.848 2.64 2.848zm7.383 1.216h-1.808v-11.824h1.808zm5.826.32c-2.736 0-4.688-1.856-4.688-4.448 0-2.544 1.76-4.336 4.272-4.336 2.464 0 4.08 1.76 4.096 4.24 0 .224-.016.496-.064.688h-6.432c.16 1.456 1.312 2.432 2.864 2.432 1.152 0 2.16-.576 2.64-1.344l1.2.736c-.576 1.2-2.112 2.032-3.888 2.032zm-2.816-5.088h4.64c-.128-1.44-.992-2.272-2.24-2.272-1.28 0-2.224.928-2.4 2.272z" fill="#293845"/><path d="m859 140.5h-134c-1.657 0-3 1.343-3 3v46c0 1.657 1.343 3 3 3h134c1.657 0 3-1.343 3-3v-46c0-1.657-1.343-3-3-3z" fill="#fff"/><path d="m859 140.5h-134c-1.657 0-3 1.343-3 3v46c0 1.657 1.343 3 3 3h134c1.657 0 3-1.343 3-3v-46c0-1.657-1.343-3-3-3z" fill="#730fc3"/><path d="m784.04 172.304c-1.008 0-1.648-.608-1.92-1.52l-.592-2.032c-.224-.752-.768-1.296-1.488-1.296h-2.336v4.544h-1.984v-11.344h5.344c2.496 0 4.176 1.36 4.176 3.376 0 1.552-1.088 2.736-2.896 3.056v.016c.608.272.96.784 1.152 1.44l.464 1.696c.096.368.32.64.672.64.32 0 .656-.24.896-.608l.624 1.024c-.512.608-1.264 1.008-2.112 1.008zm-6.336-10.064v3.696h3.184c1.408 0 2.352-.736 2.352-1.84 0-1.088-.944-1.856-2.352-1.856zm13.014 10.08c-2.672 0-4.432-1.744-4.432-4.384 0-2.656 1.76-4.4 4.432-4.4s4.432 1.744 4.432 4.4c0 2.64-1.76 4.384-4.432 4.384zm0-1.536c1.6 0 2.64-1.12 2.64-2.848s-1.04-2.832-2.64-2.832c-1.616 0-2.64 1.104-2.64 2.832s1.024 2.848 2.64 2.848zm7.383 1.216h-1.808v-11.824h1.808zm5.826.32c-2.736 0-4.688-1.856-4.688-4.448 0-2.544 1.76-4.336 4.272-4.336 2.464 0 4.08 1.76 4.096 4.24 0 .224-.016.496-.064.688h-6.432c.16 1.456 1.312 2.432 2.864 2.432 1.152 0 2.16-.576 2.64-1.344l1.2.736c-.576 1.2-2.112 2.032-3.888 2.032zm-2.816-5.088h4.64c-.128-1.44-.992-2.272-2.24-2.272-1.28 0-2.224.928-2.4 2.272z" fill="#fff"/><path d="m623 .5h-186c-1.657 0-3 1.34315-3 3v62c0 1.6569 1.343 3 3 3h186c1.657 0 3-1.3431 3-3v-62c0-1.65685-1.343-3-3-3z" fill="#fff"/><path d="m623 .5h-186c-1.657 0-3 1.34315-3 3v62c0 1.6569 1.343 3 3 3h186c1.657 0 3-1.3431 3-3v-62c0-1.65685-1.343-3-3-3z" fill="#6558f5"/><path d="m522.248 40.304c-1.008 0-1.648-.608-1.92-1.52l-.592-2.032c-.224-.752-.768-1.296-1.488-1.296h-2.336v4.544h-1.984v-11.344h5.344c2.496 0 4.176 1.36 4.176 3.376 0 1.552-1.088 2.736-2.896 3.056v.016c.608.272.96.784 1.152 1.44l.464 1.696c.096.368.32.64.672.64.32 0 .656-.24.896-.608l.624 1.024c-.512.608-1.264 1.008-2.112 1.008zm-6.336-10.064v3.696h3.184c1.408 0 2.352-.736 2.352-1.84 0-1.088-.944-1.856-2.352-1.856zm13.015 10.08c-2.672 0-4.432-1.744-4.432-4.384 0-2.656 1.76-4.4 4.432-4.4s4.432 1.744 4.432 4.4c0 2.64-1.76 4.384-4.432 4.384zm0-1.536c1.6 0 2.64-1.12 2.64-2.848s-1.04-2.832-2.64-2.832c-1.616 0-2.64 1.104-2.64 2.832s1.024 2.848 2.64 2.848zm7.383 1.216h-1.808v-11.824h1.808zm5.826.32c-2.736 0-4.688-1.856-4.688-4.448 0-2.544 1.76-4.336 4.272-4.336 2.464 0 4.08 1.76 4.096 4.24 0 .224-.016.496-.064.688h-6.432c.16 1.456 1.312 2.432 2.864 2.432 1.152 0 2.16-.576 2.64-1.344l1.2.736c-.576 1.2-2.112 2.032-3.888 2.032zm-2.816-5.088h4.64c-.128-1.44-.992-2.272-2.24-2.272-1.28 0-2.224.928-2.4 2.272z" fill="#fff"/><path d="m447 262.5h-134c-1.657 0-3 1.343-3 3v30c0 1.657 1.343 3 3 3h134c1.657 0 3-1.343 3-3v-30c0-1.657-1.343-3-3-3z" fill="#d5e7f7"/><path d="m447 262.5h-134c-1.657 0-3 1.343-3 3v30c0 1.657 1.343 3 3 3h134c1.657 0 3-1.343 3-3v-30c0-1.657-1.343-3-3-3z" stroke="#2c88d9" stroke-linecap="round" stroke-linejoin="round" stroke-width="2"/><path d="m372.04 286.304c-1.008 0-1.648-.608-1.92-1.52l-.592-2.032c-.224-.752-.768-1.296-1.488-1.296h-2.336v4.544h-1.984v-11.344h5.344c2.496 0 4.176 1.36 4.176 3.376 0 1.552-1.088 2.736-2.896 3.056v.016c.608.272.96.784 1.152 1.44l.464 1.696c.096.368.32.64.672.64.32 0 .656-.24.896-.608l.624 1.024c-.512.608-1.264 1.008-2.112 1.008zm-6.336-10.064v3.696h3.184c1.408 0 2.352-.736 2.352-1.84 0-1.088-.944-1.856-2.352-1.856zm13.014 10.08c-2.672 0-4.432-1.744-4.432-4.384 0-2.656 1.76-4.4 4.432-4.4s4.432 1.744 4.432 4.4c0 2.64-1.76 4.384-4.432 4.384zm0-1.536c1.6 0 2.64-1.12 2.64-2.848s-1.04-2.832-2.64-2.832c-1.616 0-2.64 1.104-2.64 2.832s1.024 2.848 2.64 2.848zm7.383 1.216h-1.808v-11.824h1.808zm5.826.32c-2.736 0-4.688-1.856-4.688-4.448 0-2.544 1.76-4.336 4.272-4.336 2.464 0 4.08 1.76 4.096 4.24 0 .224-.016.496-.064.688h-6.432c.16 1.456 1.312 2.432 2.864 2.432 1.152 0 2.16-.576 2.64-1.344l1.2.736c-.576 1.2-2.112 2.032-3.888 2.032zm-2.816-5.088h4.64c-.128-1.44-.992-2.272-2.24-2.272-1.28 0-2.224.928-2.4 2.272z" fill="#293845"/><path d="m447 305.833h-134c-1.657 0-3 1.344-3 3v30c0 1.657 1.343 3 3 3h134c1.657 0 3-1.343 3-3v-30c0-1.656-1.343-3-3-3z" fill="#d5e7f7"/><path d="m447 305.833h-134c-1.657 0-3 1.344-3 3v30c0 1.657 1.343 3 3 3h134c1.657 0 3-1.343 3-3v-30c0-1.656-1.343-3-3-3z" stroke="#2c88d9" stroke-linecap="round" stroke-linejoin="round" stroke-width="2"/><path d="m372.04 329.637c-1.008 0-1.648-.608-1.92-1.52l-.592-2.032c-.224-.752-.768-1.296-1.488-1.296h-2.336v4.544h-1.984v-11.344h5.344c2.496 0 4.176 1.36 4.176 3.376 0 1.552-1.088 2.736-2.896 3.056v.016c.608.272.96.784 1.152 1.44l.464 1.696c.096.368.32.64.672.64.32 0 .656-.24.896-.608l.624 1.024c-.512.608-1.264 1.008-2.112 1.008zm-6.336-10.064v3.696h3.184c1.408 0 2.352-.736 2.352-1.84 0-1.088-.944-1.856-2.352-1.856zm13.014 10.08c-2.672 0-4.432-1.744-4.432-4.384 0-2.656 1.76-4.4 4.432-4.4s4.432 1.744 4.432 4.4c0 2.64-1.76 4.384-4.432 4.384zm0-1.536c1.6 0 2.64-1.12 2.64-2.848s-1.04-2.832-2.64-2.832c-1.616 0-2.64 1.104-2.64 2.832s1.024 2.848 2.64 2.848zm7.383 1.216h-1.808v-11.824h1.808zm5.826.32c-2.736 0-4.688-1.856-4.688-4.448 0-2.544 1.76-4.336 4.272-4.336 2.464 0 4.08 1.76 4.096 4.24 0 .224-.016.496-.064.688h-6.432c.16 1.456 1.312 2.432 2.864 2.432 1.152 0 2.16-.576 2.64-1.344l1.2.736c-.576 1.2-2.112 2.032-3.888 2.032zm-2.816-5.088h4.64c-.128-1.44-.992-2.272-2.24-2.272-1.28 0-2.224.928-2.4 2.272z" fill="#293845"/><path d="m761 262.5h-134c-1.657 0-3 1.343-3 3v31.333c0 1.657 1.343 3 3 3h134c1.657 0 3-1.343 3-3v-31.333c0-1.657-1.343-3-3-3z" fill="#d1efec"/><path d="m761 262.5h-134c-1.657 0-3 1.343-3 3v31.333c0 1.657 1.343 3 3 3h134c1.657 0 3-1.343 3-3v-31.333c0-1.657-1.343-3-3-3z" stroke="#1aae9f" stroke-linecap="round" stroke-linejoin="round" stroke-width="2"/><path d="m686.04 286.971c-1.008 0-1.648-.608-1.92-1.52l-.592-2.032c-.224-.752-.768-1.296-1.488-1.296h-2.336v4.544h-1.984v-11.344h5.344c2.496 0 4.176 1.36 4.176 3.376 0 1.552-1.088 2.736-2.896 3.056v.016c.608.272.96.784 1.152 1.44l.464 1.696c.096.368.32.64.672.64.32 0 .656-.24.896-.608l.624 1.024c-.512.608-1.264 1.008-2.112 1.008zm-6.336-10.064v3.696h3.184c1.408 0 2.352-.736 2.352-1.84 0-1.088-.944-1.856-2.352-1.856zm13.014 10.08c-2.672 0-4.432-1.744-4.432-4.384 0-2.656 1.76-4.4 4.432-4.4s4.432 1.744 4.432 4.4c0 2.64-1.76 4.384-4.432 4.384zm0-1.536c1.6 0 2.64-1.12 2.64-2.848s-1.04-2.832-2.64-2.832c-1.616 0-2.64 1.104-2.64 2.832s1.024 2.848 2.64 2.848zm7.383 1.216h-1.808v-11.824h1.808zm5.826.32c-2.736 0-4.688-1.856-4.688-4.448 0-2.544 1.76-4.336 4.272-4.336 2.464 0 4.08 1.76 4.096 4.24 0 .224-.016.496-.064.688h-6.432c.16 1.456 1.312 2.432 2.864 2.432 1.152 0 2.16-.576 2.64-1.344l1.2.736c-.576 1.2-2.112 2.032-3.888 2.032zm-2.816-5.088h4.64c-.128-1.44-.992-2.272-2.24-2.272-1.28 0-2.224.928-2.4 2.272z" fill="#293845"/><path d="m838 455.5h-134c-1.657 0-3 1.343-3 3v30c0 1.657 1.343 3 3 3h134c1.657 0 3-1.343 3-3v-30c0-1.657-1.343-3-3-3z" fill="#d1efec"/><path d="m838 455.5h-134c-1.657 0-3 1.343-3 3v30c0 1.657 1.343 3 3 3h134c1.657 0 3-1.343 3-3v-30c0-1.657-1.343-3-3-3z" stroke="#1aae9f" stroke-linecap="round" stroke-linejoin="round" stroke-width="2"/><path d="m763.04 479.304c-1.008 0-1.648-.608-1.92-1.52l-.592-2.032c-.224-.752-.768-1.296-1.488-1.296h-2.336v4.544h-1.984v-11.344h5.344c2.496 0 4.176 1.36 4.176 3.376 0 1.552-1.088 2.736-2.896 3.056v.016c.608.272.96.784 1.152 1.44l.464 1.696c.096.368.32.64.672.64.32 0 .656-.24.896-.608l.624 1.024c-.512.608-1.264 1.008-2.112 1.008zm-6.336-10.064v3.696h3.184c1.408 0 2.352-.736 2.352-1.84 0-1.088-.944-1.856-2.352-1.856zm13.014 10.08c-2.672 0-4.432-1.744-4.432-4.384 0-2.656 1.76-4.4 4.432-4.4s4.432 1.744 4.432 4.4c0 2.64-1.76 4.384-4.432 4.384zm0-1.536c1.6 0 2.64-1.12 2.64-2.848s-1.04-2.832-2.64-2.832c-1.616 0-2.64 1.104-2.64 2.832s1.024 2.848 2.64 2.848zm7.383 1.216h-1.808v-11.824h1.808zm5.826.32c-2.736 0-4.688-1.856-4.688-4.448 0-2.544 1.76-4.336 4.272-4.336 2.464 0 4.08 1.76 4.096 4.24 0 .224-.016.496-.064.688h-6.432c.16 1.456 1.312 2.432 2.864 2.432 1.152 0 2.16-.576 2.64-1.344l1.2.736c-.576 1.2-2.112 2.032-3.888 2.032zm-2.816-5.088h4.64c-.128-1.44-.992-2.272-2.24-2.272-1.28 0-2.224.928-2.4 2.272z" fill="#293845"/><path d="m761 338.167h-134c-1.657 0-3 1.343-3 3v31.333c0 1.657 1.343 3 3 3h134c1.657 0 3-1.343 3-3v-31.333c0-1.657-1.343-3-3-3z" fill="#d1efec"/><path d="m761 338.167h-134c-1.657 0-3 1.343-3 3v31.333c0 1.657 1.343 3 3 3h134c1.657 0 3-1.343 3-3v-31.333c0-1.657-1.343-3-3-3z" stroke="#1aae9f" stroke-linecap="round" stroke-linejoin="round" stroke-width="2"/><path d="m686.04 362.637c-1.008 0-1.648-.608-1.92-1.52l-.592-2.032c-.224-.752-.768-1.296-1.488-1.296h-2.336v4.544h-1.984v-11.344h5.344c2.496 0 4.176 1.36 4.176 3.376 0 1.552-1.088 2.736-2.896 3.056v.016c.608.272.96.784 1.152 1.44l.464 1.696c.096.368.32.64.672.64.32 0 .656-.24.896-.608l.624 1.024c-.512.608-1.264 1.008-2.112 1.008zm-6.336-10.064v3.696h3.184c1.408 0 2.352-.736 2.352-1.84 0-1.088-.944-1.856-2.352-1.856zm13.014 10.08c-2.672 0-4.432-1.744-4.432-4.384 0-2.656 1.76-4.4 4.432-4.4s4.432 1.744 4.432 4.4c0 2.64-1.76 4.384-4.432 4.384zm0-1.536c1.6 0 2.64-1.12 2.64-2.848s-1.04-2.832-2.64-2.832c-1.616 0-2.64 1.104-2.64 2.832s1.024 2.848 2.64 2.848zm7.383 1.216h-1.808v-11.824h1.808zm5.826.32c-2.736 0-4.688-1.856-4.688-4.448 0-2.544 1.76-4.336 4.272-4.336 2.464 0 4.08 1.76 4.096 4.24 0 .224-.016.496-.064.688h-6.432c.16 1.456 1.312 2.432 2.864 2.432 1.152 0 2.16-.576 2.64-1.344l1.2.736c-.576 1.2-2.112 2.032-3.888 2.032zm-2.816-5.088h4.64c-.128-1.44-.992-2.272-2.24-2.272-1.28 0-2.224.928-2.4 2.272z" fill="#293845"/><path d="m684 455.5h-134c-1.657 0-3 1.343-3 3v30c0 1.657 1.343 3 3 3h134c1.657 0 3-1.343 3-3v-30c0-1.657-1.343-3-3-3z" fill="#d1efec"/><path d="m684 455.5h-134c-1.657 0-3 1.343-3 3v30c0 1.657 1.343 3 3 3h134c1.657 0 3-1.343 3-3v-30c0-1.657-1.343-3-3-3z" stroke="#1aae9f" stroke-linecap="round" stroke-linejoin="round" stroke-width="2"/><path d="m609.04 479.304c-1.008 0-1.648-.608-1.92-1.52l-.592-2.032c-.224-.752-.768-1.296-1.488-1.296h-2.336v4.544h-1.984v-11.344h5.344c2.496 0 4.176 1.36 4.176 3.376 0 1.552-1.088 2.736-2.896 3.056v.016c.608.272.96.784 1.152 1.44l.464 1.696c.096.368.32.64.672.64.32 0 .656-.24.896-.608l.624 1.024c-.512.608-1.264 1.008-2.112 1.008zm-6.336-10.064v3.696h3.184c1.408 0 2.352-.736 2.352-1.84 0-1.088-.944-1.856-2.352-1.856zm13.014 10.08c-2.672 0-4.432-1.744-4.432-4.384 0-2.656 1.76-4.4 4.432-4.4s4.432 1.744 4.432 4.4c0 2.64-1.76 4.384-4.432 4.384zm0-1.536c1.6 0 2.64-1.12 2.64-2.848s-1.04-2.832-2.64-2.832c-1.616 0-2.64 1.104-2.64 2.832s1.024 2.848 2.64 2.848zm7.383 1.216h-1.808v-11.824h1.808zm5.826.32c-2.736 0-4.688-1.856-4.688-4.448 0-2.544 1.76-4.336 4.272-4.336 2.464 0 4.08 1.76 4.096 4.24 0 .224-.016.496-.064.688h-6.432c.16 1.456 1.312 2.432 2.864 2.432 1.152 0 2.16-.576 2.64-1.344l1.2.736c-.576 1.2-2.112 2.032-3.888 2.032zm-2.816-5.088h4.64c-.128-1.44-.992-2.272-2.24-2.272-1.28 0-2.224.928-2.4 2.272z" fill="#293845"/><path d="m447 349.167h-134c-1.657 0-3 1.343-3 3v30c0 1.657 1.343 3 3 3h134c1.657 0 3-1.343 3-3v-30c0-1.657-1.343-3-3-3z" fill="#d5e7f7"/><path d="m447 349.167h-134c-1.657 0-3 1.343-3 3v30c0 1.657 1.343 3 3 3h134c1.657 0 3-1.343 3-3v-30c0-1.657-1.343-3-3-3z" stroke="#2c88d9" stroke-linecap="round" stroke-linejoin="round" stroke-width="2"/><path d="m372.04 372.971c-1.008 0-1.648-.608-1.92-1.52l-.592-2.032c-.224-.752-.768-1.296-1.488-1.296h-2.336v4.544h-1.984v-11.344h5.344c2.496 0 4.176 1.36 4.176 3.376 0 1.552-1.088 2.736-2.896 3.056v.016c.608.272.96.784 1.152 1.44l.464 1.696c.096.368.32.64.672.64.32 0 .656-.24.896-.608l.624 1.024c-.512.608-1.264 1.008-2.112 1.008zm-6.336-10.064v3.696h3.184c1.408 0 2.352-.736 2.352-1.84 0-1.088-.944-1.856-2.352-1.856zm13.014 10.08c-2.672 0-4.432-1.744-4.432-4.384 0-2.656 1.76-4.4 4.432-4.4s4.432 1.744 4.432 4.4c0 2.64-1.76 4.384-4.432 4.384zm0-1.536c1.6 0 2.64-1.12 2.64-2.848s-1.04-2.832-2.64-2.832c-1.616 0-2.64 1.104-2.64 2.832s1.024 2.848 2.64 2.848zm7.383 1.216h-1.808v-11.824h1.808zm5.826.32c-2.736 0-4.688-1.856-4.688-4.448 0-2.544 1.76-4.336 4.272-4.336 2.464 0 4.08 1.76 4.096 4.24 0 .224-.016.496-.064.688h-6.432c.16 1.456 1.312 2.432 2.864 2.432 1.152 0 2.16-.576 2.64-1.344l1.2.736c-.576 1.2-2.112 2.032-3.888 2.032zm-2.816-5.088h4.64c-.128-1.44-.992-2.272-2.24-2.272-1.28 0-2.224.928-2.4 2.272z" fill="#293845"/><path d="m447 392.5h-134c-1.657 0-3 1.343-3 3v30c0 1.657 1.343 3 3 3h134c1.657 0 3-1.343 3-3v-30c0-1.657-1.343-3-3-3z" fill="#d5e7f7"/><path d="m447 392.5h-134c-1.657 0-3 1.343-3 3v30c0 1.657 1.343 3 3 3h134c1.657 0 3-1.343 3-3v-30c0-1.657-1.343-3-3-3z" stroke="#2c88d9" stroke-linecap="round" stroke-linejoin="round" stroke-width="2"/><path d="m372.04 416.304c-1.008 0-1.648-.608-1.92-1.52l-.592-2.032c-.224-.752-.768-1.296-1.488-1.296h-2.336v4.544h-1.984v-11.344h5.344c2.496 0 4.176 1.36 4.176 3.376 0 1.552-1.088 2.736-2.896 3.056v.016c.608.272.96.784 1.152 1.44l.464 1.696c.096.368.32.64.672.64.32 0 .656-.24.896-.608l.624 1.024c-.512.608-1.264 1.008-2.112 1.008zm-6.336-10.064v3.696h3.184c1.408 0 2.352-.736 2.352-1.84 0-1.088-.944-1.856-2.352-1.856zm13.014 10.08c-2.672 0-4.432-1.744-4.432-4.384 0-2.656 1.76-4.4 4.432-4.4s4.432 1.744 4.432 4.4c0 2.64-1.76 4.384-4.432 4.384zm0-1.536c1.6 0 2.64-1.12 2.64-2.848s-1.04-2.832-2.64-2.832c-1.616 0-2.64 1.104-2.64 2.832s1.024 2.848 2.64 2.848zm7.383 1.216h-1.808v-11.824h1.808zm5.826.32c-2.736 0-4.688-1.856-4.688-4.448 0-2.544 1.76-4.336 4.272-4.336 2.464 0 4.08 1.76 4.096 4.24 0 .224-.016.496-.064.688h-6.432c.16 1.456 1.312 2.432 2.864 2.432 1.152 0 2.16-.576 2.64-1.344l1.2.736c-.576 1.2-2.112 2.032-3.888 2.032zm-2.816-5.088h4.64c-.128-1.44-.992-2.272-2.24-2.272-1.28 0-2.224.928-2.4 2.272z" fill="#293845"/><g stroke="#788896" stroke-linecap="round" stroke-linejoin="round"><path d="m530 76.5v10c0 5.5228-4.477 10-10 10h-61.667c-8.284 0-15 6.716-15 15v17" stroke-width="4"/><path d="m448.874 125.408-5.541 7.092-5.541-7.092z" fill="#788896" stroke-width="2"/><path d="m530 76.5v10c0 5.5228 4.477 10 10 10h62.667c8.284 0 15 6.716 15 15v17" stroke-width="4"/><path d="m623.208 125.408-5.541 7.092-5.541-7.092z" fill="#788896" stroke-width="2"/><path d="m530 76.5v10c0 5.5228-4.477 10-10 10h-236c-8.284 0-15 6.716-15 15v17" stroke-width="4"/><path d="m274.541 125.408-5.541 7.092-5.541-7.092z" fill="#788896" stroke-width="2"/><path d="m530 76.5v10c0 5.5228 4.477 10 10 10h237c8.284 0 15 6.716 15 15v17" stroke-width="4"/><path d="m797.541 125.408-5.541 7.092-5.541-7.092z" fill="#788896" stroke-width="2"/><path d="m269 200.5v10c0 5.523-4.477 10-10 10h-124c-8.284 0-15 6.716-15 15v16" stroke-width="4"/><path d="m125.541 248.408-5.541 7.092-5.541-7.092z" fill="#788896" stroke-width="2"/><path d="m120 307.5v8.5c0 4.694-3.806 8.5-8.5 8.5h-94.5c-8.28426 0-15 6.716-15 15v11c0 5.523 4.47716 10 10 10h6" stroke-width="4"/><path d="m14.9079 354.959 7.0921 5.541-7.0921 5.541z" fill="#788896" stroke-width="2"/><path d="m443.333 200.5v14c0 7.732 6.268 14 14 14h59.667c7.18 0 13 5.82 13 13v9" stroke-width="4"/><path d="m535.541 247.408-5.541 7.092-5.541-7.092z" fill="#788896" stroke-width="2"/><path d="m617.667 200.5v14c0 7.732 6.268 14 14 14h49.333c7.18 0 13 5.82 13 13v9" stroke-width="4"/><path d="m699.541 247.408-5.541 7.092-5.541-7.092z" fill="#788896" stroke-width="2"/><path d="m694 307.833v18.334" stroke-width="4"/><path d="m699.541 323.075-5.541 7.092-5.541-7.092z" fill="#788896" stroke-width="2"/><path d="m694 383.5v15c0 8.284-6.716 15-15 15h-57c-8.284 0-15 6.716-15 15v15" stroke-width="4"/><path d="m612.541 440.408-5.541 7.092-5.541-7.092z" fill="#788896" stroke-width="2"/><path d="m694 383.5v15c0 8.284 6.716 15 15 15h57c8.284 0 15 6.716 15 15v15" stroke-width="4"/><path d="m786.541 440.408-5.541 7.092-5.541-7.092z" fill="#788896" stroke-width="2"/><path d="m120 307.5v8.5c0 4.694-3.806 8.5-8.5 8.5h-94.5c-8.28426 0-15 6.716-15 15v70c0 5.523 4.47716 10 10 10h6" stroke-width="4"/><path d="m14.9079 413.959 7.0921 5.541-7.0921 5.541z" fill="#788896" stroke-width="2"/><path d="m443 200.5v17c0 8.284-6.716 15-15 15h-131c-8.284 0-15 6.716-15 15v23c0 5.523 4.477 10 10 10h6" stroke-width="4"/><path d="m294.908 274.959 7.092 5.541-7.092 5.541z" fill="#788896" stroke-width="2"/><path d="m443 200.5v17c0 8.284-6.716 15-15 15h-131c-8.284 0-15 6.716-15 15v66c0 5.523 4.477 10 10 10h6" stroke-width="4"/><path d="m294.908 317.959 7.092 5.541-7.092 5.541z" fill="#788896" stroke-width="2"/><path d="m443 200.5v17c0 8.284-6.716 15-15 15h-131c-8.284 0-15 6.716-15 15v109c0 5.523 4.477 10 10 10h6" stroke-width="4"/><path d="m294.908 360.959 7.092 5.541-7.092 5.541z" fill="#788896" stroke-width="2"/><path d="m443 200.5v17c0 8.284-6.716 15-15 15h-131c-8.284 0-15 6.716-15 15v152c0 5.523 4.477 10 10 10h6" stroke-width="4"/><path d="m294.908 403.959 7.092 5.541-7.092 5.541z" fill="#788896" stroke-width="2"/></g></svg>