<svg width="43" height="19" viewBox="0 0 43 19" fill="none" xmlns="http://www.w3.org/2000/svg">
<rect width="43" height="19" rx="9.5" fill="#FE4161" fill-opacity="0.2"/>
<path d="M6.54 8.501C6.276 8.842 6.001 9.172 5.715 9.502L5.33 8.27C6.342 7.038 7.079 5.597 7.563 3.925L8.608 4.42C8.366 5.212 8.047 5.982 7.673 6.708V14.166H6.54V8.501ZM9.092 4.31H14.845V8.105H12.689V9.59H15.131V10.646H12.689V12.835C13.019 12.879 13.415 12.901 13.855 12.923C14.427 12.923 15.021 12.912 15.615 12.89L15.406 13.979H14.383C12.755 13.968 11.655 13.803 11.072 13.495C10.5 13.209 10.027 12.769 9.653 12.153C9.356 12.956 8.993 13.649 8.575 14.232L7.838 13.308C8.586 12.164 9.092 10.646 9.356 8.743L10.445 8.93C10.335 9.634 10.203 10.283 10.049 10.899C10.203 11.262 10.401 11.592 10.654 11.889C10.918 12.175 11.226 12.384 11.556 12.538V8.105H9.092V4.31ZM13.734 7.049V5.366H10.214V7.049H13.734ZM23.029 4.002H24.162V6.928H26.186V12.747C26.186 13.627 25.801 14.078 25.042 14.078H23.997L23.7 12.989L24.679 13.044C24.921 13.044 25.042 12.857 25.042 12.494V11.779H22.138V14.1H20.994V6.928H23.029V4.002ZM22.138 9.898V10.811H25.042V9.898H22.138ZM25.042 8.93V8.017H22.138V8.93H25.042ZM21.665 4.42C21.995 4.959 22.314 5.553 22.622 6.213L21.698 6.675C21.39 6.015 21.06 5.41 20.708 4.882L21.665 4.42ZM25.526 4.299L26.472 4.761C26.208 5.421 25.878 6.059 25.46 6.675L24.536 6.191C24.954 5.553 25.284 4.926 25.526 4.299ZM17.738 3.991L18.838 4.222C18.761 4.53 18.684 4.816 18.596 5.091H20.422V6.18H18.222C18.057 6.587 17.881 6.972 17.705 7.324H20.235V8.347H19.223V9.381H20.609V10.437H19.223V12.582C19.674 12.406 20.125 12.197 20.565 11.933L20.763 12.934C20.004 13.33 19.135 13.66 18.156 13.924L17.683 12.934C17.958 12.835 18.101 12.681 18.101 12.483V10.437H16.715V9.381H18.101V8.347H17.573V7.577C17.463 7.775 17.353 7.962 17.243 8.138L16.308 7.544C16.99 6.433 17.463 5.245 17.738 3.991ZM28.661 8.347C28.364 8.743 28.045 9.128 27.715 9.502L27.33 8.27C28.331 7.038 29.068 5.586 29.552 3.914L30.63 4.42C30.41 5.124 30.146 5.806 29.827 6.444V14.078H28.661V8.347ZM34.557 7.863H35.668V14.045H34.557V7.863ZM31.807 7.896H32.918V9.513C32.896 11.647 32.357 13.22 31.312 14.21L30.443 13.451C31.334 12.637 31.785 11.317 31.807 9.513V7.896ZM33.193 4.024H34.238C34.898 5.432 36.042 6.664 37.67 7.72L37.021 8.699C35.536 7.731 34.436 6.543 33.71 5.124C32.885 6.708 31.84 7.94 30.564 8.809L29.926 7.83C31.334 6.862 32.423 5.586 33.193 4.024Z" fill="#FC4B63"/>
</svg>
