<svg width="148" height="29" viewBox="0 0 148 29" fill="none" xmlns="http://www.w3.org/2000/svg">
<path d="M0.5 14C0.5 6.54416 6.54416 0.5 14 0.5H134C141.456 0.5 147.5 6.54416 147.5 14V15C147.5 22.4558 141.456 28.5 134 28.5H0.5V14Z" fill="url(#paint0_linear_8424_660)"/>
<path d="M0.5 14C0.5 6.54416 6.54416 0.5 14 0.5H134C141.456 0.5 147.5 6.54416 147.5 14V15C147.5 22.4558 141.456 28.5 134 28.5H0.5V14Z" fill="url(#paint1_linear_8424_660)"/>
<path d="M0.5 14C0.5 6.54416 6.54416 0.5 14 0.5H134C141.456 0.5 147.5 6.54416 147.5 14V15C147.5 22.4558 141.456 28.5 134 28.5H0.5V14Z" stroke="url(#paint2_linear_8424_660)"/>
<mask id="path-2-outside-1_8424_660" maskUnits="userSpaceOnUse" x="15" y="8" width="116" height="15" fill="black">
<rect fill="white" x="15" y="8" width="116" height="15"/>
<path d="M17.692 11.752C18.352 12.496 18.976 13.24 19.552 13.984C19.84 13.036 20.032 12.016 20.128 10.936H16.804V9.724H21.352V10.672C21.268 12.352 20.98 13.864 20.476 15.232C20.98 15.916 21.436 16.6 21.856 17.296L20.884 18.268C20.584 17.716 20.248 17.164 19.876 16.612C19.228 17.86 18.376 18.952 17.32 19.888L16.468 18.892C17.56 17.908 18.412 16.744 19.024 15.388C18.364 14.5 17.62 13.576 16.792 12.628L17.692 11.752ZM21.868 9.724H26.992V10.84C26.752 12.664 26.14 14.428 25.132 16.108C25.78 17.128 26.584 18.112 27.556 19.072L26.668 20.116C25.756 19.168 25 18.208 24.376 17.248C23.656 18.232 22.816 19.192 21.856 20.128L20.992 19.084C22.072 18.136 22.984 17.14 23.704 16.096C22.816 14.416 22.312 12.688 22.204 10.936H21.868V9.724ZM23.332 10.936C23.428 12.304 23.8 13.624 24.448 14.896C25.132 13.648 25.588 12.328 25.828 10.936H23.332ZM30.784 10.432H31.84V19H30.436V12.124C29.92 12.592 29.272 12.94 28.48 13.168V11.776C28.864 11.68 29.272 11.512 29.704 11.272C30.136 11.008 30.496 10.732 30.784 10.432ZM35.7059 10.432H36.7619V19H35.3579V12.124C34.8419 12.592 34.1939 12.94 33.4019 13.168V11.776C33.7859 11.68 34.1939 11.512 34.6259 11.272C35.0579 11.008 35.4179 10.732 35.7059 10.432ZM40.1718 17.188C40.4958 17.188 40.7718 17.32 40.9878 17.584C41.1918 17.848 41.2998 18.196 41.2998 18.616C41.2998 19.252 41.1078 19.804 40.7478 20.284C40.3758 20.752 39.8718 21.076 39.2478 21.256V20.464C39.5718 20.344 39.8478 20.152 40.0758 19.888C40.2918 19.6 40.3878 19.324 40.3878 19.036C40.3158 19.06 40.2198 19.084 40.0878 19.084C39.8238 19.084 39.6077 18.988 39.4277 18.808C39.2478 18.628 39.1638 18.4 39.1638 18.136C39.1638 17.848 39.2598 17.62 39.4518 17.452C39.6318 17.272 39.8718 17.188 40.1718 17.188ZM53.0117 11.296C52.8438 11.536 52.6878 11.776 52.5318 12.004H60.0918L60.0078 14.692H61.4358V15.868H59.9598C59.9358 16.48 59.9118 17.008 59.8878 17.44H61.0998V18.592H59.8158C59.7798 18.868 59.7558 19.048 59.7318 19.132C59.6238 19.516 59.4198 19.792 59.1198 19.96C58.8198 20.14 58.3758 20.236 57.7998 20.236C57.3678 20.236 56.8518 20.248 56.2758 20.248L55.9037 19.108C56.5398 19.132 57.1158 19.156 57.6318 19.156C57.8478 19.156 58.0398 19.12 58.1958 19.072C58.3638 19 58.4958 18.856 58.5798 18.64C58.5798 18.616 58.5918 18.604 58.5918 18.592H51.6798C51.8478 17.68 51.9798 16.768 52.0998 15.868H50.2758V14.692H52.2198C52.2918 13.852 52.3398 13.024 52.3638 12.22C51.9798 12.712 51.5838 13.156 51.1638 13.54L50.3598 12.568C51.2838 11.74 52.0998 10.564 52.7958 9.028L54.0678 9.316C53.9478 9.58 53.8158 9.844 53.6958 10.096H60.8478V11.296H53.0117ZM54.9678 15.868H53.3598C53.2878 16.432 53.2158 16.96 53.1318 17.44H56.3358C55.6998 17.104 55.0638 16.84 54.4278 16.648L54.9678 15.868ZM53.4678 14.692H56.2758C55.6878 14.38 55.0998 14.128 54.5118 13.936L55.0398 13.156H53.5518C53.5278 13.696 53.4918 14.212 53.4678 14.692ZM57.1398 14.692H58.7838L58.8318 13.156H55.1718C56.0117 13.42 56.7918 13.756 57.4998 14.14L57.1398 14.692ZM58.7478 15.868H55.0998C55.9398 16.132 56.7198 16.444 57.4278 16.828L57.0198 17.44H58.6758C58.6998 17.008 58.7238 16.492 58.7478 15.868ZM63.7878 12.868C64.6998 13.228 65.5278 13.648 66.2718 14.152L65.6238 15.136C64.8438 14.536 64.0398 14.068 63.1998 13.732L63.7878 12.868ZM64.8678 11.236C65.8038 11.584 66.6558 11.992 67.4358 12.472L66.7878 13.456C65.9718 12.88 65.1438 12.436 64.2798 12.112L64.8678 11.236ZM67.9158 11.428H69.1518V13.96C69.1278 14.5 69.0558 15.004 68.9478 15.472H73.2318V16.696H68.5398C68.4678 16.828 68.4078 16.96 68.3358 17.092C70.0398 17.788 71.5998 18.556 73.0158 19.372L72.1398 20.332C70.6998 19.456 69.2238 18.688 67.6998 18.016L67.6758 18.04C66.7998 18.976 65.3717 19.708 63.4038 20.212L62.6958 19.108C64.6998 18.604 66.0558 17.956 66.7518 17.188C66.8718 17.032 66.9918 16.864 67.0998 16.696H62.6478V15.472H67.6518C67.7958 15.004 67.8798 14.5 67.9158 13.96V11.428ZM63.0678 9.736H72.3918V10.516C72.2118 11.212 71.9838 11.92 71.7078 12.616L70.5438 12.28C70.7598 11.872 70.9518 11.404 71.0958 10.888H63.0678V9.736ZM76.6278 10.432H77.6838V19H76.2798V12.124C75.7638 12.592 75.1158 12.94 74.3238 13.168V11.776C74.7078 11.68 75.1158 11.512 75.5478 11.272C75.9798 11.008 76.3398 10.732 76.6278 10.432ZM81.8976 11.56C81.3936 12.4 80.7576 13.096 80.0016 13.672L79.1616 12.604C80.3496 11.716 81.1536 10.528 81.5616 9.028L82.8576 9.268C82.7496 9.652 82.6296 10.012 82.4976 10.348H89.7336V11.56H86.0856V13.108H89.3136V14.284H86.0856V16.504H90.0936V17.728H86.0856V20.284H84.8256V17.728H79.4256V16.504H81.2736V13.108H84.8256V11.56H81.8976ZM82.5336 16.504H84.8256V14.284H82.5336V16.504ZM92.4456 9.244C93.2376 9.868 93.9096 10.492 94.4616 11.116L93.5616 12.004C93.1056 11.404 92.4456 10.756 91.5816 10.06L92.4456 9.244ZM99.2736 20.056C98.6136 20.056 97.8936 20.044 97.1256 20.032C96.3456 20.02 95.7096 19.948 95.2056 19.828C94.7256 19.684 94.3056 19.408 93.9456 19C93.7776 18.796 93.6336 18.7 93.5016 18.7C93.2616 18.7 92.8536 19.228 92.2536 20.308L91.3296 19.456C91.9296 18.496 92.4576 17.884 92.9376 17.62V14.332H91.3536V13.18H94.1016V17.74L94.2336 17.872C94.5096 18.184 94.7856 18.424 95.0736 18.58C95.4216 18.76 95.9496 18.856 96.6576 18.88C97.3536 18.892 98.1576 18.904 99.0936 18.904C99.6936 18.904 100.294 18.892 100.918 18.892C101.53 18.868 101.998 18.844 102.322 18.82L102.022 20.056H99.2736ZM94.9896 13.744H97.7736C97.8336 13.312 97.8696 12.844 97.8816 12.328H95.3976V11.176H96.7176C96.4296 10.624 96.1176 10.132 95.7936 9.7L96.9096 9.16C97.2456 9.664 97.5816 10.24 97.8936 10.864L97.2696 11.176H98.9976C99.3336 10.504 99.6336 9.796 99.8856 9.052L101.062 9.472C100.822 10.096 100.558 10.672 100.27 11.176H101.554V12.328H99.1176C99.1056 12.856 99.0696 13.336 99.0216 13.744H101.962V14.92H98.8056C98.4336 16.288 97.3896 17.452 95.6736 18.4L94.8816 17.38C96.2016 16.744 97.0656 15.928 97.4736 14.92H94.9896V13.744ZM99.4056 15.436C100.342 16.072 101.206 16.756 101.974 17.476L101.098 18.436C100.33 17.596 99.5136 16.876 98.6736 16.264L99.4056 15.436ZM105.55 10.432H106.606V19H105.202V12.124C104.686 12.592 104.038 12.94 103.246 13.168V11.776C103.63 11.68 104.038 11.512 104.47 11.272C104.902 11.008 105.262 10.732 105.55 10.432ZM113.052 12.736H114.324V20.248H113.052V12.736ZM113.136 9.136H114.24C115.224 10.744 116.928 12.148 119.328 13.36L118.572 14.5C116.388 13.372 114.756 11.98 113.688 10.312C112.404 12.124 110.771 13.516 108.804 14.5L108.048 13.36C110.256 12.28 111.948 10.864 113.136 9.136ZM123.636 13.588V15.364H128.376V13.588H123.636ZM128.376 12.424V10.744H123.636V12.424H128.376ZM123.564 16.528C123.396 18.04 122.94 19.312 122.196 20.332L121.236 19.456C121.98 18.412 122.352 17.068 122.376 15.436V9.544H129.648V18.952C129.648 19.744 129.24 20.14 128.424 20.14H126.888L126.552 18.916C127.08 18.952 127.572 18.976 128.016 18.976C128.256 18.976 128.376 18.808 128.376 18.496V16.528H123.564Z"/>
</mask>
<path d="M17.692 11.752C18.352 12.496 18.976 13.24 19.552 13.984C19.84 13.036 20.032 12.016 20.128 10.936H16.804V9.724H21.352V10.672C21.268 12.352 20.98 13.864 20.476 15.232C20.98 15.916 21.436 16.6 21.856 17.296L20.884 18.268C20.584 17.716 20.248 17.164 19.876 16.612C19.228 17.86 18.376 18.952 17.32 19.888L16.468 18.892C17.56 17.908 18.412 16.744 19.024 15.388C18.364 14.5 17.62 13.576 16.792 12.628L17.692 11.752ZM21.868 9.724H26.992V10.84C26.752 12.664 26.14 14.428 25.132 16.108C25.78 17.128 26.584 18.112 27.556 19.072L26.668 20.116C25.756 19.168 25 18.208 24.376 17.248C23.656 18.232 22.816 19.192 21.856 20.128L20.992 19.084C22.072 18.136 22.984 17.14 23.704 16.096C22.816 14.416 22.312 12.688 22.204 10.936H21.868V9.724ZM23.332 10.936C23.428 12.304 23.8 13.624 24.448 14.896C25.132 13.648 25.588 12.328 25.828 10.936H23.332ZM30.784 10.432H31.84V19H30.436V12.124C29.92 12.592 29.272 12.94 28.48 13.168V11.776C28.864 11.68 29.272 11.512 29.704 11.272C30.136 11.008 30.496 10.732 30.784 10.432ZM35.7059 10.432H36.7619V19H35.3579V12.124C34.8419 12.592 34.1939 12.94 33.4019 13.168V11.776C33.7859 11.68 34.1939 11.512 34.6259 11.272C35.0579 11.008 35.4179 10.732 35.7059 10.432ZM40.1718 17.188C40.4958 17.188 40.7718 17.32 40.9878 17.584C41.1918 17.848 41.2998 18.196 41.2998 18.616C41.2998 19.252 41.1078 19.804 40.7478 20.284C40.3758 20.752 39.8718 21.076 39.2478 21.256V20.464C39.5718 20.344 39.8478 20.152 40.0758 19.888C40.2918 19.6 40.3878 19.324 40.3878 19.036C40.3158 19.06 40.2198 19.084 40.0878 19.084C39.8238 19.084 39.6077 18.988 39.4277 18.808C39.2478 18.628 39.1638 18.4 39.1638 18.136C39.1638 17.848 39.2598 17.62 39.4518 17.452C39.6318 17.272 39.8718 17.188 40.1718 17.188ZM53.0117 11.296C52.8438 11.536 52.6878 11.776 52.5318 12.004H60.0918L60.0078 14.692H61.4358V15.868H59.9598C59.9358 16.48 59.9118 17.008 59.8878 17.44H61.0998V18.592H59.8158C59.7798 18.868 59.7558 19.048 59.7318 19.132C59.6238 19.516 59.4198 19.792 59.1198 19.96C58.8198 20.14 58.3758 20.236 57.7998 20.236C57.3678 20.236 56.8518 20.248 56.2758 20.248L55.9037 19.108C56.5398 19.132 57.1158 19.156 57.6318 19.156C57.8478 19.156 58.0398 19.12 58.1958 19.072C58.3638 19 58.4958 18.856 58.5798 18.64C58.5798 18.616 58.5918 18.604 58.5918 18.592H51.6798C51.8478 17.68 51.9798 16.768 52.0998 15.868H50.2758V14.692H52.2198C52.2918 13.852 52.3398 13.024 52.3638 12.22C51.9798 12.712 51.5838 13.156 51.1638 13.54L50.3598 12.568C51.2838 11.74 52.0998 10.564 52.7958 9.028L54.0678 9.316C53.9478 9.58 53.8158 9.844 53.6958 10.096H60.8478V11.296H53.0117ZM54.9678 15.868H53.3598C53.2878 16.432 53.2158 16.96 53.1318 17.44H56.3358C55.6998 17.104 55.0638 16.84 54.4278 16.648L54.9678 15.868ZM53.4678 14.692H56.2758C55.6878 14.38 55.0998 14.128 54.5118 13.936L55.0398 13.156H53.5518C53.5278 13.696 53.4918 14.212 53.4678 14.692ZM57.1398 14.692H58.7838L58.8318 13.156H55.1718C56.0117 13.42 56.7918 13.756 57.4998 14.14L57.1398 14.692ZM58.7478 15.868H55.0998C55.9398 16.132 56.7198 16.444 57.4278 16.828L57.0198 17.44H58.6758C58.6998 17.008 58.7238 16.492 58.7478 15.868ZM63.7878 12.868C64.6998 13.228 65.5278 13.648 66.2718 14.152L65.6238 15.136C64.8438 14.536 64.0398 14.068 63.1998 13.732L63.7878 12.868ZM64.8678 11.236C65.8038 11.584 66.6558 11.992 67.4358 12.472L66.7878 13.456C65.9718 12.88 65.1438 12.436 64.2798 12.112L64.8678 11.236ZM67.9158 11.428H69.1518V13.96C69.1278 14.5 69.0558 15.004 68.9478 15.472H73.2318V16.696H68.5398C68.4678 16.828 68.4078 16.96 68.3358 17.092C70.0398 17.788 71.5998 18.556 73.0158 19.372L72.1398 20.332C70.6998 19.456 69.2238 18.688 67.6998 18.016L67.6758 18.04C66.7998 18.976 65.3717 19.708 63.4038 20.212L62.6958 19.108C64.6998 18.604 66.0558 17.956 66.7518 17.188C66.8718 17.032 66.9918 16.864 67.0998 16.696H62.6478V15.472H67.6518C67.7958 15.004 67.8798 14.5 67.9158 13.96V11.428ZM63.0678 9.736H72.3918V10.516C72.2118 11.212 71.9838 11.92 71.7078 12.616L70.5438 12.28C70.7598 11.872 70.9518 11.404 71.0958 10.888H63.0678V9.736ZM76.6278 10.432H77.6838V19H76.2798V12.124C75.7638 12.592 75.1158 12.94 74.3238 13.168V11.776C74.7078 11.68 75.1158 11.512 75.5478 11.272C75.9798 11.008 76.3398 10.732 76.6278 10.432ZM81.8976 11.56C81.3936 12.4 80.7576 13.096 80.0016 13.672L79.1616 12.604C80.3496 11.716 81.1536 10.528 81.5616 9.028L82.8576 9.268C82.7496 9.652 82.6296 10.012 82.4976 10.348H89.7336V11.56H86.0856V13.108H89.3136V14.284H86.0856V16.504H90.0936V17.728H86.0856V20.284H84.8256V17.728H79.4256V16.504H81.2736V13.108H84.8256V11.56H81.8976ZM82.5336 16.504H84.8256V14.284H82.5336V16.504ZM92.4456 9.244C93.2376 9.868 93.9096 10.492 94.4616 11.116L93.5616 12.004C93.1056 11.404 92.4456 10.756 91.5816 10.06L92.4456 9.244ZM99.2736 20.056C98.6136 20.056 97.8936 20.044 97.1256 20.032C96.3456 20.02 95.7096 19.948 95.2056 19.828C94.7256 19.684 94.3056 19.408 93.9456 19C93.7776 18.796 93.6336 18.7 93.5016 18.7C93.2616 18.7 92.8536 19.228 92.2536 20.308L91.3296 19.456C91.9296 18.496 92.4576 17.884 92.9376 17.62V14.332H91.3536V13.18H94.1016V17.74L94.2336 17.872C94.5096 18.184 94.7856 18.424 95.0736 18.58C95.4216 18.76 95.9496 18.856 96.6576 18.88C97.3536 18.892 98.1576 18.904 99.0936 18.904C99.6936 18.904 100.294 18.892 100.918 18.892C101.53 18.868 101.998 18.844 102.322 18.82L102.022 20.056H99.2736ZM94.9896 13.744H97.7736C97.8336 13.312 97.8696 12.844 97.8816 12.328H95.3976V11.176H96.7176C96.4296 10.624 96.1176 10.132 95.7936 9.7L96.9096 9.16C97.2456 9.664 97.5816 10.24 97.8936 10.864L97.2696 11.176H98.9976C99.3336 10.504 99.6336 9.796 99.8856 9.052L101.062 9.472C100.822 10.096 100.558 10.672 100.27 11.176H101.554V12.328H99.1176C99.1056 12.856 99.0696 13.336 99.0216 13.744H101.962V14.92H98.8056C98.4336 16.288 97.3896 17.452 95.6736 18.4L94.8816 17.38C96.2016 16.744 97.0656 15.928 97.4736 14.92H94.9896V13.744ZM99.4056 15.436C100.342 16.072 101.206 16.756 101.974 17.476L101.098 18.436C100.33 17.596 99.5136 16.876 98.6736 16.264L99.4056 15.436ZM105.55 10.432H106.606V19H105.202V12.124C104.686 12.592 104.038 12.94 103.246 13.168V11.776C103.63 11.68 104.038 11.512 104.47 11.272C104.902 11.008 105.262 10.732 105.55 10.432ZM113.052 12.736H114.324V20.248H113.052V12.736ZM113.136 9.136H114.24C115.224 10.744 116.928 12.148 119.328 13.36L118.572 14.5C116.388 13.372 114.756 11.98 113.688 10.312C112.404 12.124 110.771 13.516 108.804 14.5L108.048 13.36C110.256 12.28 111.948 10.864 113.136 9.136ZM123.636 13.588V15.364H128.376V13.588H123.636ZM128.376 12.424V10.744H123.636V12.424H128.376ZM123.564 16.528C123.396 18.04 122.94 19.312 122.196 20.332L121.236 19.456C121.98 18.412 122.352 17.068 122.376 15.436V9.544H129.648V18.952C129.648 19.744 129.24 20.14 128.424 20.14H126.888L126.552 18.916C127.08 18.952 127.572 18.976 128.016 18.976C128.256 18.976 128.376 18.808 128.376 18.496V16.528H123.564Z" fill="#CD249D"/>
<path d="M17.692 11.752L18.4401 11.0884C18.2587 10.884 18.0017 10.7627 17.7286 10.7527C17.4556 10.7427 17.1903 10.8448 16.9945 11.0354L17.692 11.752ZM19.552 13.984L18.7613 14.5962C18.9902 14.8919 19.3651 15.0352 19.7329 14.9675C20.1008 14.8998 20.4001 14.6325 20.5088 14.2747L19.552 13.984ZM20.128 10.936L21.1241 11.0245C21.1489 10.745 21.0552 10.4679 20.8657 10.2609C20.6763 10.0539 20.4086 9.936 20.128 9.936V10.936ZM16.804 10.936H15.804C15.804 11.4883 16.2517 11.936 16.804 11.936V10.936ZM16.804 9.724V8.724C16.2517 8.724 15.804 9.17171 15.804 9.724H16.804ZM21.352 9.724H22.352C22.352 9.17171 21.9043 8.724 21.352 8.724V9.724ZM21.352 10.672L22.3508 10.7219C22.3516 10.7053 22.352 10.6887 22.352 10.672H21.352ZM20.476 15.232L19.5377 14.8863C19.4214 15.2018 19.4715 15.5545 19.6709 15.8252L20.476 15.232ZM21.856 17.296L22.5631 18.0031C22.8882 17.678 22.9498 17.173 22.7122 16.7793L21.856 17.296ZM20.884 18.268L20.0054 18.7455C20.156 19.0227 20.4285 19.2125 20.7407 19.2577C21.0529 19.3029 21.3681 19.1981 21.5911 18.9751L20.884 18.268ZM19.876 16.612L20.7053 16.0531C20.5081 15.7605 20.1713 15.5935 19.819 15.6136C19.4667 15.6337 19.1511 15.838 18.9885 16.1512L19.876 16.612ZM17.32 19.888L16.5601 20.538C16.7345 20.7419 16.9835 20.8671 17.2511 20.8856C17.5187 20.9041 17.7826 20.8143 17.9833 20.6363L17.32 19.888ZM16.468 18.892L15.7986 18.1491C15.3958 18.5121 15.3556 19.13 15.7081 19.542L16.468 18.892ZM19.024 15.388L19.9355 15.7994C20.0848 15.4685 20.0431 15.0828 19.8266 14.7915L19.024 15.388ZM16.792 12.628L16.0945 11.9114C15.7138 12.282 15.6893 12.8856 16.0388 13.2858L16.792 12.628ZM21.868 9.724V8.724C21.3157 8.724 20.868 9.17171 20.868 9.724H21.868ZM26.992 9.724H27.992C27.992 9.17171 27.5443 8.724 26.992 8.724V9.724ZM26.992 10.84L27.9835 10.9705C27.9891 10.9272 27.992 10.8836 27.992 10.84H26.992ZM25.132 16.108L24.2745 15.5935C24.0798 15.9181 24.085 16.3248 24.2879 16.6442L25.132 16.108ZM27.556 19.072L28.3177 19.7199C28.6569 19.3212 28.6311 18.7284 28.2587 18.3605L27.556 19.072ZM26.668 20.116L25.9473 20.8093C26.1432 21.0129 26.4162 21.1242 26.6986 21.1155C26.981 21.1069 27.2466 20.9791 27.4297 20.7639L26.668 20.116ZM24.376 17.248L25.2144 16.703C25.0353 16.4274 24.7322 16.2575 24.4037 16.2484C24.0751 16.2393 23.7631 16.3922 23.569 16.6575L24.376 17.248ZM21.856 20.128L21.0856 20.7656C21.2637 20.9808 21.5237 21.1117 21.8027 21.1266C22.0816 21.1415 22.3541 21.039 22.5541 20.844L21.856 20.128ZM20.992 19.084L20.3323 18.3325C19.9258 18.6893 19.8767 19.3048 20.2216 19.7216L20.992 19.084ZM23.704 16.096L24.5272 16.6637C24.7387 16.357 24.7622 15.9581 24.5881 15.6287L23.704 16.096ZM22.204 10.936L23.2021 10.8745C23.1696 10.3471 22.7324 9.936 22.204 9.936V10.936ZM21.868 10.936H20.868C20.868 11.4883 21.3157 11.936 21.868 11.936V10.936ZM23.332 10.936V9.936C23.0546 9.936 22.7897 10.0512 22.6006 10.2541C22.4114 10.457 22.315 10.7293 22.3345 11.006L23.332 10.936ZM24.448 14.896L23.557 15.3499C23.7252 15.6802 24.0623 15.8903 24.4329 15.8959C24.8035 15.9015 25.1468 15.7016 25.3249 15.3766L24.448 14.896ZM25.828 10.936L26.8135 11.1059C26.8636 10.8153 26.7828 10.5173 26.5928 10.2918C26.4028 10.0662 26.1229 9.936 25.828 9.936V10.936ZM16.9439 12.4156C17.5922 13.1464 18.2015 13.8731 18.7613 14.5962L20.3427 13.3718C19.7505 12.6069 19.1118 11.8456 18.4401 11.0884L16.9439 12.4156ZM20.5088 14.2747C20.8188 13.2543 21.0226 12.166 21.1241 11.0245L19.1319 10.8475C19.0414 11.866 18.8612 12.8177 18.5952 13.6933L20.5088 14.2747ZM20.128 9.936H16.804V11.936H20.128V9.936ZM17.804 10.936V9.724H15.804V10.936H17.804ZM16.804 10.724H21.352V8.724H16.804V10.724ZM20.352 9.724V10.672H22.352V9.724H20.352ZM20.3532 10.6221C20.2735 12.2179 20.0013 13.6279 19.5377 14.8863L21.4143 15.5777C21.9587 14.1001 22.2625 12.4861 22.3508 10.7219L20.3532 10.6221ZM19.6709 15.8252C20.1568 16.4845 20.5957 17.143 20.9998 17.8127L22.7122 16.7793C22.2763 16.057 21.8032 15.3475 21.2811 14.6388L19.6709 15.8252ZM21.1489 16.5889L20.1769 17.5609L21.5911 18.9751L22.5631 18.0031L21.1489 16.5889ZM21.7626 17.7905C21.4466 17.209 21.094 16.6299 20.7053 16.0531L19.0467 17.1709C19.402 17.6981 19.7214 18.223 20.0054 18.7455L21.7626 17.7905ZM18.9885 16.1512C18.3972 17.29 17.6213 18.2847 16.6567 19.1397L17.9833 20.6363C19.1307 19.6193 20.0588 18.43 20.7635 17.0728L18.9885 16.1512ZM18.0799 19.238L17.2279 18.242L15.7081 19.542L16.5601 20.538L18.0799 19.238ZM17.1374 19.6349C18.3322 18.5583 19.2666 17.2814 19.9355 15.7994L18.1125 14.9766C17.5574 16.2066 16.7878 17.2577 15.7986 18.1491L17.1374 19.6349ZM19.8266 14.7915C19.1502 13.8814 18.3896 12.937 17.5452 11.9702L16.0388 13.2858C16.8504 14.215 17.5778 15.1186 18.2214 15.9845L19.8266 14.7915ZM17.4895 13.3446L18.3895 12.4686L16.9945 11.0354L16.0945 11.9114L17.4895 13.3446ZM21.868 10.724H26.992V8.724H21.868V10.724ZM25.992 9.724V10.84H27.992V9.724H25.992ZM26.0005 10.7095C25.7788 12.3945 25.2137 14.0281 24.2745 15.5935L25.9895 16.6225C27.0663 14.8279 27.7252 12.9335 27.9835 10.9705L26.0005 10.7095ZM24.2879 16.6442C24.9809 17.7351 25.8342 18.777 26.8533 19.7835L28.2587 18.3605C27.3338 17.447 26.5791 16.5209 25.9761 15.5718L24.2879 16.6442ZM26.7943 18.4241L25.9063 19.4681L27.4297 20.7639L28.3177 19.7199L26.7943 18.4241ZM27.3887 19.4227C26.5194 18.5191 25.8031 17.6086 25.2144 16.703L23.5376 17.793C24.1969 18.8074 24.9926 19.8169 25.9473 20.8093L27.3887 19.4227ZM23.569 16.6575C22.8848 17.5925 22.0821 18.511 21.1579 19.412L22.5541 20.844C23.5499 19.873 24.4272 18.8715 25.183 17.8385L23.569 16.6575ZM22.6264 19.4904L21.7624 18.4464L20.2216 19.7216L21.0856 20.7656L22.6264 19.4904ZM21.6517 19.8355C22.7819 18.8435 23.7524 17.7872 24.5272 16.6637L22.8808 15.5283C22.2156 16.4928 21.3621 17.4285 20.3323 18.3325L21.6517 19.8355ZM24.5881 15.6287C23.7605 14.063 23.3006 12.4724 23.2021 10.8745L21.2059 10.9975C21.3234 12.9036 21.8715 14.769 22.8199 16.5633L24.5881 15.6287ZM22.204 9.936H21.868V11.936H22.204V9.936ZM22.868 10.936V9.724H20.868V10.936H22.868ZM22.3345 11.006C22.4402 12.5133 22.8506 13.9634 23.557 15.3499L25.339 14.4421C24.7494 13.2846 24.4158 12.0947 24.3295 10.866L22.3345 11.006ZM25.3249 15.3766C26.0629 14.0301 26.555 12.6049 26.8135 11.1059L24.8425 10.7661C24.621 12.0511 24.2011 13.2659 23.5711 14.4154L25.3249 15.3766ZM25.828 9.936H23.332V11.936H25.828V9.936ZM30.784 10.432V9.432C30.5117 9.432 30.2512 9.54304 30.0626 9.73947L30.784 10.432ZM31.84 10.432H32.84C32.84 9.87971 32.3923 9.432 31.84 9.432V10.432ZM31.84 19V20C32.3923 20 32.84 19.5523 32.84 19H31.84ZM30.436 19H29.436C29.436 19.5523 29.8837 20 30.436 20V19ZM30.436 12.124H31.436C31.436 11.7284 31.2028 11.37 30.8411 11.2097C30.4794 11.0495 30.0572 11.1175 29.7642 11.3833L30.436 12.124ZM28.48 13.168H27.48C27.48 13.4821 27.6276 13.778 27.8786 13.9669C28.1296 14.1559 28.4548 14.2159 28.7566 14.129L28.48 13.168ZM28.48 11.776L28.2375 10.8059C27.7923 10.9171 27.48 11.3171 27.48 11.776H28.48ZM29.704 11.272L30.1896 12.1462C30.2017 12.1394 30.2137 12.1325 30.2254 12.1253L29.704 11.272ZM30.784 11.432H31.84V9.432H30.784V11.432ZM30.84 10.432V19H32.84V10.432H30.84ZM31.84 18H30.436V20H31.84V18ZM31.436 19V12.124H29.436V19H31.436ZM29.7642 11.3833C29.3785 11.7331 28.8725 12.0144 28.2034 12.207L28.7566 14.129C29.6715 13.8656 30.4615 13.4509 31.1078 12.8647L29.7642 11.3833ZM29.48 13.168V11.776H27.48V13.168H29.48ZM28.7225 12.7461C29.2094 12.6244 29.6992 12.4186 30.1896 12.1462L29.2184 10.3978C28.8448 10.6054 28.5186 10.7356 28.2375 10.8059L28.7225 12.7461ZM30.2254 12.1253C30.7088 11.8299 31.1424 11.5026 31.5054 11.1245L30.0626 9.73947C29.8496 9.96139 29.5632 10.1861 29.1826 10.4187L30.2254 12.1253ZM35.7059 10.432V9.432C35.4336 9.432 35.1731 9.54304 34.9845 9.73947L35.7059 10.432ZM36.7619 10.432H37.7619C37.7619 9.87971 37.3142 9.432 36.7619 9.432V10.432ZM36.7619 19V20C37.3142 20 37.7619 19.5523 37.7619 19H36.7619ZM35.3579 19H34.3579C34.3579 19.5523 34.8056 20 35.3579 20V19ZM35.3579 12.124H36.3579C36.3579 11.7284 36.1247 11.37 35.763 11.2097C35.4013 11.0495 34.9791 11.1175 34.6861 11.3833L35.3579 12.124ZM33.4019 13.168H32.4019C32.4019 13.4821 32.5495 13.778 32.8005 13.9669C33.0515 14.1559 33.3766 14.2159 33.6785 14.129L33.4019 13.168ZM33.4019 11.776L33.1593 10.8059C32.7142 10.9171 32.4019 11.3171 32.4019 11.776H33.4019ZM34.6259 11.272L35.1115 12.1462C35.1236 12.1394 35.1355 12.1325 35.1473 12.1253L34.6259 11.272ZM35.7059 11.432H36.7619V9.432H35.7059V11.432ZM35.7619 10.432V19H37.7619V10.432H35.7619ZM36.7619 18H35.3579V20H36.7619V18ZM36.3579 19V12.124H34.3579V19H36.3579ZM34.6861 11.3833C34.3004 11.7331 33.7944 12.0144 33.1252 12.207L33.6785 14.129C34.5934 13.8656 35.3834 13.4509 36.0297 12.8647L34.6861 11.3833ZM34.4019 13.168V11.776H32.4019V13.168H34.4019ZM33.6444 12.7461C34.1313 12.6244 34.6211 12.4186 35.1115 12.1462L34.1402 10.3978C33.7666 10.6054 33.4405 10.7356 33.1593 10.8059L33.6444 12.7461ZM35.1473 12.1253C35.6307 11.8299 36.0643 11.5026 36.4273 11.1245L34.9845 9.73947C34.7714 9.96139 34.4851 10.1861 34.1044 10.4187L35.1473 12.1253ZM40.9878 17.584L41.779 16.9726C41.7734 16.9652 41.7676 16.9579 41.7617 16.9508L40.9878 17.584ZM40.7477 20.284L41.5306 20.9062C41.5364 20.8989 41.5421 20.8915 41.5478 20.884L40.7477 20.284ZM39.2477 21.256H38.2477C38.2477 21.5702 38.3955 21.8662 38.6466 22.0551C38.8977 22.244 39.223 22.3039 39.5249 22.2168L39.2477 21.256ZM39.2477 20.464L38.9004 19.5263C38.5081 19.6715 38.2477 20.0457 38.2477 20.464H39.2477ZM40.0758 19.888L40.8326 20.5416C40.8476 20.5242 40.862 20.5064 40.8757 20.488L40.0758 19.888ZM40.3878 19.036H41.3878C41.3878 18.7146 41.2332 18.4127 40.9725 18.2248C40.7117 18.0368 40.3765 17.9857 40.0715 18.0873L40.3878 19.036ZM39.4277 18.808L38.7206 19.5151L38.7206 19.5151L39.4277 18.808ZM39.4517 17.452L40.1103 18.2046C40.127 18.19 40.1432 18.1748 40.1589 18.1591L39.4517 17.452ZM40.1717 18.188C40.1845 18.188 40.1901 18.1893 40.1902 18.1893C40.1904 18.1893 40.1898 18.1892 40.1886 18.1888C40.1874 18.1884 40.1861 18.1879 40.1849 18.1873C40.1822 18.1859 40.1826 18.1857 40.1865 18.1888C40.1906 18.1921 40.2001 18.2005 40.2138 18.2172L41.7617 16.9508C41.3632 16.4637 40.8072 16.188 40.1717 16.188V18.188ZM40.1965 18.1954C40.2377 18.2488 40.2997 18.3678 40.2997 18.616H42.2997C42.2997 18.0242 42.1458 17.4472 41.779 16.9726L40.1965 18.1954ZM40.2997 18.616C40.2997 19.0334 40.1793 19.3753 39.9478 19.684L41.5478 20.884C42.0362 20.2327 42.2997 19.4706 42.2997 18.616H40.2997ZM39.9649 19.6618C39.7358 19.9501 39.417 20.1664 38.9706 20.2952L39.5249 22.2168C40.3265 21.9856 41.0157 21.5539 41.5306 20.9062L39.9649 19.6618ZM40.2477 21.256V20.464H38.2477V21.256H40.2477ZM39.5951 21.4017C40.0789 21.2225 40.4953 20.9321 40.8326 20.5416L39.3189 19.2344C39.2002 19.3719 39.0646 19.4655 38.9004 19.5263L39.5951 21.4017ZM40.8757 20.488C41.1994 20.0564 41.3878 19.5746 41.3878 19.036H39.3878C39.3878 19.0734 39.3841 19.1436 39.2757 19.288L40.8757 20.488ZM40.0715 18.0873C40.0695 18.088 40.0701 18.0877 40.0725 18.0871C40.0749 18.0865 40.0779 18.0858 40.0814 18.0851C40.0848 18.0845 40.0874 18.0842 40.0891 18.084C40.0907 18.0839 40.0903 18.084 40.0877 18.084V20.084C40.3514 20.084 40.5558 20.0341 40.704 19.9847L40.0715 18.0873ZM40.0877 18.084C40.0827 18.084 40.0843 18.0836 40.0912 18.0849C40.0982 18.0863 40.1073 18.0889 40.1171 18.0931C40.1269 18.0972 40.134 18.1015 40.1379 18.1042C40.1417 18.1068 40.1405 18.1065 40.1349 18.1009L38.7206 19.5151C39.079 19.8735 39.5459 20.084 40.0877 20.084V18.084ZM40.1349 18.1009C40.1373 18.1034 40.1422 18.1088 40.1478 18.1174C40.1534 18.1259 40.1578 18.1348 40.161 18.1429C40.1676 18.16 40.1637 18.1613 40.1637 18.136H38.1637C38.1637 18.63 38.3296 19.124 38.7206 19.5151L40.1349 18.1009ZM40.1637 18.136C40.1637 18.1037 40.1689 18.1097 40.1574 18.1371C40.1519 18.1501 40.1442 18.1641 40.1345 18.1774C40.1249 18.1906 40.1159 18.1996 40.1103 18.2046L38.7932 16.6994C38.3549 17.083 38.1637 17.6011 38.1637 18.136H40.1637ZM40.1589 18.1591C40.1523 18.1657 40.1432 18.1732 40.1323 18.1801C40.1215 18.1869 40.1126 18.1908 40.1075 18.1926C40.0979 18.1961 40.1141 18.188 40.1717 18.188V16.188C39.6749 16.188 39.1555 16.334 38.7446 16.7449L40.1589 18.1591ZM53.0117 11.296V10.296C52.6854 10.296 52.3796 10.4552 52.1925 10.7225L53.0117 11.296ZM52.5317 12.004L51.7064 11.4393C51.497 11.7455 51.4742 12.1424 51.6473 12.4705C51.8203 12.7987 52.1608 13.004 52.5317 13.004V12.004ZM60.0918 12.004L61.0913 12.0352C61.0997 11.7647 60.9982 11.5024 60.8098 11.308C60.6215 11.1137 60.3624 11.004 60.0918 11.004V12.004ZM60.0078 14.692L59.0082 14.6608C58.9998 14.9313 59.1013 15.1936 59.2897 15.388C59.478 15.5823 59.7371 15.692 60.0078 15.692V14.692ZM61.4357 14.692H62.4357C62.4357 14.1397 61.988 13.692 61.4357 13.692V14.692ZM61.4357 15.868V16.868C61.988 16.868 62.4357 16.4203 62.4357 15.868H61.4357ZM59.9598 15.868V14.868C59.4227 14.868 58.9816 15.2922 58.9605 15.8288L59.9598 15.868ZM59.8877 17.44L58.8893 17.3845C58.874 17.659 58.9724 17.9276 59.1613 18.1272C59.3502 18.3269 59.6129 18.44 59.8877 18.44V17.44ZM61.0998 17.44H62.0998C62.0998 16.8877 61.652 16.44 61.0998 16.44V17.44ZM61.0998 18.592V19.592C61.652 19.592 62.0998 19.1443 62.0998 18.592H61.0998ZM59.8158 18.592V17.592C59.3135 17.592 58.8891 17.9646 58.8242 18.4627L59.8158 18.592ZM59.7318 19.132L58.7702 18.8573L58.7691 18.8613L59.7318 19.132ZM59.1198 19.96L58.6311 19.0875C58.6224 19.0924 58.6138 19.0974 58.6053 19.1025L59.1198 19.96ZM56.2757 20.248L55.3251 20.5582C55.4593 20.9696 55.843 21.248 56.2757 21.248V20.248ZM55.9038 19.108L55.9415 18.1087C55.6147 18.0964 55.3026 18.2446 55.1056 18.5056C54.9086 18.7666 54.8516 19.1074 54.9531 19.4182L55.9038 19.108ZM58.1958 19.072L58.4898 20.0278C58.5237 20.0173 58.5571 20.0051 58.5897 19.9911L58.1958 19.072ZM58.5798 18.64L59.5118 19.0024C59.5567 18.8869 59.5798 18.764 59.5798 18.64H58.5798ZM58.5918 18.592H59.5918C59.5918 18.0397 59.144 17.592 58.5918 17.592V18.592ZM51.6797 18.592L50.6963 18.4108C50.6425 18.7029 50.7213 19.0037 50.9113 19.2319C51.1012 19.46 51.3828 19.592 51.6797 19.592V18.592ZM52.0998 15.868L53.091 16.0002C53.1291 15.7144 53.042 15.4262 52.8521 15.2093C52.6623 14.9924 52.388 14.868 52.0998 14.868V15.868ZM50.2757 15.868H49.2757C49.2757 16.4203 49.7235 16.868 50.2757 16.868V15.868ZM50.2757 14.692V13.692C49.7235 13.692 49.2757 14.1397 49.2757 14.692H50.2757ZM52.2197 14.692V15.692C52.7389 15.692 53.1718 15.2947 53.2161 14.7774L52.2197 14.692ZM52.3638 12.22L53.3633 12.2498C53.3762 11.8176 53.1099 11.4261 52.7032 11.2794C52.2964 11.1326 51.8415 11.2639 51.5754 11.6047L52.3638 12.22ZM51.1637 13.54L50.3932 14.1774C50.5677 14.3884 50.8211 14.5186 51.0943 14.5376C51.3674 14.5566 51.6364 14.4628 51.8385 14.278L51.1637 13.54ZM50.3597 12.568L49.6924 11.8233C49.2925 12.1816 49.247 12.7917 49.5892 13.2054L50.3597 12.568ZM52.7957 9.028L53.0166 8.05269C52.5536 7.94787 52.0808 8.18293 51.8849 8.61527L52.7957 9.028ZM54.0677 9.316L54.9781 9.7298C55.1026 9.45602 55.0972 9.14076 54.9635 8.87138C54.8298 8.60199 54.5819 8.4071 54.2886 8.34069L54.0677 9.316ZM53.6958 10.096L52.7929 9.66606C52.6454 9.97589 52.667 10.3397 52.8502 10.6299C53.0334 10.92 53.3526 11.096 53.6958 11.096V10.096ZM60.8478 10.096H61.8478C61.8478 9.54371 61.4 9.096 60.8478 9.096V10.096ZM60.8478 11.296V12.296C61.4 12.296 61.8478 11.8483 61.8478 11.296H60.8478ZM54.9678 15.868L55.7899 16.4372C56.0017 16.1314 56.0261 15.7334 55.8535 15.4039C55.6809 15.0744 55.3397 14.868 54.9678 14.868V15.868ZM53.3597 15.868V14.868C52.8564 14.868 52.4315 15.2421 52.3678 15.7414L53.3597 15.868ZM53.1318 17.44L52.1467 17.2676C52.0958 17.5586 52.1761 17.8571 52.3661 18.0833C52.5561 18.3094 52.8364 18.44 53.1318 18.44V17.44ZM56.3358 17.44V18.44C56.7953 18.44 57.1958 18.1267 57.3064 17.6806C57.417 17.2345 57.2092 16.7705 56.8029 16.5558L56.3358 17.44ZM54.4277 16.648L53.6056 16.0788C53.4235 16.3417 53.3782 16.6758 53.4837 16.9777C53.5891 17.2796 53.8326 17.5129 54.1387 17.6053L54.4277 16.648ZM53.4678 14.692L52.469 14.6421C52.4553 14.9156 52.5544 15.1828 52.7432 15.3812C52.932 15.5797 53.1939 15.692 53.4678 15.692V14.692ZM56.2757 14.692V15.692C56.735 15.692 57.1352 15.3792 57.2462 14.9335C57.3571 14.4878 57.1502 14.0239 56.7445 13.8087L56.2757 14.692ZM54.5117 13.936L53.6836 13.3754C53.5076 13.6355 53.464 13.963 53.5657 14.2601C53.6675 14.5571 53.9029 14.7891 54.2013 14.8866L54.5117 13.936ZM55.0397 13.156L55.8679 13.7166C56.0753 13.4101 56.0965 13.0142 55.9231 12.6873C55.7496 12.3604 55.4098 12.156 55.0397 12.156V13.156ZM53.5518 13.156V12.156C53.0167 12.156 52.5765 12.5771 52.5527 13.1116L53.5518 13.156ZM57.1398 14.692L56.3021 14.1457C56.1017 14.4531 56.0857 14.8456 56.2605 15.1683C56.4353 15.491 56.7728 15.692 57.1398 15.692V14.692ZM58.7838 14.692V15.692C59.3239 15.692 59.7664 15.2631 59.7833 14.7232L58.7838 14.692ZM58.8317 13.156L59.8313 13.1872C59.8397 12.9167 59.7382 12.6544 59.5498 12.46C59.3615 12.2657 59.1024 12.156 58.8317 12.156V13.156ZM55.1717 13.156V12.156C54.678 12.156 54.2582 12.5163 54.1833 13.0043C54.1084 13.4923 54.4009 13.962 54.8719 14.11L55.1717 13.156ZM57.4997 14.14L58.3374 14.6863C58.4899 14.4523 58.5377 14.1653 58.4692 13.8946C58.4006 13.6238 58.222 13.3941 57.9765 13.261L57.4997 14.14ZM58.7477 15.868L59.747 15.9064C59.7575 15.6348 59.6568 15.3705 59.4683 15.1746C59.2798 14.9787 59.0196 14.868 58.7477 14.868V15.868ZM55.0998 15.868V14.868C54.606 14.868 54.1862 15.2283 54.1113 15.7163C54.0364 16.2043 54.3289 16.674 54.7999 16.822L55.0998 15.868ZM57.4277 16.828L58.2598 17.3827C58.4157 17.1489 58.466 16.8602 58.3984 16.5875C58.3308 16.3147 58.1515 16.083 57.9045 15.949L57.4277 16.828ZM57.0198 17.44L56.1877 16.8853C55.9831 17.1922 55.9641 17.5867 56.1381 17.9119C56.3121 18.237 56.651 18.44 57.0198 18.44V17.44ZM58.6758 17.44V18.44C59.2065 18.44 59.6448 18.0254 59.6742 17.4955L58.6758 17.44ZM52.1925 10.7225C52.0264 10.9598 51.8388 11.2459 51.7064 11.4393L53.3571 12.5687C53.5367 12.3061 53.6611 12.1122 53.831 11.8695L52.1925 10.7225ZM52.5317 13.004H60.0918V11.004H52.5317V13.004ZM59.0922 11.9728L59.0082 14.6608L61.0073 14.7232L61.0913 12.0352L59.0922 11.9728ZM60.0078 15.692H61.4357V13.692H60.0078V15.692ZM60.4357 14.692V15.868H62.4357V14.692H60.4357ZM61.4357 14.868H59.9598V16.868H61.4357V14.868ZM58.9605 15.8288C58.9366 16.4378 58.9129 16.9599 58.8893 17.3845L60.8862 17.4955C60.9106 17.0561 60.9349 16.5222 60.959 15.9072L58.9605 15.8288ZM59.8877 18.44H61.0998V16.44H59.8877V18.44ZM60.0998 17.44V18.592H62.0998V17.44H60.0998ZM61.0998 17.592H59.8158V19.592H61.0998V17.592ZM58.8242 18.4627C58.8058 18.6031 58.7921 18.707 58.7803 18.7857C58.7745 18.8244 58.7702 18.8502 58.7671 18.8667C58.7634 18.8862 58.764 18.879 58.7702 18.8573L60.6933 19.4067C60.7436 19.2305 60.778 18.9464 60.8074 18.7213L58.8242 18.4627ZM58.7691 18.8613C58.7205 19.034 58.6623 19.0701 58.6311 19.0875L59.6084 20.8325C60.1772 20.5139 60.527 19.998 60.6944 19.4027L58.7691 18.8613ZM58.6053 19.1025C58.5263 19.1499 58.2905 19.236 57.7998 19.236V21.236C58.461 21.236 59.1132 21.1301 59.6342 20.8175L58.6053 19.1025ZM57.7998 19.236C57.5765 19.236 57.3326 19.2391 57.08 19.2421C56.8251 19.2451 56.5573 19.248 56.2757 19.248V21.248C56.5702 21.248 56.8484 21.2449 57.1035 21.2419C57.361 21.2389 57.591 21.236 57.7998 21.236V19.236ZM57.2264 19.9378L56.8544 18.7978L54.9531 19.4182L55.3251 20.5582L57.2264 19.9378ZM55.866 20.1073C56.4927 20.1309 57.0921 20.156 57.6318 20.156V18.156C57.1394 18.156 56.5868 18.1331 55.9415 18.1087L55.866 20.1073ZM57.6318 20.156C57.9581 20.156 58.2494 20.1018 58.4898 20.0278L57.9017 18.1162C57.8301 18.1382 57.7374 18.156 57.6318 18.156V20.156ZM58.5897 19.9911C59.0526 19.7928 59.3512 19.4154 59.5118 19.0024L57.6477 18.2776C57.6425 18.291 57.6471 18.2733 57.6744 18.2428C57.7036 18.2101 57.7472 18.1763 57.8018 18.1529L58.5897 19.9911ZM59.5798 18.64C59.5798 18.679 59.5773 18.7172 59.5727 18.7545C59.5681 18.7917 59.5615 18.8262 59.554 18.8574C59.5392 18.9194 59.5212 18.9655 59.5142 18.9829C59.5126 18.9871 59.5113 18.9901 59.5111 18.9906C59.5111 18.9906 59.5109 18.991 59.5113 18.99C59.5116 18.9894 59.5122 18.988 59.5129 18.9862C59.5142 18.983 59.5169 18.9764 59.5202 18.9681C59.5234 18.9598 59.5279 18.9481 59.5329 18.934C59.5425 18.9068 59.5568 18.8627 59.5688 18.8071C59.5811 18.7503 59.5918 18.6772 59.5918 18.592H57.5918C57.5918 18.5098 57.6021 18.4397 57.6137 18.386C57.625 18.3334 57.6384 18.2924 57.6469 18.2684C57.6513 18.2559 57.6552 18.2458 57.6578 18.2391C57.6603 18.2325 57.6624 18.2276 57.663 18.226C57.6634 18.2252 57.6636 18.2246 57.6635 18.2249C57.6628 18.2264 57.664 18.2237 57.6632 18.2255C57.6631 18.2258 57.6629 18.2263 57.6626 18.2269C57.6617 18.2292 57.6597 18.2341 57.6573 18.2401C57.6473 18.265 57.6263 18.3194 57.6092 18.3907C57.6006 18.4267 57.5931 18.4661 57.5879 18.5086C57.5826 18.5511 57.5798 18.595 57.5798 18.64H59.5798ZM58.5918 17.592H51.6797V19.592H58.5918V17.592ZM52.6632 18.7732C52.8356 17.8373 52.9701 16.9065 53.091 16.0002L51.1085 15.7358C50.9894 16.6295 50.8599 17.5227 50.6963 18.4108L52.6632 18.7732ZM52.0998 14.868H50.2757V16.868H52.0998V14.868ZM51.2757 15.868V14.692H49.2757V15.868H51.2757ZM50.2757 15.692H52.2197V13.692H50.2757V15.692ZM53.2161 14.7774C53.2896 13.9195 53.3387 13.073 53.3633 12.2498L51.3642 12.1902C51.3408 12.975 51.2939 13.7845 51.2234 14.6066L53.2161 14.7774ZM51.5754 11.6047C51.2161 12.0651 50.8576 12.4649 50.489 12.802L51.8385 14.278C52.3099 13.8471 52.7434 13.3589 53.1521 12.8353L51.5754 11.6047ZM51.9343 12.9026L51.1303 11.9306L49.5892 13.2054L50.3932 14.1774L51.9343 12.9026ZM51.0271 13.3127C52.0819 12.3675 52.9708 11.0645 53.7066 9.44073L51.8849 8.61527C51.2287 10.0635 50.4856 11.1125 49.6924 11.8233L51.0271 13.3127ZM52.5749 10.0033L53.8469 10.2913L54.2886 8.34069L53.0166 8.05269L52.5749 10.0033ZM53.1574 8.9022C53.0414 9.15734 52.925 9.38857 52.7929 9.66606L54.5986 10.5259C54.7065 10.2994 54.8541 10.0027 54.9781 9.7298L53.1574 8.9022ZM53.6958 11.096H60.8478V9.096H53.6958V11.096ZM59.8478 10.096V11.296H61.8478V10.096H59.8478ZM60.8478 10.296H53.0117V12.296H60.8478V10.296ZM54.9678 14.868H53.3597V16.868H54.9678V14.868ZM52.3678 15.7414C52.2961 16.3029 52.2265 16.8117 52.1467 17.2676L54.1168 17.6124C54.205 17.1083 54.2794 16.5611 54.3517 15.9946L52.3678 15.7414ZM53.1318 18.44H56.3358V16.44H53.1318V18.44ZM56.8029 16.5558C56.1146 16.1922 55.4192 15.9027 54.7168 15.6907L54.1387 17.6053C54.7083 17.7773 55.2849 18.0158 55.8686 18.3242L56.8029 16.5558ZM55.2499 17.2172L55.7899 16.4372L54.1456 15.2988L53.6056 16.0788L55.2499 17.2172ZM53.4678 15.692H56.2757V13.692H53.4678V15.692ZM56.7445 13.8087C56.1095 13.4717 55.4687 13.1965 54.8222 12.9854L54.2013 14.8866C54.7308 15.0595 55.266 15.2883 55.807 15.5753L56.7445 13.8087ZM55.3399 14.4966L55.8679 13.7166L54.2116 12.5954L53.6836 13.3754L55.3399 14.4966ZM55.0397 12.156H53.5518V14.156H55.0397V12.156ZM52.5527 13.1116C52.5281 13.6651 52.4952 14.1187 52.469 14.6421L54.4665 14.7419C54.4883 14.3053 54.5274 13.7269 54.5508 13.2004L52.5527 13.1116ZM57.1398 15.692H58.7838V13.692H57.1398V15.692ZM59.7833 14.7232L59.8313 13.1872L57.8322 13.1248L57.7842 14.6608L59.7833 14.7232ZM58.8317 12.156H55.1717V14.156H58.8317V12.156ZM54.8719 14.11C55.6495 14.3544 56.3704 14.6651 57.023 15.019L57.9765 13.261C57.2131 12.8469 56.374 12.4856 55.4716 12.202L54.8719 14.11ZM56.6621 13.5937L56.3021 14.1457L57.9774 15.2383L58.3374 14.6863L56.6621 13.5937ZM58.7477 14.868H55.0998V16.868H58.7477V14.868ZM54.7999 16.822C55.5954 17.072 56.313 17.361 56.951 17.707L57.9045 15.949C57.1265 15.527 56.2841 15.192 55.3996 14.914L54.7999 16.822ZM56.5957 16.2733L56.1877 16.8853L57.8518 17.9947L58.2598 17.3827L56.5957 16.2733ZM57.0198 18.44H58.6758V16.44H57.0198V18.44ZM59.6742 17.4955C59.6986 17.0565 59.7228 16.5347 59.747 15.9064L57.7485 15.8296C57.7247 16.4493 57.7009 16.9595 57.6773 17.3845L59.6742 17.4955ZM63.7878 12.868L64.1549 11.9378C63.72 11.7662 63.2241 11.9188 62.961 12.3054L63.7878 12.868ZM66.2718 14.152L67.1069 14.702C67.4079 14.245 67.2856 13.631 66.8326 13.3241L66.2718 14.152ZM65.6237 15.136L65.014 15.9286C65.2343 16.0981 65.5152 16.1682 65.7894 16.1222C66.0635 16.0762 66.3061 15.9181 66.4589 15.686L65.6237 15.136ZM63.1997 13.732L62.373 13.1694C62.2025 13.4199 62.1548 13.7342 62.2433 14.024C62.3318 14.3139 62.547 14.5479 62.8284 14.6605L63.1997 13.732ZM64.8677 11.236L65.2162 10.2987C64.7827 10.1375 64.2952 10.2947 64.0375 10.6787L64.8677 11.236ZM67.4357 12.472L68.2709 13.022C68.4197 12.796 68.4706 12.5195 68.412 12.2553C68.3534 11.9912 68.1903 11.7621 67.9598 11.6203L67.4357 12.472ZM66.7878 13.456L66.2111 14.273C66.4323 14.4291 66.7075 14.4889 66.9736 14.4386C67.2397 14.3883 67.474 14.2322 67.6229 14.006L66.7878 13.456ZM64.2798 12.112L63.4495 11.5547C63.2791 11.8085 63.2342 12.1264 63.3275 12.4175C63.4209 12.7086 63.6424 12.941 63.9286 13.0483L64.2798 12.112ZM67.9157 11.428V10.428C67.3635 10.428 66.9157 10.8757 66.9157 11.428H67.9157ZM69.1517 11.428H70.1517C70.1517 10.8757 69.704 10.428 69.1517 10.428V11.428ZM69.1517 13.96L70.1508 14.0044C70.1514 13.9896 70.1517 13.9748 70.1517 13.96H69.1517ZM68.9478 15.472L67.9734 15.2471C67.9048 15.5441 67.9755 15.8561 68.1652 16.0946C68.3549 16.333 68.643 16.472 68.9478 16.472V15.472ZM73.2318 15.472H74.2318C74.2318 14.9197 73.784 14.472 73.2318 14.472V15.472ZM73.2318 16.696V17.696C73.784 17.696 74.2318 17.2483 74.2318 16.696H73.2318ZM68.5397 16.696V15.696C68.1738 15.696 67.8371 15.8959 67.6619 16.2171L68.5397 16.696ZM68.3358 17.092L67.4579 16.6131C67.3216 16.863 67.2982 17.1591 67.3936 17.4272C67.489 17.6954 67.6942 17.9101 67.9576 18.0178L68.3358 17.092ZM73.0158 19.372L73.7544 20.0461C73.9587 19.8222 74.0504 19.5179 74.0039 19.2184C73.9574 18.919 73.7776 18.6569 73.515 18.5056L73.0158 19.372ZM72.1398 20.332L71.62 21.1863C72.0286 21.4349 72.5561 21.3593 72.8784 21.0061L72.1398 20.332ZM67.6997 18.016L68.1032 17.101C67.7256 16.9345 67.2845 17.0171 66.9926 17.3089L67.6997 18.016ZM67.6758 18.04L66.9686 17.3329C66.9608 17.3407 66.9532 17.3486 66.9456 17.3567L67.6758 18.04ZM63.4038 20.212L62.562 20.7518C62.7948 21.1148 63.2341 21.2877 63.6518 21.1807L63.4038 20.212ZM62.6958 19.108L62.4518 18.1382C62.1398 18.2167 61.8845 18.4406 61.766 18.7398C61.6475 19.039 61.6803 19.3769 61.854 19.6478L62.6958 19.108ZM66.7518 17.188L67.4927 17.8595C67.5108 17.8396 67.528 17.819 67.5444 17.7977L66.7518 17.188ZM67.0998 16.696L67.9409 17.2368C68.1387 16.929 68.1528 16.5379 67.9775 16.2168C67.8022 15.8957 67.4656 15.696 67.0998 15.696V16.696ZM62.6478 16.696H61.6478C61.6478 17.2483 62.0955 17.696 62.6478 17.696V16.696ZM62.6478 15.472V14.472C62.0955 14.472 61.6478 14.9197 61.6478 15.472H62.6478ZM67.6517 15.472V16.472C68.0908 16.472 68.4784 16.1857 68.6075 15.7661L67.6517 15.472ZM67.9157 13.96L68.9135 14.0265C68.915 14.0044 68.9157 13.9822 68.9157 13.96H67.9157ZM63.0677 9.736V8.736C62.5155 8.736 62.0677 9.18372 62.0677 9.736H63.0677ZM72.3918 9.736H73.3918C73.3918 9.18372 72.944 8.736 72.3918 8.736V9.736ZM72.3918 10.516L73.3599 10.7664C73.381 10.6846 73.3918 10.6005 73.3918 10.516H72.3918ZM71.7077 12.616L71.4304 13.5768C71.9252 13.7196 72.4475 13.4633 72.6373 12.9846L71.7077 12.616ZM70.5438 12.28L69.66 11.8121C69.5191 12.0782 69.5056 12.3936 69.6232 12.6707C69.7409 12.9479 69.9771 13.1573 70.2664 13.2408L70.5438 12.28ZM71.0957 10.888L72.0589 11.1568C72.143 10.8556 72.0813 10.5324 71.8922 10.2833C71.7032 10.0343 71.4085 9.888 71.0957 9.888V10.888ZM63.0677 10.888H62.0677C62.0677 11.4403 62.5155 11.888 63.0677 11.888V10.888ZM63.4206 13.7982C64.2782 14.1367 65.0386 14.5245 65.7109 14.9799L66.8326 13.3241C66.0169 12.7715 65.1213 12.3193 64.1549 11.9378L63.4206 13.7982ZM65.4366 13.602L64.7886 14.586L66.4589 15.686L67.1069 14.702L65.4366 13.602ZM66.2335 14.3434C65.3888 13.6936 64.5055 13.1773 63.5711 12.8035L62.8284 14.6605C63.574 14.9587 64.2987 15.3784 65.014 15.9286L66.2335 14.3434ZM64.0265 14.2946L64.6145 13.4306L62.961 12.3054L62.373 13.1694L64.0265 14.2946ZM64.5193 12.1733C65.4015 12.5013 66.1936 12.8818 66.9117 13.3237L67.9598 11.6203C67.1179 11.1022 66.206 10.6667 65.2162 10.2987L64.5193 12.1733ZM66.6006 11.922L65.9526 12.906L67.6229 14.006L68.2709 13.022L66.6006 11.922ZM67.3644 12.639C66.4846 12.018 65.5814 11.5321 64.6309 11.1757L63.9286 13.0483C64.7061 13.3399 65.4589 13.742 66.2111 14.273L67.3644 12.639ZM65.11 12.6693L65.698 11.7933L64.0375 10.6787L63.4495 11.5547L65.11 12.6693ZM67.9157 12.428H69.1517V10.428H67.9157V12.428ZM68.1517 11.428V13.96H70.1517V11.428H68.1517ZM68.1527 13.9156C68.1315 14.3942 68.0678 14.8378 67.9734 15.2471L69.9221 15.6969C70.0437 15.1702 70.124 14.6058 70.1508 14.0044L68.1527 13.9156ZM68.9478 16.472H73.2318V14.472H68.9478V16.472ZM72.2318 15.472V16.696H74.2318V15.472H72.2318ZM73.2318 15.696H68.5397V17.696H73.2318V15.696ZM67.6619 16.2171C67.6159 16.3014 67.5751 16.3832 67.5433 16.4468C67.5091 16.5152 67.4839 16.5654 67.4579 16.6131L69.2136 17.5709C69.2596 17.4866 69.3004 17.4048 69.3322 17.3412C69.3664 17.2728 69.3916 17.2226 69.4176 17.1749L67.6619 16.2171ZM67.9576 18.0178C69.6211 18.6972 71.1405 19.4455 72.5165 20.2384L73.515 18.5056C72.059 17.6665 70.4584 16.8788 68.7139 16.1662L67.9576 18.0178ZM72.2771 18.6979L71.4011 19.6579L72.8784 21.0061L73.7544 20.0461L72.2771 18.6979ZM72.6595 19.4777C71.1817 18.5787 69.6668 17.7905 68.1032 17.101L67.2963 18.931C68.7807 19.5855 70.2178 20.3333 71.62 21.1863L72.6595 19.4777ZM66.9926 17.3089L66.9686 17.3329L68.3829 18.7471L68.4069 18.7231L66.9926 17.3089ZM66.9456 17.3567C66.2534 18.0963 65.0336 18.7623 63.1557 19.2433L63.6518 21.1807C65.7099 20.6537 67.3461 19.8557 68.4059 18.7233L66.9456 17.3567ZM64.2455 19.6722L63.5375 18.5682L61.854 19.6478L62.562 20.7518L64.2455 19.6722ZM62.9397 20.0778C64.9826 19.564 66.5878 18.8581 67.4927 17.8595L66.0108 16.5165C65.5237 17.0539 64.4169 17.644 62.4518 18.1382L62.9397 20.0778ZM67.5444 17.7977C67.6787 17.623 67.8154 17.432 67.9409 17.2368L66.2586 16.1552C66.1681 16.296 66.0648 16.441 65.9591 16.5783L67.5444 17.7977ZM67.0998 15.696H62.6478V17.696H67.0998V15.696ZM63.6478 16.696V15.472H61.6478V16.696H63.6478ZM62.6478 16.472H67.6517V14.472H62.6478V16.472ZM68.6075 15.7661C68.7786 15.21 68.8735 14.6274 68.9135 14.0265L66.918 13.8935C66.886 14.3726 66.8129 14.798 66.696 15.1779L68.6075 15.7661ZM68.9157 13.96V11.428H66.9157V13.96H68.9157ZM63.0677 10.736H72.3918V8.736H63.0677V10.736ZM71.3918 9.736V10.516H73.3918V9.736H71.3918ZM71.4236 10.2656C71.2536 10.9231 71.0383 11.5915 70.7782 12.2474L72.6373 12.9846C72.9292 12.2485 73.1699 11.5009 73.3599 10.7664L71.4236 10.2656ZM71.9851 11.6552L70.8211 11.3192L70.2664 13.2408L71.4304 13.5768L71.9851 11.6552ZM71.4275 12.7479C71.6764 12.2777 71.8953 11.7431 72.0589 11.1568L70.1326 10.6192C70.0082 11.0649 69.8431 11.4663 69.66 11.8121L71.4275 12.7479ZM71.0957 9.888H63.0677V11.888H71.0957V9.888ZM64.0677 10.888V9.736H62.0677V10.888H64.0677ZM76.6278 10.432V9.432C76.3555 9.432 76.0949 9.54304 75.9064 9.73947L76.6278 10.432ZM77.6838 10.432H78.6838C78.6838 9.87971 78.236 9.432 77.6838 9.432V10.432ZM77.6838 19V20C78.236 20 78.6838 19.5523 78.6838 19H77.6838ZM76.2798 19H75.2798C75.2798 19.5523 75.7275 20 76.2798 20V19ZM76.2798 12.124H77.2798C77.2798 11.7284 77.0465 11.37 76.6848 11.2097C76.3231 11.0495 75.901 11.1175 75.6079 11.3833L76.2798 12.124ZM74.3237 13.168H73.3237C73.3237 13.4821 73.4714 13.778 73.7224 13.9669C73.9733 14.1559 74.2985 14.2159 74.6004 14.129L74.3237 13.168ZM74.3237 11.776L74.0812 10.8059C73.636 10.9171 73.3237 11.3171 73.3237 11.776H74.3237ZM75.5477 11.272L76.0334 12.1462C76.0455 12.1394 76.0574 12.1325 76.0692 12.1253L75.5477 11.272ZM76.6278 11.432H77.6838V9.432H76.6278V11.432ZM76.6838 10.432V19H78.6838V10.432H76.6838ZM77.6838 18H76.2798V20H77.6838V18ZM77.2798 19V12.124H75.2798V19H77.2798ZM75.6079 11.3833C75.2222 11.7331 74.7163 12.0144 74.0471 12.207L74.6004 14.129C75.5152 13.8656 76.3053 13.4509 76.9516 12.8647L75.6079 11.3833ZM75.3237 13.168V11.776H73.3237V13.168H75.3237ZM74.5663 12.7461C75.0531 12.6244 75.543 12.4186 76.0334 12.1462L75.0621 10.3978C74.6885 10.6054 74.3624 10.7356 74.0812 10.8059L74.5663 12.7461ZM76.0692 12.1253C76.5526 11.8299 76.9862 11.5026 77.3491 11.1245L75.9064 9.73947C75.6933 9.96139 75.4069 10.1861 75.0263 10.4187L76.0692 12.1253ZM81.8976 11.56V10.56C81.5464 10.56 81.2209 10.7443 81.0401 11.0455L81.8976 11.56ZM80.0016 13.672L79.2156 14.2902C79.5533 14.7196 80.1731 14.7985 80.6077 14.4674L80.0016 13.672ZM79.1616 12.604L78.5629 11.803C78.3471 11.9644 78.2055 12.206 78.1702 12.4732C78.135 12.7403 78.209 13.0104 78.3756 13.2222L79.1616 12.604ZM81.5616 9.028L81.7437 8.04472C81.2321 7.94997 80.7333 8.26343 80.5967 8.76554L81.5616 9.028ZM82.8576 9.268L83.8203 9.53874C83.8964 9.26821 83.8551 8.97815 83.7066 8.73956C83.5581 8.50098 83.316 8.33589 83.0397 8.28472L82.8576 9.268ZM82.4976 10.348L81.5669 9.98235C81.4459 10.2902 81.485 10.6379 81.6713 10.9112C81.8576 11.1845 82.1669 11.348 82.4976 11.348V10.348ZM89.7336 10.348H90.7336C90.7336 9.79572 90.2859 9.348 89.7336 9.348V10.348ZM89.7336 11.56V12.56C90.2859 12.56 90.7336 12.1123 90.7336 11.56H89.7336ZM86.0856 11.56V10.56C85.5333 10.56 85.0856 11.0077 85.0856 11.56H86.0856ZM86.0856 13.108H85.0856C85.0856 13.6603 85.5333 14.108 86.0856 14.108V13.108ZM89.3136 13.108H90.3136C90.3136 12.5557 89.8659 12.108 89.3136 12.108V13.108ZM89.3136 14.284V15.284C89.8659 15.284 90.3136 14.8363 90.3136 14.284H89.3136ZM86.0856 14.284V13.284C85.5333 13.284 85.0856 13.7317 85.0856 14.284H86.0856ZM86.0856 16.504H85.0856C85.0856 17.0563 85.5333 17.504 86.0856 17.504V16.504ZM90.0936 16.504H91.0936C91.0936 15.9517 90.6459 15.504 90.0936 15.504V16.504ZM90.0936 17.728V18.728C90.6459 18.728 91.0936 18.2803 91.0936 17.728H90.0936ZM86.0856 17.728V16.728C85.5333 16.728 85.0856 17.1757 85.0856 17.728H86.0856ZM86.0856 20.284V21.284C86.6379 21.284 87.0856 20.8363 87.0856 20.284H86.0856ZM84.8256 20.284H83.8256C83.8256 20.8363 84.2733 21.284 84.8256 21.284V20.284ZM84.8256 17.728H85.8256C85.8256 17.1757 85.3779 16.728 84.8256 16.728V17.728ZM79.4256 17.728H78.4256C78.4256 18.2803 78.8733 18.728 79.4256 18.728V17.728ZM79.4256 16.504V15.504C78.8733 15.504 78.4256 15.9517 78.4256 16.504H79.4256ZM81.2736 16.504V17.504C81.8259 17.504 82.2736 17.0563 82.2736 16.504H81.2736ZM81.2736 13.108V12.108C80.7213 12.108 80.2736 12.5557 80.2736 13.108H81.2736ZM84.8256 13.108V14.108C85.3779 14.108 85.8256 13.6603 85.8256 13.108H84.8256ZM84.8256 11.56H85.8256C85.8256 11.0077 85.3779 10.56 84.8256 10.56V11.56ZM82.5336 16.504H81.5336C81.5336 17.0563 81.9813 17.504 82.5336 17.504V16.504ZM84.8256 16.504V17.504C85.3779 17.504 85.8256 17.0563 85.8256 16.504H84.8256ZM84.8256 14.284H85.8256C85.8256 13.7317 85.3779 13.284 84.8256 13.284V14.284ZM82.5336 14.284V13.284C81.9813 13.284 81.5336 13.7317 81.5336 14.284H82.5336ZM81.0401 11.0455C80.6039 11.7725 80.0547 12.3744 79.3956 12.8766L80.6077 14.4674C81.4605 13.8176 82.1833 13.0275 82.7551 12.0745L81.0401 11.0455ZM80.7876 13.0538L79.9476 11.9858L78.3756 13.2222L79.2156 14.2902L80.7876 13.0538ZM79.7603 13.405C81.1329 12.379 82.0619 10.9987 82.5266 9.29046L80.5967 8.76554C80.2453 10.0573 79.5664 11.053 78.5629 11.803L79.7603 13.405ZM81.3795 10.0113L82.6755 10.2513L83.0397 8.28472L81.7437 8.04472L81.3795 10.0113ZM81.895 8.99725C81.7951 9.3524 81.6855 9.68046 81.5669 9.98235L83.4284 10.7137C83.5738 10.3435 83.7042 9.9516 83.8203 9.53874L81.895 8.99725ZM82.4976 11.348H89.7336V9.348H82.4976V11.348ZM88.7336 10.348V11.56H90.7336V10.348H88.7336ZM89.7336 10.56H86.0856V12.56H89.7336V10.56ZM85.0856 11.56V13.108H87.0856V11.56H85.0856ZM86.0856 14.108H89.3136V12.108H86.0856V14.108ZM88.3136 13.108V14.284H90.3136V13.108H88.3136ZM89.3136 13.284H86.0856V15.284H89.3136V13.284ZM85.0856 14.284V16.504H87.0856V14.284H85.0856ZM86.0856 17.504H90.0936V15.504H86.0856V17.504ZM89.0936 16.504V17.728H91.0936V16.504H89.0936ZM90.0936 16.728H86.0856V18.728H90.0936V16.728ZM85.0856 17.728V20.284H87.0856V17.728H85.0856ZM86.0856 19.284H84.8256V21.284H86.0856V19.284ZM85.8256 20.284V17.728H83.8256V20.284H85.8256ZM84.8256 16.728H79.4256V18.728H84.8256V16.728ZM80.4256 17.728V16.504H78.4256V17.728H80.4256ZM79.4256 17.504H81.2736V15.504H79.4256V17.504ZM82.2736 16.504V13.108H80.2736V16.504H82.2736ZM81.2736 14.108H84.8256V12.108H81.2736V14.108ZM85.8256 13.108V11.56H83.8256V13.108H85.8256ZM84.8256 10.56H81.8976V12.56H84.8256V10.56ZM82.5336 17.504H84.8256V15.504H82.5336V17.504ZM85.8256 16.504V14.284H83.8256V16.504H85.8256ZM84.8256 13.284H82.5336V15.284H84.8256V13.284ZM81.5336 14.284V16.504H83.5336V14.284H81.5336ZM92.4456 9.244L93.0645 8.45851C92.675 8.15164 92.1195 8.17653 91.759 8.51699L92.4456 9.244ZM94.4616 11.116L95.164 11.8278C95.5421 11.4548 95.5625 10.8513 95.2106 10.4534L94.4616 11.116ZM93.5616 12.004L92.7655 12.6091C92.9395 12.8381 93.2037 12.981 93.4906 13.0015C93.7775 13.0219 94.0592 12.9178 94.264 12.7158L93.5616 12.004ZM91.5816 10.06L90.895 9.33299C90.685 9.53131 90.571 9.81074 90.5824 10.0993C90.5938 10.388 90.7294 10.6576 90.9543 10.8388L91.5816 10.06ZM97.1256 20.032L97.1413 19.0321L97.141 19.0321L97.1256 20.032ZM95.2056 19.828L94.9183 20.7858C94.9367 20.7914 94.9553 20.7964 94.974 20.8008L95.2056 19.828ZM93.9456 19L93.1737 19.6357C93.1809 19.6445 93.1883 19.6531 93.1958 19.6616L93.9456 19ZM92.2536 20.308L91.5757 21.0432C91.8012 21.2511 92.1096 21.344 92.4124 21.2953C92.7151 21.2466 92.9789 21.0617 93.1278 20.7936L92.2536 20.308ZM91.3296 19.456L90.4816 18.926C90.2268 19.3338 90.2982 19.8652 90.6517 20.1912L91.3296 19.456ZM92.9376 17.62L93.4195 18.4962C93.7391 18.3205 93.9376 17.9847 93.9376 17.62H92.9376ZM92.9376 14.332H93.9376C93.9376 13.7797 93.4899 13.332 92.9376 13.332V14.332ZM91.3536 14.332H90.3536C90.3536 14.8843 90.8013 15.332 91.3536 15.332V14.332ZM91.3536 13.18V12.18C90.8013 12.18 90.3536 12.6277 90.3536 13.18H91.3536ZM94.1016 13.18H95.1016C95.1016 12.6277 94.6539 12.18 94.1016 12.18V13.18ZM94.1016 17.74H93.1016C93.1016 18.0052 93.207 18.2596 93.3945 18.4471L94.1016 17.74ZM94.2336 17.872L94.9826 17.2094C94.9691 17.1942 94.9551 17.1793 94.9407 17.1649L94.2336 17.872ZM95.0736 18.58L94.5973 19.4593C94.6029 19.4623 94.6086 19.4653 94.6142 19.4682L95.0736 18.58ZM96.6576 18.88L96.6237 19.8794C96.6293 19.8796 96.6348 19.8798 96.6404 19.8799L96.6576 18.88ZM100.918 18.892V19.892C100.931 19.892 100.944 19.8917 100.957 19.8912L100.918 18.892ZM102.322 18.82L103.293 19.0559C103.369 18.7452 103.291 18.4171 103.084 18.1733C102.878 17.9294 102.567 17.7991 102.248 17.8227L102.322 18.82ZM102.022 20.056V21.056C102.483 21.056 102.885 20.7403 102.993 20.2919L102.022 20.056ZM94.9896 13.744V12.744C94.4373 12.744 93.9896 13.1917 93.9896 13.744H94.9896ZM97.7736 13.744V14.744C98.2728 14.744 98.6955 14.376 98.7641 13.8816L97.7736 13.744ZM97.8816 12.328L98.8814 12.3513C98.8876 12.0821 98.7851 11.8217 98.5969 11.6292C98.4087 11.4366 98.1509 11.328 97.8816 11.328V12.328ZM95.3976 12.328H94.3976C94.3976 12.8803 94.8453 13.328 95.3976 13.328V12.328ZM95.3976 11.176V10.176C94.8453 10.176 94.3976 10.6237 94.3976 11.176H95.3976ZM96.7176 11.176V12.176C97.0673 12.176 97.3915 11.9934 97.5728 11.6944C97.754 11.3954 97.7659 11.0234 97.6042 10.7134L96.7176 11.176ZM95.7936 9.7L95.3581 8.79984C95.0891 8.92998 94.8924 9.17358 94.8219 9.46393C94.7514 9.75428 94.8143 10.061 94.9936 10.3L95.7936 9.7ZM96.9096 9.16L97.7417 8.6053C97.4647 8.18979 96.9236 8.04233 96.4741 8.25984L96.9096 9.16ZM97.8936 10.864L98.3408 11.7584C98.8348 11.5114 99.035 10.9108 98.7881 10.4168L97.8936 10.864ZM97.2696 11.176L96.8224 10.2816C96.4076 10.489 96.1898 10.9544 96.2964 11.4058C96.4029 11.8571 96.8058 12.176 97.2696 12.176V11.176ZM98.9976 11.176V12.176C99.3764 12.176 99.7227 11.962 99.8921 11.6232L98.9976 11.176ZM99.8856 9.052L100.222 8.11026C99.9695 8.0201 99.6914 8.03507 99.4501 8.15181C99.2088 8.26855 99.0245 8.47729 98.9385 8.73119L99.8856 9.052ZM101.062 9.472L101.995 9.83098C102.092 9.57953 102.083 9.2997 101.97 9.05486C101.858 8.81001 101.652 8.62087 101.398 8.53026L101.062 9.472ZM100.27 11.176L99.4014 10.6799C99.2245 10.9894 99.2258 11.3696 99.4047 11.6779C99.5836 11.9862 99.9132 12.176 100.27 12.176V11.176ZM101.554 11.176H102.554C102.554 10.6237 102.106 10.176 101.554 10.176V11.176ZM101.554 12.328V13.328C102.106 13.328 102.554 12.8803 102.554 12.328H101.554ZM99.1176 12.328V11.328C98.5742 11.328 98.1302 11.762 98.1179 12.3053L99.1176 12.328ZM99.0216 13.744L98.0285 13.6272C97.9951 13.9108 98.0846 14.1951 98.2744 14.4085C98.4641 14.6219 98.7361 14.744 99.0216 14.744V13.744ZM101.962 13.744H102.962C102.962 13.1917 102.514 12.744 101.962 12.744V13.744ZM101.962 14.92V15.92C102.514 15.92 102.962 15.4723 102.962 14.92H101.962ZM98.8056 14.92V13.92C98.3544 13.92 97.9591 14.2222 97.8407 14.6576L98.8056 14.92ZM95.6736 18.4L94.8838 19.0133C95.1858 19.4023 95.7261 19.5135 96.1572 19.2753L95.6736 18.4ZM94.8816 17.38L94.4476 16.4791C94.1755 16.6102 93.9772 16.8572 93.9081 17.1513C93.8391 17.4453 93.9065 17.7547 94.0918 17.9933L94.8816 17.38ZM97.4736 14.92L98.4006 15.2952C98.5253 14.9869 98.4887 14.6368 98.3028 14.3611C98.117 14.0853 97.8062 13.92 97.4736 13.92V14.92ZM94.9896 14.92H93.9896C93.9896 15.4723 94.4373 15.92 94.9896 15.92V14.92ZM99.4056 15.436L99.9676 14.6089C99.5514 14.326 98.9898 14.3966 98.6564 14.7737L99.4056 15.436ZM101.974 17.476L102.712 18.1501C103.081 17.746 103.057 17.1206 102.658 16.7465L101.974 17.476ZM101.098 18.436L100.36 19.1108C100.549 19.3181 100.817 19.4361 101.098 19.436C101.379 19.4359 101.647 19.3176 101.836 19.1101L101.098 18.436ZM98.6736 16.264L97.9244 15.6017C97.7379 15.8126 97.649 16.0925 97.6795 16.3724C97.71 16.6523 97.8572 16.9064 98.0848 17.0722L98.6736 16.264ZM91.8268 10.0295C92.5812 10.6239 93.2075 11.2075 93.7126 11.7786L95.2106 10.4534C94.6118 9.77648 93.894 9.11209 93.0645 8.45851L91.8268 10.0295ZM93.7593 10.4042L92.8593 11.2922L94.264 12.7158L95.164 11.8278L93.7593 10.4042ZM94.3578 11.3989C93.8356 10.7119 93.1094 10.0066 92.209 9.28125L90.9543 10.8388C91.7819 11.5054 92.3756 12.0961 92.7655 12.6091L94.3578 11.3989ZM92.2682 10.787L93.1322 9.97101L91.759 8.51699L90.895 9.33299L92.2682 10.787ZM99.2736 19.056C98.6232 19.056 97.9123 19.0442 97.1413 19.0321L97.11 21.0319C97.875 21.0438 98.604 21.056 99.2736 21.056V19.056ZM97.141 19.0321C96.4093 19.0209 95.8499 18.9534 95.4372 18.8552L94.974 20.8008C95.5693 20.9426 96.282 21.0191 97.1102 21.0319L97.141 19.0321ZM95.493 18.8702C95.207 18.7844 94.943 18.6189 94.6955 18.3384L93.1958 19.6616C93.6683 20.1971 94.2442 20.5836 94.9183 20.7858L95.493 18.8702ZM94.7176 18.3643C94.5241 18.1294 94.1194 17.7 93.5016 17.7V19.7C93.3147 19.7 93.1918 19.6301 93.1515 19.6029C93.1161 19.5791 93.1242 19.5756 93.1737 19.6357L94.7176 18.3643ZM93.5016 17.7C93.0937 17.7 92.7979 17.9101 92.6577 18.0245C92.4931 18.1587 92.3478 18.3244 92.2223 18.4863C91.9683 18.814 91.6871 19.2686 91.3795 19.8224L93.1278 20.7936C93.4202 20.2674 93.643 19.918 93.8029 19.7117C93.8845 19.6066 93.9236 19.5728 93.9218 19.5743C93.9193 19.5764 93.8877 19.6024 93.8282 19.6302C93.7685 19.6582 93.6551 19.7 93.5016 19.7V17.7ZM92.9315 19.5728L92.0075 18.7208L90.6517 20.1912L91.5757 21.0432L92.9315 19.5728ZM92.1776 19.986C92.7699 19.0384 93.1834 18.6261 93.4195 18.4962L92.4557 16.7438C91.7319 17.1419 91.0894 17.9536 90.4816 18.926L92.1776 19.986ZM93.9376 17.62V14.332H91.9376V17.62H93.9376ZM92.9376 13.332H91.3536V15.332H92.9376V13.332ZM92.3536 14.332V13.18H90.3536V14.332H92.3536ZM91.3536 14.18H94.1016V12.18H91.3536V14.18ZM93.1016 13.18V17.74H95.1016V13.18H93.1016ZM93.3945 18.4471L93.5265 18.5791L94.9407 17.1649L94.8087 17.0329L93.3945 18.4471ZM93.4846 18.5346C93.8061 18.898 94.1711 19.2284 94.5973 19.4593L95.5499 17.7007C95.4001 17.6196 95.2131 17.47 94.9826 17.2094L93.4846 18.5346ZM94.6142 19.4682C95.166 19.7536 95.8783 19.8542 96.6237 19.8794L96.6915 17.8806C96.021 17.8578 95.6773 17.7664 95.5331 17.6918L94.6142 19.4682ZM96.6404 19.8799C97.3383 19.8919 98.149 19.904 99.0936 19.904V17.904C98.1662 17.904 97.3689 17.8921 96.6749 17.8801L96.6404 19.8799ZM99.0936 19.904C99.3994 19.904 99.7045 19.9009 100.007 19.898C100.31 19.8949 100.611 19.892 100.918 19.892V17.892C100.6 17.892 100.289 17.8951 99.9867 17.898C99.6828 17.9011 99.3878 17.904 99.0936 17.904V19.904ZM100.957 19.8912C101.572 19.8671 102.054 19.8426 102.396 19.8173L102.248 17.8227C101.941 17.8454 101.487 17.8689 100.878 17.8928L100.957 19.8912ZM101.35 18.5841L101.05 19.8201L102.993 20.2919L103.293 19.0559L101.35 18.5841ZM102.022 19.056H99.2736V21.056H102.022V19.056ZM94.9896 14.744H97.7736V12.744H94.9896V14.744ZM98.7641 13.8816C98.8301 13.4061 98.8686 12.8995 98.8814 12.3513L96.8819 12.3047C96.8706 12.7885 96.8371 13.2179 96.7831 13.6064L98.7641 13.8816ZM97.8816 11.328H95.3976V13.328H97.8816V11.328ZM96.3976 12.328V11.176H94.3976V12.328H96.3976ZM95.3976 12.176H96.7176V10.176H95.3976V12.176ZM97.6042 10.7134C97.292 10.115 96.9513 9.57688 96.5936 9.1L94.9936 10.3C95.284 10.6871 95.5673 11.133 95.831 11.6386L97.6042 10.7134ZM96.2292 10.6002L97.3452 10.0602L96.4741 8.25984L95.3581 8.79984L96.2292 10.6002ZM96.0776 9.7147C96.3898 10.1831 96.7051 10.7231 96.9992 11.3112L98.7881 10.4168C98.4581 9.75694 98.1014 9.14493 97.7417 8.6053L96.0776 9.7147ZM97.4464 9.96957L96.8224 10.2816L97.7168 12.0704L98.3408 11.7584L97.4464 9.96957ZM97.2696 12.176H98.9976V10.176H97.2696V12.176ZM99.8921 11.6232C100.247 10.9129 100.565 10.1627 100.833 9.37281L98.9385 8.73119C98.702 9.42931 98.42 10.0951 98.1032 10.7288L99.8921 11.6232ZM99.5493 9.99374L100.725 10.4137L101.398 8.53026L100.222 8.11026L99.5493 9.99374ZM100.128 9.11302C99.9017 9.7022 99.6584 10.2301 99.4014 10.6799L101.138 11.6721C101.457 11.1139 101.742 10.4898 101.995 9.83098L100.128 9.11302ZM100.27 12.176H101.554V10.176H100.27V12.176ZM100.554 11.176V12.328H102.554V11.176H100.554ZM101.554 11.328H99.1176V13.328H101.554V11.328ZM98.1179 12.3053C98.1066 12.8024 98.0727 13.2509 98.0285 13.6272L100.015 13.8608C100.067 13.4211 100.105 12.9096 100.117 12.3507L98.1179 12.3053ZM99.0216 14.744H101.962V12.744H99.0216V14.744ZM100.962 13.744V14.92H102.962V13.744H100.962ZM101.962 13.92H98.8056V15.92H101.962V13.92ZM97.8407 14.6576C97.5629 15.679 96.7603 16.6572 95.1901 17.5247L96.1572 19.2753C98.019 18.2468 99.3043 16.897 99.7706 15.1824L97.8407 14.6576ZM96.4635 17.7867L95.6715 16.7667L94.0918 17.9933L94.8838 19.0133L96.4635 17.7867ZM95.3157 18.2809C96.778 17.5763 97.8701 16.6057 98.4006 15.2952L96.5467 14.5448C96.2611 15.2503 95.6253 15.9117 94.4476 16.4791L95.3157 18.2809ZM97.4736 13.92H94.9896V15.92H97.4736V13.92ZM95.9896 14.92V13.744H93.9896V14.92H95.9896ZM98.8436 16.2631C99.7411 16.873 100.564 17.5248 101.29 18.2055L102.658 16.7465C101.848 15.9872 100.942 15.271 99.9676 14.6089L98.8436 16.2631ZM101.235 16.8019L100.359 17.7619L101.836 19.1101L102.712 18.1501L101.235 16.8019ZM101.836 17.7612C101.021 16.8707 100.155 16.1062 99.2625 15.4558L98.0848 17.0722C98.872 17.6458 99.6378 18.3213 100.36 19.1108L101.836 17.7612ZM99.4228 16.9263L100.155 16.0983L98.6564 14.7737L97.9244 15.6017L99.4228 16.9263ZM105.55 10.432V9.432C105.277 9.432 105.017 9.54304 104.828 9.73947L105.55 10.432ZM106.606 10.432H107.606C107.606 9.87971 107.158 9.432 106.606 9.432V10.432ZM106.606 19V20C107.158 20 107.606 19.5523 107.606 19H106.606ZM105.202 19H104.202C104.202 19.5523 104.649 20 105.202 20V19ZM105.202 12.124H106.202C106.202 11.7284 105.968 11.37 105.607 11.2097C105.245 11.0495 104.823 11.1175 104.53 11.3833L105.202 12.124ZM103.246 13.168H102.246C102.246 13.4821 102.393 13.778 102.644 13.9669C102.895 14.1559 103.22 14.2159 103.522 14.129L103.246 13.168ZM103.246 11.776L103.003 10.8059C102.558 10.9171 102.246 11.3171 102.246 11.776H103.246ZM104.47 11.272L104.955 12.1462C104.967 12.1394 104.979 12.1325 104.991 12.1253L104.47 11.272ZM105.55 11.432H106.606V9.432H105.55V11.432ZM105.606 10.432V19H107.606V10.432H105.606ZM106.606 18H105.202V20H106.606V18ZM106.202 19V12.124H104.202V19H106.202ZM104.53 11.3833C104.144 11.7331 103.638 12.0144 102.969 12.207L103.522 14.129C104.437 13.8656 105.227 13.4509 105.873 12.8647L104.53 11.3833ZM104.246 13.168V11.776H102.246V13.168H104.246ZM103.488 12.7461C103.975 12.6244 104.465 12.4186 104.955 12.1462L103.984 10.3978C103.61 10.6054 103.284 10.7356 103.003 10.8059L103.488 12.7461ZM104.991 12.1253C105.474 11.8299 105.908 11.5026 106.271 11.1245L104.828 9.73947C104.615 9.96139 104.329 10.1861 103.948 10.4187L104.991 12.1253ZM113.051 12.736V11.736C112.499 11.736 112.051 12.1837 112.051 12.736H113.051ZM114.324 12.736H115.324C115.324 12.1837 114.876 11.736 114.324 11.736V12.736ZM114.324 20.248V21.248C114.876 21.248 115.324 20.8003 115.324 20.248H114.324ZM113.051 20.248H112.051C112.051 20.8003 112.499 21.248 113.051 21.248V20.248ZM113.135 9.136V8.136C112.806 8.136 112.498 8.29812 112.311 8.56947L113.135 9.136ZM114.24 9.136L115.092 8.61403C114.911 8.31707 114.588 8.136 114.24 8.136V9.136ZM119.327 13.36L120.161 13.9127C120.319 13.6746 120.367 13.3803 120.294 13.1041C120.221 12.8279 120.033 12.5962 119.778 12.4674L119.327 13.36ZM118.572 14.5L118.113 15.3885C118.566 15.6226 119.123 15.4779 119.405 15.0527L118.572 14.5ZM113.688 10.312L114.53 9.77277C114.35 9.49268 114.043 9.32008 113.711 9.31228C113.378 9.30447 113.064 9.46247 112.872 9.73383L113.688 10.312ZM108.803 14.5L107.97 15.0527C108.249 15.4737 108.799 15.6204 109.251 15.3944L108.803 14.5ZM108.048 13.36L107.608 12.4617C107.349 12.5882 107.158 12.8201 107.082 13.0979C107.007 13.3758 107.055 13.6727 107.214 13.9127L108.048 13.36ZM113.051 13.736H114.324V11.736H113.051V13.736ZM113.324 12.736V20.248H115.324V12.736H113.324ZM114.324 19.248H113.051V21.248H114.324V19.248ZM114.051 20.248V12.736H112.051V20.248H114.051ZM113.135 10.136H114.24V8.136H113.135V10.136ZM113.387 9.65796C114.502 11.481 116.382 12.9928 118.877 14.2526L119.778 12.4674C117.473 11.3032 115.945 10.007 115.092 8.61403L113.387 9.65796ZM118.494 12.8073L117.738 13.9473L119.405 15.0527L120.161 13.9127L118.494 12.8073ZM119.03 13.6115C116.963 12.5435 115.481 11.2589 114.53 9.77277L112.845 10.8512C114.03 12.7011 115.812 14.2005 118.113 15.3885L119.03 13.6115ZM112.872 9.73383C111.683 11.4108 110.178 12.6946 108.356 13.6056L109.251 15.3944C111.365 14.3374 113.124 12.8372 114.503 10.8902L112.872 9.73383ZM109.637 13.9473L108.881 12.8073L107.214 13.9127L107.97 15.0527L109.637 13.9473ZM108.487 14.2583C110.827 13.1138 112.661 11.592 113.96 9.70253L112.311 8.56947C111.234 10.136 109.684 11.4462 107.608 12.4617L108.487 14.2583ZM123.635 13.588V12.588C123.083 12.588 122.635 13.0357 122.635 13.588H123.635ZM123.635 15.364H122.635C122.635 15.9163 123.083 16.364 123.635 16.364V15.364ZM128.376 15.364V16.364C128.928 16.364 129.376 15.9163 129.376 15.364H128.376ZM128.376 13.588H129.376C129.376 13.0357 128.928 12.588 128.376 12.588V13.588ZM128.376 12.424V13.424C128.928 13.424 129.376 12.9763 129.376 12.424H128.376ZM128.376 10.744H129.376C129.376 10.1917 128.928 9.744 128.376 9.744V10.744ZM123.635 10.744V9.744C123.083 9.744 122.635 10.1917 122.635 10.744H123.635ZM123.635 12.424H122.635C122.635 12.9763 123.083 13.424 123.635 13.424V12.424ZM123.563 16.528V15.528C123.054 15.528 122.626 15.9111 122.57 16.4176L123.563 16.528ZM122.196 20.332L121.521 21.0707C121.731 21.2623 122.013 21.3555 122.296 21.327C122.579 21.2985 122.836 21.1509 123.003 20.9213L122.196 20.332ZM121.235 19.456L120.421 18.8756C120.128 19.2875 120.188 19.8538 120.561 20.1947L121.235 19.456ZM122.376 15.436L123.375 15.4507C123.375 15.4458 123.376 15.4409 123.376 15.436H122.376ZM122.376 9.544V8.544C121.823 8.544 121.376 8.99171 121.376 9.544H122.376ZM129.647 9.544H130.647C130.647 8.99171 130.2 8.544 129.647 8.544V9.544ZM126.887 20.14L125.923 20.4047C126.042 20.839 126.437 21.14 126.887 21.14V20.14ZM126.551 18.916L126.62 17.9183C126.296 17.8963 125.982 18.0322 125.777 18.283C125.572 18.5337 125.501 18.8683 125.587 19.1807L126.551 18.916ZM128.376 16.528H129.376C129.376 15.9757 128.928 15.528 128.376 15.528V16.528ZM122.635 13.588V15.364H124.635V13.588H122.635ZM123.635 16.364H128.376V14.364H123.635V16.364ZM129.376 15.364V13.588H127.376V15.364H129.376ZM128.376 12.588H123.635V14.588H128.376V12.588ZM129.376 12.424V10.744H127.376V12.424H129.376ZM128.376 9.744H123.635V11.744H128.376V9.744ZM122.635 10.744V12.424H124.635V10.744H122.635ZM123.635 13.424H128.376V11.424H123.635V13.424ZM122.57 16.4176C122.417 17.793 122.009 18.8904 121.388 19.7427L123.003 20.9213C123.87 19.7336 124.374 18.287 124.557 16.6384L122.57 16.4176ZM122.87 19.5933L121.91 18.7173L120.561 20.1947L121.521 21.0707L122.87 19.5933ZM122.05 20.0364C122.944 18.7823 123.349 17.2228 123.375 15.4507L121.376 15.4213C121.354 16.9132 121.015 18.0417 120.421 18.8756L122.05 20.0364ZM123.376 15.436V9.544H121.376V15.436H123.376ZM122.376 10.544H129.647V8.544H122.376V10.544ZM128.647 9.544V18.952H130.647V9.544H128.647ZM128.647 18.952C128.647 19.067 128.632 19.1262 128.625 19.1469C128.62 19.1625 128.623 19.147 128.645 19.1254C128.696 19.0763 128.685 19.14 128.424 19.14V21.14C128.978 21.14 129.579 21.0057 130.038 20.5606C130.502 20.1101 130.647 19.5099 130.647 18.952H128.647ZM128.424 19.14H126.887V21.14H128.424V19.14ZM127.852 19.8753L127.516 18.6513L125.587 19.1807L125.923 20.4047L127.852 19.8753ZM126.483 19.9137C127.021 19.9503 127.539 19.976 128.016 19.976V17.976C127.604 17.976 127.138 17.9537 126.62 17.9183L126.483 19.9137ZM128.016 19.976C128.395 19.976 128.809 19.8264 129.089 19.4482C129.33 19.1224 129.376 18.7538 129.376 18.496H127.376C127.376 18.5502 127.361 18.4216 127.482 18.2578C127.549 18.1669 127.643 18.0877 127.756 18.0358C127.865 17.9861 127.959 17.976 128.016 17.976V19.976ZM129.376 18.496V16.528H127.376V18.496H129.376ZM128.376 15.528H123.563V17.528H128.376V15.528Z" fill="#FFF2F4" mask="url(#path-2-outside-1_8424_660)"/>
<defs>
<linearGradient id="paint0_linear_8424_660" x1="-9.5" y1="-10.5" x2="201" y2="3" gradientUnits="userSpaceOnUse">
<stop stop-color="#FF3BDB"/>
<stop offset="0.54" stop-color="#FFB171"/>
<stop offset="0.771136" stop-color="#FE4F80"/>
</linearGradient>
<linearGradient id="paint1_linear_8424_660" x1="0" y1="14.5" x2="148" y2="14.5" gradientUnits="userSpaceOnUse">
<stop stop-color="#AFE5F4"/>
<stop offset="0.125" stop-color="#CBC1F6"/>
<stop offset="0.285" stop-color="#E4C2EF"/>
<stop offset="0.415" stop-color="#FFC0E3"/>
<stop offset="0.622346" stop-color="#EAEBDE"/>
<stop offset="0.775" stop-color="#C9F6F1"/>
<stop offset="0.965" stop-color="#ACE9FF"/>
</linearGradient>
<linearGradient id="paint2_linear_8424_660" x1="70" y1="-5.5" x2="71.5" y2="32.5" gradientUnits="userSpaceOnUse">
<stop stop-color="white"/>
<stop offset="0.982463" stop-color="white" stop-opacity="0"/>
</linearGradient>
</defs>
</svg>
