<svg height="20" viewBox="2 4 18 22" width="20" xmlns="http://www.w3.org/2000/svg"><path d="m16.063 17.465c-.505 0-.916-.398-.916-.887s.41-.887.916-.887c.505 0 .916.398.916.887 0 .49-.411.887-.916.887m-10.126 0c-.505 0-.916-.398-.916-.887s.411-.887.916-.887.916.398.916.887c0 .49-.41.887-.916.887m10.454-5.342 1.831-3.07c.105-.176.043-.402-.14-.504-.181-.101-.414-.04-.52.135l-1.853 3.109c-1.418-.626-3.01-.975-4.709-.975s-3.291.349-4.709.975l-1.853-3.109c-.106-.176-.339-.236-.52-.135-.183.102-.245.328-.14.504l1.83 3.07c-3.142 1.655-5.292 4.737-5.608 8.377h22c-.315-3.64-2.465-6.722-5.609-8.377"/></svg>