<svg height="20" viewBox="0 0 17 22" width="20" xmlns="http://www.w3.org/2000/svg"><path d="m14.1978813 12.1188206c.0293394 3.1902114 2.7717354 4.251821 2.8021187 4.2653344-.0231882.0748317-.4381899 1.5128585-1.4448262 2.9982386-.8702285 1.2842227-1.7733381 2.5636649-3.1960572 2.5901647-1.3979651.0260104-1.8474881-.8370014-3.44575902-.8370014-1.59778627 0-2.09722729.8105393-3.42055773.8630495-1.37328573.0525102-2.41906609-1.3886409-3.2964524-2.6681584-1.79291013-2.6172291-3.16306434-7.3956578-1.32329316-10.62117716.91395805-1.60180594 2.54727223-2.61613749 4.3200884-2.64214792 1.34853177-.02597279 2.62134772.916049 3.44575906.916049.82388942 0 2.37063925-1.13286533 3.99672115-.96648891.680734.02860771 2.5915982.27764536 3.8185597 2.09107307-.0988668.061883-2.2800115 1.34396013-2.2563013 4.01106452m-2.5607015-8.6607535c.7322897-.91550719 1.2251633-2.18997767 1.0907023-3.4580671-1.0555425.04381657-2.331929.72647331-3.089044 1.64147776-.67852029.81027782-1.27275444 2.10717867-1.11241981 3.35016928 1.17652371.09401419 2.37843441-.61749265 3.11076151-1.53357994"/></svg>