<svg fill="none" height="18" viewBox="0 0 18 18" width="18" xmlns="http://www.w3.org/2000/svg"><g stroke="#c5bccc"><path d="m17.4375 3.375c-.7459 0-1.4613.29632-1.9887.82376-.5275.52745-.8238 1.24281-.8238 1.98874 0-.74593-.2963-1.46129-.8238-1.98874-.5274-.52744-1.2428-.82376-1.9887-.82376.7459 0 1.4613-.29632 1.9887-.82376.5275-.52745.8238-1.24281.8238-1.98874 0 .74593.2963 1.46129.8238 1.98874.5274.52744 1.2428.82376 1.9887.82376zm0 0 .3977-.39775-.3977.39774z" stroke-width="1.125"/><path d="m5.10876 12.8912c.89079.8908 1.39124 2.099 1.39124 3.3588 0 .0663.02633.1299.07321.1768.0469.0469.11049.0732.17679.0732s.12989-.0263.17679-.0732c.04688-.0469.07321-.1105.07321-.1768 0-1.2598.50045-2.468 1.39124-3.3588.8908-.8908 2.09896-1.3912 3.35876-1.3912.0663 0 .1299-.0263.1768-.0732s.0732-.1105.0732-.1768-.0263-.1299-.0732-.1768-.1105-.0732-.1768-.0732c-1.2598 0-2.46796-.5004-3.35876-1.39124-.89079-.8908-1.39124-2.09898-1.39124-3.35876 0-.0663-.02633-.12988-.07321-.17677-.00001-.00001-.00001-.00001-.00002-.00002m-1.81801 6.81799 1.81801-6.81799m-1.81801 6.81799c-.8908-.8908-2.09898-1.3912-3.35876-1.3912m3.35876 1.3912-3.35876-1.3912m5.17677-5.42679c-.04689-.04688-.11048-.07321-.17677-.07321s-.12988.02633-.17677.07321m.35354 0h-.35354m0 0c-.00001.00001-.00001.00001-.00002.00002m.00002-.00002-.00002.00002m-1.46445 3.53553c-.8908.89084-2.09898 1.39124-3.35876 1.39124-.0663 0-.12988.0263-.17677.0732-.00001 0-.00001 0-.00002 0m3.53555-1.46444-3.53555 1.46444m3.53555-1.46444c.89079-.8908 1.39124-2.09898 1.39124-3.35876m-1.39124 3.35876 1.39124-3.35876m-4.92679 4.8232c-.04688.0469-.07321.1105-.07321.1768s.02633.1299.07321.1768m0-.3536v.3536m0 0h.00002m-.00002 0h.00002m.17677.0732c-.0663 0-.12988-.0263-.17677-.0732m.17677.0732-.17677-.0732m4.92677-5.1768c0-.0663.02633-.12988.07321-.17677m-.07321.17677.07321-.17677" stroke-width="1.5"/></g></svg>