<svg height="20" viewBox="0 0 18 22" width="20" xmlns="http://www.w3.org/2000/svg"><path d="m6.2490962 18.7310347c.75732017-.0811315.85724886-.9139915.50045323-1.2779049-.29379358-.2994458-1.91516488-1.550419-2.33820172-2.0422575-.19629428-.2280771-.46255483-.3401799-.57527828-.5967035-.25929632-.5901389-.44101429-1.4324249-.11207561-2.0370395.0596009-.1094097.09782322-.0604278.05231275.1673126-.25832456 1.2903607.55017464 2.3447332.72816755 1.8039128.12292686-.3735077.00906971-1.04158.07466309-1.5721327.11628654-.9389032.93871422-2.7419744 1.29988273-2.8449878-.55697691-1.07255131.65334251-1.9119759.63860424-2.85323563-.0098795-.61218913.51713501.75257015 1.04690282 1.04191662.59147417.32301099 1.2415775-.608991 2.1645817-1.08197738.26091591-.13381644.596009-.28749493.5734967-.40161762-.1085125-.55041476-1.21210094.67901319-2.19810718.72042054-.44992203.0186838-.61690174-.09190412-.79068372-.26628629-.52539491-.52785953.05360842-.0873594.8345746-.23413667.347402-.06530915.46401246-.12556863.83230717-.28025706.36845667-.15468842.78955001-.38377542 1.20643243-.50143289.2900685-.08197308.2660986-.30853524.1530512-.37670588-.0651075-.03921915-.1613111-.03534773-.2375938.10166683-.17896467.32149608-1.02017959.50732418-1.28239117.59064384-.33719859.10705315-.71019011.20720507-1.20529869.18633307-.7524614-.03164464-.57705983-.39017168-1.11541146-.71099447-.15791-.09409231-.11515283-.3410215.09442208-.55899921.10980818-.11429101.41105188-.17875855.56037805-.43864858.02089271-.03652599.21329997-.24558261.36424574-.35398233.05215079-.03753593.05668564-.99242979-.41477694-1.01212353-.40052454-.01683225-.5143817.30584209-.49753797.62750649.01668178.32132776.18058426.58643578.28974461.58525752.21022275-.00235651.01344259.23901803-.10171024.27790054-.17491569.05924954-.41461497-.71553918-.38708195-1.08753203.0288287-.38747852.22285555-1.07356126.694804-1.06026377.42498035.0119509.73286437.56556378.7173163 1.52062596-.00291526.1619263.68897348-.07726005.91992698.17623372.16487424.18128339-.56556074-1.69197833 1.06131716-1.82091341.4285435.08517122.8402432.23346339 1.0112718 1.25753781-.0633259.10654818.1065691.82090911-.15791.90574367-.3229462.10351838-.5223177-.0149807-.335579-.33445691.1277857-.32099112.0029153-1.13735551-.6504272-1.08837365-.65350446.04898187-.56685641 1.25400304-.38789174 1.27790484.17928858.02373348.63050629.35650718.94551654.42030143 1.0334602.20905661.2741965.82494884.4082985 1.57044944.1515936.84194942.6850865.61959532 1.164647 2.84919589.1002526.1358363.4972141.2642664.884458 1.9772851.3482118 1.5408246-.1449533 2.6615162.6923746 2.5696121.1885202-.0207037.4640125-.0755768.5838621-.5122055.3135526-1.1410586-.1569382-2.5012732-.63164-3.4189678-.276464-.5350974-.537056-.8993474-.6743972-1.02457939.5440202.3342886 1.239634 1.40179029 1.4001354 2.19458949.2110325 1.0412433.3611685 1.4817434.0424332 2.5827413.1841474.0956072.6421674.2979309.6421674.524998-.4769692-.4076772-1.9378392-.4800559-1.9754137.4947-.2492548.005218-.4374512.0262583-.5977905.2242057-.5874252.7242919-.0421094 2.1789354-.1015483 2.9587738-.0524747.6864194-.2356503 1.3666109-.3391421 2.0560601-.3495075-.0138025-.3153341-.2797521-.2030966-.6529232.098957-.3290706.2584866-.7416292.2688519-1.1371872.0095556-.3580221-.0281808-.5815544-.1148289-.6371009-.0869719-.0555464-.2230175.056893-.4108899.3714879-.4011724.6712703-1.27008228.9665081-2.08149674 1.072383-.81141447.1055382-1.56565741.0217136-1.96504825-.4431933-.13653141-.1590648-.36295006.0434272-.38983525.0855079-.03611685.0565563.13215852.1663026.2589724.4083505.18528107.3531407.36133047.8889114-.07741639 1.1334841.00566856-1.2432304-.37299152-1.3161141-.76007347-2.0759221zm-.28990656-.0328229c.29071636.4756795 1.31526883 2.4785496-.48069424 2.738608-.60070584.0868544-1.56776288-.3632401-2.50485751-.6015848-.84186275-.213938-1.69684418-.3405166-2.17543295-.4805609-.28812502-.0838247-.40846054-.1913828-.43356418-.3169514-.06640318-.3324371.34983139-.7985222.37088606-1.1920603.02105466-.3935382-.13815101-.5983867-.26852798-.9192095-.1307009-.3221694-.16455032-.5632073-.06008678-.7012318.0813034-.1072215.24650155-.1521636.51535345-.1248953.34076169.0351794.75213748-.037536.97321148-.1775803.37234369-.2363249.54742134-.7199156.37995576-1.3028166 0 .5704451-.17993642.786403-.63099217 1.0471346-.42514231.2459193-1.08140007.046962-1.38296768.3191396-.36295007.3270507.12956718 1.1723666.08923939 1.7922986-.03093416.4766894-.50952293 1.0134701-.29606101 1.4915061.21475761.4808976 1.21598799.5335825 2.25981358.7601447 1.48386813.3228426 2.34889102.8843667 3.03446336.910625 1.00009667.0387142 1.15330986-1.0282825 2.72366408-1.0427582.45801998-.0249118.90599851-.0397242 1.35349115-.0456154.50709356-.0065646 1.01353925-.0023566 1.53358955.0107726 1.0451213.0262583.6857343.5930004 1.3636946.9550622.572201.3053371 1.6006405.1848181 1.8466562-.0592496.3331496-.3300805 1.2270012-1.124058 1.9119257-1.4827534.8536857-.4470647 2.8585759-1.2168037 1.4032126-2.1553703-.3391421-.2189876-1.1413249-.4500945-1.2086999-2.0501687-.3036731.2804254-.268528 1.7712583.5788414 2.0671693.9464882.3304172 1.5379624.8836934-.2217218 1.5093484-1.1652949.4139051-1.3630468.5414936-2.2854031 1.3393425-.9335316.8074433-2.3182808.4869572-2.076638-1.2131006.126166-.8857133.1987236-1.6174115-.0132806-2.3874871-.1038158-.375696-.1553187-.8584451-.0843807-1.1966051.1376652-.6578045.4802084-.8557519.8161113-.2242056.2107086.3963996.2847239.8596233 1.0394527.8974958 1.1855397.0589129 1.4203802-1.1907137 1.7992023-1.2476068.2528179-.0378725.5054739-.7815216.3129047-1.9840179-.2061738-1.2873309-.9349892-3.3204991-1.8698164-4.35147472-.7769172-.8567618-1.2665192-1.60815369-1.5747271-2.68036837-.2588104-.90086231-.4029539-1.77765451-.3498314-2.61590083.0689946-1.08618545-.5104947-2.597722-1.4333369-3.30871647-.5775457-.44521316-1.48322029-.68372622-2.30289467-.67430016-.45996349.005218-.89255591.07490354-1.22521964.26258319-1.36839138.77209556-1.55950297 1.87494494-1.53893418 3.13366101.01927312 1.18229763.05798131 2.53157123.18722457 3.81519904-.15305123.58929727-.94972743 1.70662239-1.4598982 2.38647719-.68589626.70426162-1.0323265 2.06514942-1.4760941 3.25417992-.23678402.6339028-.63552701.9202195-.66905252 1.7352373-.00939362.228077-.00178155.8175426.20779336.6488834.80202085-.6448437 1.80600453.9809839 3.32242642 3.4617217zm4.16364136-17.04299538c-.0430811.1343214-.22107404.24625589-.1081886.3403482.1128854.09409231.1778309-.13145991.4052213-.21595784.0587911-.02188193.3321779.00908942.3823852-.12590527.0218644-.05891289-.1410663-.12607359-.2379178-.22252242-.0971754-.0962805-.1924072-.18195668-.2834282-.17589707-.2354883.015654-.1198496.28093035-.1580719.3999344zm1.3939809 4.90289939c.0847045-.09240908.1284334.15956978.3561477.30887189.1805843.11849908.3561478.0306347.4016583.27049434.0325538.17202566-.0706141.35852705-.2094129.3342886-.241157-.04224896-.7984578-.640299-.5483931-.91365483zm-3.76230703-1.51305145c-.37525894-.0291198-.40101042.25282048-.27678788.24810744.12681387-.00471303.04891161-.22302738.27678788-.24810744zm-.64362496-.72008389c.04437676-.01009936.1073788.06850728.08778176.17859023-.02720911.15283688-.0153861.24861241.08648609.24894906.01684374 0 .03498314-.00336645.04129954-.04292225.04891161-.30449551-.10332982-.52802786-.16552207-.54452347-.14333369-.0380409-.12600408.17673868-.05004532.15990643zm2.73111419-.12876676c.09523188.02945645.1869007.20064049.2068216.38562698.0019435.01733722.1243845-.02659497.1251943-.06699238.007936-.2977626-.23694598-.43780697-.30075782-.43174736-.14738266.01380245-.10559725.08988425-.03125808.11311276zm-1.40013534.88520832c.34124756-.16445114.46061133.09022089.34286715.13112327-.12017356.04191232-.12114531-.1910461-.34286715-.13112327zm-4.12056024 6.04143317c-.16131114-.020367.0469681-.1462723.13523575-.3046638.09701342-.1743822.07822618-.3920233.18026034-.3598737.10187219.0321496.04518655.1540152-.02461777.3538141-.0596009.1701741-.23143937.3181296-.29087832.3107234z"/></svg>