<svg width="170" height="40" viewBox="0 0 170 40" fill="none" xmlns="http://www.w3.org/2000/svg">
<g clip-path="url(#clip0_3537_3956)">
<g clip-path="url(#clip1_3537_3956)">
<mask id="mask0_3537_3956" style="mask-type:luminance" maskUnits="userSpaceOnUse" x="13" y="2" width="27" height="35">
<path fill-rule="evenodd" clip-rule="evenodd" d="M13.0181 8.63761C14.8338 6.49406 17.1797 5.20132 19.742 5.20132C25.5027 5.20132 30.1727 11.7328 30.1727 19.7896C30.1727 27.8464 25.5027 34.3779 19.742 34.3779C17.1798 34.3779 14.8339 33.0852 13.0182 30.9418C15.8572 34.6283 20.0774 36.9659 24.79 36.9659C27.6887 36.9659 30.4007 36.081 32.72 34.5425C36.7709 30.9189 39.3213 25.6523 39.3213 19.7895C39.3213 13.9272 36.7716 8.66123 32.7214 5.03759C30.4017 3.49861 27.6891 2.61328 24.79 2.61328C20.0774 2.61328 15.8572 4.95096 13.0181 8.63761" fill="white"/>
</mask>
<g mask="url(#mask0_3537_3956)">
<rect x="13.0181" y="2.61328" width="26.3032" height="34.3527" fill="url(#paint0_linear_3537_3956)"/>
</g>
<mask id="mask1_3537_3956" style="mask-type:luminance" maskUnits="userSpaceOnUse" x="0" y="0" width="33" height="40">
<path fill-rule="evenodd" clip-rule="evenodd" d="M0 19.7894C0 30.4025 8.35516 39.0637 18.8468 39.5558C19.1593 39.5705 19.4733 39.5787 19.7893 39.5787C24.6563 39.5853 29.3537 37.7915 32.9773 34.5424C30.658 36.0809 27.946 36.9659 25.0473 36.9659C20.3347 36.9659 16.1145 34.6282 13.2755 30.9418C11.0877 28.359 9.67035 24.5405 9.57413 20.2556C9.57383 20.2446 9.57383 19.3344 9.57413 19.3233C9.67035 15.0385 11.0876 11.2202 13.2754 8.63753C16.1145 4.95088 20.3347 2.6132 25.0473 2.6132C27.9464 2.6132 30.659 3.49853 32.9787 5.03751C29.374 1.80509 24.7058 0.0122986 19.8641 0.000942976C19.8391 0.000857251 19.8143 0 19.7893 0C8.85995 1.28588e-06 0 8.85999 0 19.7894" fill="white"/>
</mask>
<g mask="url(#mask1_3537_3956)">
<rect width="32.9787" height="39.5787" fill="url(#paint1_linear_3537_3956)"/>
</g>
<path fill-rule="evenodd" clip-rule="evenodd" d="M65.5204 18.8232C66.5119 17.5541 67.9769 16.7524 69.6766 16.7524C72.8358 16.7524 75.4061 19.5186 75.4061 22.918C75.4061 26.3178 72.8358 29.0837 69.6766 29.0837C67.9769 29.0837 66.5119 28.2823 65.5204 27.0132V32.5924H64.1665V17.0341H65.5204V18.8232ZM65.2848 22.9181C65.2848 25.5804 67.2549 27.746 69.6766 27.746C72.0982 27.746 74.0682 25.5804 74.0682 22.9181C74.0682 20.2561 72.0982 18.0905 69.6766 18.0905C67.2549 18.0905 65.2848 20.2561 65.2848 22.9181Z" fill="black"/>
<path fill-rule="evenodd" clip-rule="evenodd" d="M46.3936 20.8104C46.3936 16.068 50.0738 12.21 54.5973 12.21C59.1209 12.21 62.8012 16.068 62.8012 20.8104C62.8012 25.5526 59.121 29.4109 54.5973 29.4109C50.0738 29.4109 46.3936 25.5526 46.3936 20.8104ZM47.6851 20.8105C47.6851 24.8405 50.7859 28.1193 54.5973 28.1193C58.4087 28.1193 61.5095 24.8405 61.5095 20.8105C61.5095 16.7802 58.4087 13.5017 54.5973 13.5017C50.7859 13.5017 47.6851 16.7802 47.6851 20.8105Z" fill="black"/>
<path d="M94.3492 16.8C93.888 16.8198 93.4373 16.9437 93.0308 17.1623C92.1641 17.6242 91.5648 18.3278 91.1818 19.2245C91.1729 19.2459 91.1628 19.2668 91.1532 19.2877C91.149 19.287 91.145 19.2861 91.1407 19.2853V17.1298H91.1391V17.1082H89.7852V28.7652H91.1412V28.6865C91.1412 26.5895 91.1414 24.7443 91.1412 22.6475C91.1412 21.7877 91.2763 21.089 91.558 20.4074C91.8185 19.7764 92.1831 19.2161 92.7059 18.7683C93.3204 18.2418 94.0248 18.0158 94.8318 18.1443C94.9624 18.165 95.0918 18.1936 95.2279 18.2199C95.3051 17.8341 95.4889 17.3432 95.5671 16.9522C95.1704 16.844 94.7603 16.7927 94.3492 16.8" fill="black"/>
<path fill-rule="evenodd" clip-rule="evenodd" d="M76.6201 22.9366C76.6201 19.5368 79.1903 16.771 82.3494 16.771C85.7228 16.771 88.0788 19.3064 88.0788 22.9366C88.0788 23.0827 88.0724 23.227 88.063 23.3702H77.9778C78.1782 25.8296 80.0612 27.7645 82.3494 27.7645C84.114 27.7645 85.635 26.6119 86.3325 24.9577L87.4989 25.6364C86.5672 27.6865 84.6093 29.102 82.3494 29.102C79.1903 29.102 76.6201 26.3363 76.6201 22.9366ZM86.695 22.1896C86.4145 19.7209 84.7417 18.1088 82.3494 18.1088C80.1596 18.1088 78.3443 19.8818 78.0158 22.1896H86.695Z" fill="black"/>
<path fill-rule="evenodd" clip-rule="evenodd" d="M105.163 18.8232V17.0341H106.517V28.7651H105.163V27.0132C104.171 28.2823 102.706 29.0837 101.007 29.0837C97.8475 29.0837 95.2773 26.3178 95.2773 22.918C95.2773 19.5186 97.8475 16.7524 101.007 16.7524C102.706 16.7524 104.171 17.5541 105.163 18.8232ZM96.6151 22.9181C96.6151 25.5804 98.585 27.746 101.007 27.746C103.428 27.746 105.398 25.5804 105.398 22.9181C105.398 20.2561 103.428 18.0905 101.007 18.0905C98.585 18.0905 96.6151 20.2561 96.6151 22.9181Z" fill="black"/>
<path d="M112.243 12.2114H124V13.444H118.833V28.8033H117.41V13.444H112.243V12.2114V12.2114Z" fill="black"/>
<path fill-rule="evenodd" clip-rule="evenodd" d="M122.364 22.9254C122.364 26.8601 125.185 29.1355 128.385 29.1355C131.585 29.1355 134.405 26.8601 134.405 22.9254C134.405 18.9908 131.585 16.7153 128.385 16.7153C125.185 16.7153 122.364 18.9908 122.364 22.9254ZM128.385 17.9005C131.039 17.9005 133.031 20.01 133.031 22.9255C133.031 25.8409 131.039 27.9505 128.385 27.9505C125.73 27.9505 123.739 25.8409 123.739 22.9255C123.739 20.01 125.73 17.9005 128.385 17.9005Z" fill="black"/>
<path d="M135.59 17.0469H136.965V24.8924C136.965 26.9072 138.269 27.9501 139.999 27.9501C142.014 27.9501 143.791 26.125 143.791 23.3992V17.0469H145.166V28.8034H143.791V26.6465C143.033 28.116 141.469 29.1352 139.762 29.1352C137.605 29.1352 135.59 27.9975 135.59 24.9162L135.59 17.0469Z" fill="black"/>
<path d="M157.681 25.746C156.662 27.8556 154.813 29.1355 152.49 29.1355C149.03 29.1355 146.541 26.5045 146.541 22.9254C146.541 19.3226 149.267 16.7153 152.49 16.7153C155.027 16.7153 156.828 17.9715 157.658 19.9389L156.615 20.6025C155.785 18.8012 154.244 17.9478 152.538 17.9478C150.002 17.9478 147.963 19.8441 147.963 22.9254C147.963 25.9357 149.907 27.903 152.538 27.903C154.671 27.903 155.833 26.6705 156.662 25.0824L157.681 25.746Z" fill="black"/>
<path d="M169.035 28.8034H167.66V20.9577C167.66 18.943 166.38 17.9001 164.555 17.9001C162.611 17.9001 160.62 19.7252 160.62 22.2851V28.8033H159.246V12.2114H160.62V19.3459C161.474 17.7342 163.085 16.715 164.934 16.715C167.471 16.715 169.035 18.2082 169.035 20.8155V28.8034Z" fill="black"/>
</g>
</g>
<defs>
<linearGradient id="paint0_linear_3537_3956" x1="13.1818" y1="2.90619" x2="13.1818" y2="36.8314" gradientUnits="userSpaceOnUse">
<stop stop-color="#211060"/>
<stop offset="0.06732" stop-color="#42197A"/>
<stop offset="0.14692" stop-color="#622293"/>
<stop offset="0.22961" stop-color="#7B29A6"/>
<stop offset="0.31559" stop-color="#8D2EB4"/>
<stop offset="0.40696" stop-color="#9831BC"/>
<stop offset="0.51284" stop-color="#9B32BF"/>
<stop offset="0.62739" stop-color="#9E34BD"/>
<stop offset="0.72185" stop-color="#A83CB5"/>
<stop offset="0.80915" stop-color="#BA48A9"/>
<stop offset="0.89213" stop-color="#D25A98"/>
<stop offset="0.97138" stop-color="#F17082"/>
<stop offset="1" stop-color="#FE7A79"/>
</linearGradient>
<linearGradient id="paint1_linear_3537_3956" x1="0.509067" y1="0.645311" x2="0.509067" y2="39.0027" gradientUnits="userSpaceOnUse">
<stop stop-color="#36B5F5"/>
<stop offset="0.52698" stop-color="#6137F5"/>
<stop offset="0.62372" stop-color="#6136F2"/>
<stop offset="0.70337" stop-color="#6033E8"/>
<stop offset="0.77695" stop-color="#602ED6"/>
<stop offset="0.84689" stop-color="#5F26BE"/>
<stop offset="0.91425" stop-color="#5D1D9F"/>
<stop offset="0.9788" stop-color="#5C1179"/>
<stop offset="1" stop-color="#5B0D6B"/>
</linearGradient>
<clipPath id="clip0_3537_3956">
<rect width="170" height="40" fill="white"/>
</clipPath>
<clipPath id="clip1_3537_3956">
<rect width="170" height="40" fill="white"/>
</clipPath>
</defs>
</svg>
