<svg width="146" height="29" viewBox="0 0 146 29" fill="none" xmlns="http://www.w3.org/2000/svg">
<path d="M0.5 14C0.5 6.54416 6.54416 0.5 14 0.5H132C139.456 0.5 145.5 6.54416 145.5 14V15C145.5 22.4558 139.456 28.5 132 28.5H0.5V14Z" fill="url(#paint0_linear_8424_678)"/>
<path d="M0.5 14C0.5 6.54416 6.54416 0.5 14 0.5H132C139.456 0.5 145.5 6.54416 145.5 14V15C145.5 22.4558 139.456 28.5 132 28.5H0.5V14Z" fill="url(#paint1_linear_8424_678)"/>
<path d="M0.5 14C0.5 6.54416 6.54416 0.5 14 0.5H132C139.456 0.5 145.5 6.54416 145.5 14V15C145.5 22.4558 139.456 28.5 132 28.5H0.5V14Z" stroke="url(#paint2_linear_8424_678)"/>
<mask id="path-2-outside-1_8424_678" maskUnits="userSpaceOnUse" x="15" y="8" width="115" height="15" fill="black">
<rect fill="white" x="15" y="8" width="115" height="15"/>
<path d="M17.692 11.752C18.352 12.496 18.976 13.24 19.552 13.984C19.84 13.036 20.032 12.016 20.128 10.936H16.804V9.724H21.352V10.672C21.268 12.352 20.98 13.864 20.476 15.232C20.98 15.916 21.436 16.6 21.856 17.296L20.884 18.268C20.584 17.716 20.248 17.164 19.876 16.612C19.228 17.86 18.376 18.952 17.32 19.888L16.468 18.892C17.56 17.908 18.412 16.744 19.024 15.388C18.364 14.5 17.62 13.576 16.792 12.628L17.692 11.752ZM21.868 9.724H26.992V10.84C26.752 12.664 26.14 14.428 25.132 16.108C25.78 17.128 26.584 18.112 27.556 19.072L26.668 20.116C25.756 19.168 25 18.208 24.376 17.248C23.656 18.232 22.816 19.192 21.856 20.128L20.992 19.084C22.072 18.136 22.984 17.14 23.704 16.096C22.816 14.416 22.312 12.688 22.204 10.936H21.868V9.724ZM23.332 10.936C23.428 12.304 23.8 13.624 24.448 14.896C25.132 13.648 25.588 12.328 25.828 10.936H23.332ZM30.784 10.432H31.84V19H30.436V12.124C29.92 12.592 29.272 12.94 28.48 13.168V11.776C28.864 11.68 29.272 11.512 29.704 11.272C30.136 11.008 30.496 10.732 30.784 10.432ZM35.7059 10.432H36.7619V19H35.3579V12.124C34.8419 12.592 34.1939 12.94 33.4019 13.168V11.776C33.7859 11.68 34.1939 11.512 34.6259 11.272C35.0579 11.008 35.4179 10.732 35.7059 10.432ZM40.1718 17.188C40.4958 17.188 40.7718 17.32 40.9878 17.584C41.1918 17.848 41.2998 18.196 41.2998 18.616C41.2998 19.252 41.1078 19.804 40.7478 20.284C40.3758 20.752 39.8718 21.076 39.2478 21.256V20.464C39.5718 20.344 39.8478 20.152 40.0758 19.888C40.2918 19.6 40.3878 19.324 40.3878 19.036C40.3158 19.06 40.2198 19.084 40.0878 19.084C39.8238 19.084 39.6077 18.988 39.4277 18.808C39.2478 18.628 39.1638 18.4 39.1638 18.136C39.1638 17.848 39.2598 17.62 39.4518 17.452C39.6318 17.272 39.8718 17.188 40.1718 17.188ZM51.5358 10.924H53.9358C53.5998 10.432 53.2518 9.988 52.8918 9.592L53.9358 9.088C54.3438 9.532 54.7278 10.024 55.0878 10.564L54.3798 10.924H56.7078C57.0798 10.324 57.4038 9.7 57.6798 9.028L58.8918 9.46C58.6278 10 58.3278 10.492 58.0158 10.924H60.1518V16.144H56.4678V17.032H61.2198V18.208H56.4678V20.308H55.2198V18.208H50.4678V17.032H55.2198V16.144H51.5358V10.924ZM58.9398 15.04V14.044H56.4678V15.04H58.9398ZM55.2198 15.04V14.044H52.7478V15.04H55.2198ZM52.7478 12.988H55.2198V12.016H52.7478V12.988ZM56.4678 12.016V12.988H58.9398V12.016H56.4678ZM68.4318 9.16C68.4318 10.216 68.3958 11.116 68.3478 11.86C69.0438 15.016 70.7598 17.428 73.4838 19.096L72.6438 20.2C70.3998 18.688 68.8158 16.672 67.8918 14.14C67.0998 16.588 65.4558 18.616 62.9598 20.224L62.1918 19.096C65.4078 17.176 67.0518 14.488 67.1478 11.044C67.1478 10.24 67.1598 9.616 67.1598 9.16H68.4318ZM74.7798 10.936H79.1598C78.9918 10.396 78.8118 9.892 78.6078 9.412L80.0718 9.172C80.2398 9.7 80.3958 10.288 80.5638 10.936H84.9438V12.148H74.7798V10.936ZM74.3718 18.424H80.2518C80.9358 16.864 81.5358 14.944 82.0638 12.64L83.3958 13C82.9398 15.028 82.3758 16.84 81.7038 18.424H85.3518V19.636H74.3718V18.424ZM77.6598 12.616C78.1878 14.164 78.6438 15.94 79.0518 17.932L77.6958 18.268C77.3358 16.468 76.8918 14.728 76.3398 13.06L77.6598 12.616ZM91.0758 9.112H92.3118V12.172H91.0758V9.112ZM88.3998 14.644L86.8758 14.932L86.3598 13.804C89.9598 13.24 92.7318 12.352 94.6518 11.14C94.2678 10.84 93.8718 10.54 93.4398 10.24L94.2798 9.424C95.4918 10.276 96.5238 11.116 97.3638 11.944L96.4878 12.832C96.1998 12.52 95.8878 12.196 95.5278 11.872C94.5198 12.556 93.3198 13.144 91.9518 13.648H95.9838V20.224H94.7598V19.792H89.6118V20.248H88.3998V14.644ZM89.6118 18.688H94.7598V17.968H89.6118V18.688ZM89.6118 16.984H94.7598V16.336H89.6118V16.984ZM89.6118 15.352H94.7598V14.692H89.6118V15.352ZM89.2038 9.808L90.0798 10.588C89.3838 11.452 88.5078 12.208 87.4758 12.856L86.7438 11.92C87.7278 11.32 88.5438 10.612 89.2038 9.808ZM100.628 10.432H101.684V19H100.28V12.124C99.7638 12.592 99.1158 12.94 98.3238 13.168V11.776C98.7078 11.68 99.1158 11.512 99.5478 11.272C99.9798 11.008 100.34 10.732 100.628 10.432ZM106.366 10.264C107.362 10.264 108.142 10.672 108.706 11.512C109.234 12.304 109.498 13.372 109.498 14.716C109.498 16.06 109.234 17.128 108.706 17.92C108.142 18.748 107.362 19.168 106.366 19.168C105.358 19.168 104.578 18.748 104.026 17.92C103.498 17.128 103.234 16.06 103.234 14.716C103.234 13.372 103.498 12.304 104.026 11.512C104.578 10.672 105.358 10.264 106.366 10.264ZM106.366 11.452C105.682 11.452 105.202 11.824 104.926 12.592C104.734 13.108 104.638 13.816 104.638 14.716C104.638 15.604 104.734 16.312 104.926 16.84C105.202 17.596 105.682 17.98 106.366 17.98C107.038 17.98 107.518 17.596 107.806 16.84C107.998 16.312 108.094 15.604 108.094 14.716C108.094 13.816 107.998 13.108 107.806 12.592C107.518 11.824 107.038 11.452 106.366 11.452ZM114.377 10.432H115.661V16.048H116.933V17.164H115.661V19H114.329V17.164H110.189V15.832L114.377 10.432ZM114.293 12.208L111.329 16.048H114.329V12.208H114.293ZM118.908 9.688H127.308V10.888H118.908V9.688ZM117.972 13.204H128.352V14.416H125.172V18.472C125.172 18.784 125.304 18.94 125.58 18.94H126.9C127.044 18.94 127.164 18.844 127.236 18.664C127.32 18.472 127.38 17.884 127.404 16.912L128.532 17.272C128.448 18.628 128.292 19.432 128.076 19.684C127.86 19.924 127.548 20.056 127.128 20.056H125.22C124.368 20.056 123.948 19.612 123.948 18.736V14.416H122.172V14.656C122.112 16.18 121.776 17.404 121.164 18.316C120.564 19.156 119.604 19.816 118.26 20.284L117.588 19.228C118.884 18.772 119.748 18.196 120.204 17.524C120.66 16.78 120.9 15.832 120.948 14.656V14.416H117.972V13.204Z"/>
</mask>
<path d="M17.692 11.752C18.352 12.496 18.976 13.24 19.552 13.984C19.84 13.036 20.032 12.016 20.128 10.936H16.804V9.724H21.352V10.672C21.268 12.352 20.98 13.864 20.476 15.232C20.98 15.916 21.436 16.6 21.856 17.296L20.884 18.268C20.584 17.716 20.248 17.164 19.876 16.612C19.228 17.86 18.376 18.952 17.32 19.888L16.468 18.892C17.56 17.908 18.412 16.744 19.024 15.388C18.364 14.5 17.62 13.576 16.792 12.628L17.692 11.752ZM21.868 9.724H26.992V10.84C26.752 12.664 26.14 14.428 25.132 16.108C25.78 17.128 26.584 18.112 27.556 19.072L26.668 20.116C25.756 19.168 25 18.208 24.376 17.248C23.656 18.232 22.816 19.192 21.856 20.128L20.992 19.084C22.072 18.136 22.984 17.14 23.704 16.096C22.816 14.416 22.312 12.688 22.204 10.936H21.868V9.724ZM23.332 10.936C23.428 12.304 23.8 13.624 24.448 14.896C25.132 13.648 25.588 12.328 25.828 10.936H23.332ZM30.784 10.432H31.84V19H30.436V12.124C29.92 12.592 29.272 12.94 28.48 13.168V11.776C28.864 11.68 29.272 11.512 29.704 11.272C30.136 11.008 30.496 10.732 30.784 10.432ZM35.7059 10.432H36.7619V19H35.3579V12.124C34.8419 12.592 34.1939 12.94 33.4019 13.168V11.776C33.7859 11.68 34.1939 11.512 34.6259 11.272C35.0579 11.008 35.4179 10.732 35.7059 10.432ZM40.1718 17.188C40.4958 17.188 40.7718 17.32 40.9878 17.584C41.1918 17.848 41.2998 18.196 41.2998 18.616C41.2998 19.252 41.1078 19.804 40.7478 20.284C40.3758 20.752 39.8718 21.076 39.2478 21.256V20.464C39.5718 20.344 39.8478 20.152 40.0758 19.888C40.2918 19.6 40.3878 19.324 40.3878 19.036C40.3158 19.06 40.2198 19.084 40.0878 19.084C39.8238 19.084 39.6077 18.988 39.4277 18.808C39.2478 18.628 39.1638 18.4 39.1638 18.136C39.1638 17.848 39.2598 17.62 39.4518 17.452C39.6318 17.272 39.8718 17.188 40.1718 17.188ZM51.5358 10.924H53.9358C53.5998 10.432 53.2518 9.988 52.8918 9.592L53.9358 9.088C54.3438 9.532 54.7278 10.024 55.0878 10.564L54.3798 10.924H56.7078C57.0798 10.324 57.4038 9.7 57.6798 9.028L58.8918 9.46C58.6278 10 58.3278 10.492 58.0158 10.924H60.1518V16.144H56.4678V17.032H61.2198V18.208H56.4678V20.308H55.2198V18.208H50.4678V17.032H55.2198V16.144H51.5358V10.924ZM58.9398 15.04V14.044H56.4678V15.04H58.9398ZM55.2198 15.04V14.044H52.7478V15.04H55.2198ZM52.7478 12.988H55.2198V12.016H52.7478V12.988ZM56.4678 12.016V12.988H58.9398V12.016H56.4678ZM68.4318 9.16C68.4318 10.216 68.3958 11.116 68.3478 11.86C69.0438 15.016 70.7598 17.428 73.4838 19.096L72.6438 20.2C70.3998 18.688 68.8158 16.672 67.8918 14.14C67.0998 16.588 65.4558 18.616 62.9598 20.224L62.1918 19.096C65.4078 17.176 67.0518 14.488 67.1478 11.044C67.1478 10.24 67.1598 9.616 67.1598 9.16H68.4318ZM74.7798 10.936H79.1598C78.9918 10.396 78.8118 9.892 78.6078 9.412L80.0718 9.172C80.2398 9.7 80.3958 10.288 80.5638 10.936H84.9438V12.148H74.7798V10.936ZM74.3718 18.424H80.2518C80.9358 16.864 81.5358 14.944 82.0638 12.64L83.3958 13C82.9398 15.028 82.3758 16.84 81.7038 18.424H85.3518V19.636H74.3718V18.424ZM77.6598 12.616C78.1878 14.164 78.6438 15.94 79.0518 17.932L77.6958 18.268C77.3358 16.468 76.8918 14.728 76.3398 13.06L77.6598 12.616ZM91.0758 9.112H92.3118V12.172H91.0758V9.112ZM88.3998 14.644L86.8758 14.932L86.3598 13.804C89.9598 13.24 92.7318 12.352 94.6518 11.14C94.2678 10.84 93.8718 10.54 93.4398 10.24L94.2798 9.424C95.4918 10.276 96.5238 11.116 97.3638 11.944L96.4878 12.832C96.1998 12.52 95.8878 12.196 95.5278 11.872C94.5198 12.556 93.3198 13.144 91.9518 13.648H95.9838V20.224H94.7598V19.792H89.6118V20.248H88.3998V14.644ZM89.6118 18.688H94.7598V17.968H89.6118V18.688ZM89.6118 16.984H94.7598V16.336H89.6118V16.984ZM89.6118 15.352H94.7598V14.692H89.6118V15.352ZM89.2038 9.808L90.0798 10.588C89.3838 11.452 88.5078 12.208 87.4758 12.856L86.7438 11.92C87.7278 11.32 88.5438 10.612 89.2038 9.808ZM100.628 10.432H101.684V19H100.28V12.124C99.7638 12.592 99.1158 12.94 98.3238 13.168V11.776C98.7078 11.68 99.1158 11.512 99.5478 11.272C99.9798 11.008 100.34 10.732 100.628 10.432ZM106.366 10.264C107.362 10.264 108.142 10.672 108.706 11.512C109.234 12.304 109.498 13.372 109.498 14.716C109.498 16.06 109.234 17.128 108.706 17.92C108.142 18.748 107.362 19.168 106.366 19.168C105.358 19.168 104.578 18.748 104.026 17.92C103.498 17.128 103.234 16.06 103.234 14.716C103.234 13.372 103.498 12.304 104.026 11.512C104.578 10.672 105.358 10.264 106.366 10.264ZM106.366 11.452C105.682 11.452 105.202 11.824 104.926 12.592C104.734 13.108 104.638 13.816 104.638 14.716C104.638 15.604 104.734 16.312 104.926 16.84C105.202 17.596 105.682 17.98 106.366 17.98C107.038 17.98 107.518 17.596 107.806 16.84C107.998 16.312 108.094 15.604 108.094 14.716C108.094 13.816 107.998 13.108 107.806 12.592C107.518 11.824 107.038 11.452 106.366 11.452ZM114.377 10.432H115.661V16.048H116.933V17.164H115.661V19H114.329V17.164H110.189V15.832L114.377 10.432ZM114.293 12.208L111.329 16.048H114.329V12.208H114.293ZM118.908 9.688H127.308V10.888H118.908V9.688ZM117.972 13.204H128.352V14.416H125.172V18.472C125.172 18.784 125.304 18.94 125.58 18.94H126.9C127.044 18.94 127.164 18.844 127.236 18.664C127.32 18.472 127.38 17.884 127.404 16.912L128.532 17.272C128.448 18.628 128.292 19.432 128.076 19.684C127.86 19.924 127.548 20.056 127.128 20.056H125.22C124.368 20.056 123.948 19.612 123.948 18.736V14.416H122.172V14.656C122.112 16.18 121.776 17.404 121.164 18.316C120.564 19.156 119.604 19.816 118.26 20.284L117.588 19.228C118.884 18.772 119.748 18.196 120.204 17.524C120.66 16.78 120.9 15.832 120.948 14.656V14.416H117.972V13.204Z" fill="#CD249D"/>
<path d="M17.692 11.752L18.4401 11.0884C18.2587 10.884 18.0017 10.7627 17.7286 10.7527C17.4556 10.7427 17.1903 10.8448 16.9945 11.0354L17.692 11.752ZM19.552 13.984L18.7613 14.5962C18.9902 14.8919 19.3651 15.0352 19.7329 14.9675C20.1008 14.8998 20.4001 14.6325 20.5088 14.2747L19.552 13.984ZM20.128 10.936L21.1241 11.0245C21.1489 10.745 21.0552 10.4679 20.8657 10.2609C20.6763 10.0539 20.4086 9.936 20.128 9.936V10.936ZM16.804 10.936H15.804C15.804 11.4883 16.2517 11.936 16.804 11.936V10.936ZM16.804 9.724V8.724C16.2517 8.724 15.804 9.17171 15.804 9.724H16.804ZM21.352 9.724H22.352C22.352 9.17171 21.9043 8.724 21.352 8.724V9.724ZM21.352 10.672L22.3508 10.7219C22.3516 10.7053 22.352 10.6887 22.352 10.672H21.352ZM20.476 15.232L19.5377 14.8863C19.4214 15.2018 19.4715 15.5545 19.6709 15.8252L20.476 15.232ZM21.856 17.296L22.5631 18.0031C22.8882 17.678 22.9498 17.173 22.7122 16.7793L21.856 17.296ZM20.884 18.268L20.0054 18.7455C20.156 19.0227 20.4285 19.2125 20.7407 19.2577C21.0529 19.3029 21.3681 19.1981 21.5911 18.9751L20.884 18.268ZM19.876 16.612L20.7053 16.0531C20.5081 15.7605 20.1713 15.5935 19.819 15.6136C19.4667 15.6337 19.1511 15.838 18.9885 16.1512L19.876 16.612ZM17.32 19.888L16.5601 20.538C16.7345 20.7419 16.9835 20.8671 17.2511 20.8856C17.5187 20.9041 17.7826 20.8143 17.9833 20.6363L17.32 19.888ZM16.468 18.892L15.7986 18.1491C15.3958 18.5121 15.3556 19.13 15.7081 19.542L16.468 18.892ZM19.024 15.388L19.9355 15.7994C20.0848 15.4685 20.0431 15.0828 19.8266 14.7915L19.024 15.388ZM16.792 12.628L16.0945 11.9114C15.7138 12.282 15.6893 12.8856 16.0388 13.2858L16.792 12.628ZM21.868 9.724V8.724C21.3157 8.724 20.868 9.17171 20.868 9.724H21.868ZM26.992 9.724H27.992C27.992 9.17171 27.5443 8.724 26.992 8.724V9.724ZM26.992 10.84L27.9835 10.9705C27.9891 10.9272 27.992 10.8836 27.992 10.84H26.992ZM25.132 16.108L24.2745 15.5935C24.0798 15.9181 24.085 16.3248 24.2879 16.6442L25.132 16.108ZM27.556 19.072L28.3177 19.7199C28.6569 19.3212 28.6311 18.7284 28.2587 18.3605L27.556 19.072ZM26.668 20.116L25.9473 20.8093C26.1432 21.0129 26.4162 21.1242 26.6986 21.1155C26.981 21.1069 27.2466 20.9791 27.4297 20.7639L26.668 20.116ZM24.376 17.248L25.2144 16.703C25.0353 16.4274 24.7322 16.2575 24.4037 16.2484C24.0751 16.2393 23.7631 16.3922 23.569 16.6575L24.376 17.248ZM21.856 20.128L21.0856 20.7656C21.2637 20.9808 21.5237 21.1117 21.8027 21.1266C22.0816 21.1415 22.3541 21.039 22.5541 20.844L21.856 20.128ZM20.992 19.084L20.3323 18.3325C19.9258 18.6893 19.8767 19.3048 20.2216 19.7216L20.992 19.084ZM23.704 16.096L24.5272 16.6637C24.7387 16.357 24.7622 15.9581 24.5881 15.6287L23.704 16.096ZM22.204 10.936L23.2021 10.8745C23.1696 10.3471 22.7324 9.936 22.204 9.936V10.936ZM21.868 10.936H20.868C20.868 11.4883 21.3157 11.936 21.868 11.936V10.936ZM23.332 10.936V9.936C23.0546 9.936 22.7897 10.0512 22.6006 10.2541C22.4114 10.457 22.315 10.7293 22.3345 11.006L23.332 10.936ZM24.448 14.896L23.557 15.3499C23.7252 15.6802 24.0623 15.8903 24.4329 15.8959C24.8035 15.9015 25.1468 15.7016 25.3249 15.3766L24.448 14.896ZM25.828 10.936L26.8135 11.1059C26.8636 10.8153 26.7828 10.5173 26.5928 10.2918C26.4028 10.0662 26.1229 9.936 25.828 9.936V10.936ZM16.9439 12.4156C17.5922 13.1464 18.2015 13.8731 18.7613 14.5962L20.3427 13.3718C19.7505 12.6069 19.1118 11.8456 18.4401 11.0884L16.9439 12.4156ZM20.5088 14.2747C20.8188 13.2543 21.0226 12.166 21.1241 11.0245L19.1319 10.8475C19.0414 11.866 18.8612 12.8177 18.5952 13.6933L20.5088 14.2747ZM20.128 9.936H16.804V11.936H20.128V9.936ZM17.804 10.936V9.724H15.804V10.936H17.804ZM16.804 10.724H21.352V8.724H16.804V10.724ZM20.352 9.724V10.672H22.352V9.724H20.352ZM20.3532 10.6221C20.2735 12.2179 20.0013 13.6279 19.5377 14.8863L21.4143 15.5777C21.9587 14.1001 22.2625 12.4861 22.3508 10.7219L20.3532 10.6221ZM19.6709 15.8252C20.1568 16.4845 20.5957 17.143 20.9998 17.8127L22.7122 16.7793C22.2763 16.057 21.8032 15.3475 21.2811 14.6388L19.6709 15.8252ZM21.1489 16.5889L20.1769 17.5609L21.5911 18.9751L22.5631 18.0031L21.1489 16.5889ZM21.7626 17.7905C21.4466 17.209 21.094 16.6299 20.7053 16.0531L19.0467 17.1709C19.402 17.6981 19.7214 18.223 20.0054 18.7455L21.7626 17.7905ZM18.9885 16.1512C18.3972 17.29 17.6213 18.2847 16.6567 19.1397L17.9833 20.6363C19.1307 19.6193 20.0588 18.43 20.7635 17.0728L18.9885 16.1512ZM18.0799 19.238L17.2279 18.242L15.7081 19.542L16.5601 20.538L18.0799 19.238ZM17.1374 19.6349C18.3322 18.5583 19.2666 17.2814 19.9355 15.7994L18.1125 14.9766C17.5574 16.2066 16.7878 17.2577 15.7986 18.1491L17.1374 19.6349ZM19.8266 14.7915C19.1502 13.8814 18.3896 12.937 17.5452 11.9702L16.0388 13.2858C16.8504 14.215 17.5778 15.1186 18.2214 15.9845L19.8266 14.7915ZM17.4895 13.3446L18.3895 12.4686L16.9945 11.0354L16.0945 11.9114L17.4895 13.3446ZM21.868 10.724H26.992V8.724H21.868V10.724ZM25.992 9.724V10.84H27.992V9.724H25.992ZM26.0005 10.7095C25.7788 12.3945 25.2137 14.0281 24.2745 15.5935L25.9895 16.6225C27.0663 14.8279 27.7252 12.9335 27.9835 10.9705L26.0005 10.7095ZM24.2879 16.6442C24.9809 17.7351 25.8342 18.777 26.8533 19.7835L28.2587 18.3605C27.3338 17.447 26.5791 16.5209 25.9761 15.5718L24.2879 16.6442ZM26.7943 18.4241L25.9063 19.4681L27.4297 20.7639L28.3177 19.7199L26.7943 18.4241ZM27.3887 19.4227C26.5194 18.5191 25.8031 17.6086 25.2144 16.703L23.5376 17.793C24.1969 18.8074 24.9926 19.8169 25.9473 20.8093L27.3887 19.4227ZM23.569 16.6575C22.8848 17.5925 22.0821 18.511 21.1579 19.412L22.5541 20.844C23.5499 19.873 24.4272 18.8715 25.183 17.8385L23.569 16.6575ZM22.6264 19.4904L21.7624 18.4464L20.2216 19.7216L21.0856 20.7656L22.6264 19.4904ZM21.6517 19.8355C22.7819 18.8435 23.7524 17.7872 24.5272 16.6637L22.8808 15.5283C22.2156 16.4928 21.3621 17.4285 20.3323 18.3325L21.6517 19.8355ZM24.5881 15.6287C23.7605 14.063 23.3006 12.4724 23.2021 10.8745L21.2059 10.9975C21.3234 12.9036 21.8715 14.769 22.8199 16.5633L24.5881 15.6287ZM22.204 9.936H21.868V11.936H22.204V9.936ZM22.868 10.936V9.724H20.868V10.936H22.868ZM22.3345 11.006C22.4402 12.5133 22.8506 13.9634 23.557 15.3499L25.339 14.4421C24.7494 13.2846 24.4158 12.0947 24.3295 10.866L22.3345 11.006ZM25.3249 15.3766C26.0629 14.0301 26.555 12.6049 26.8135 11.1059L24.8425 10.7661C24.621 12.0511 24.2011 13.2659 23.5711 14.4154L25.3249 15.3766ZM25.828 9.936H23.332V11.936H25.828V9.936ZM30.784 10.432V9.432C30.5117 9.432 30.2512 9.54304 30.0626 9.73947L30.784 10.432ZM31.84 10.432H32.84C32.84 9.87971 32.3923 9.432 31.84 9.432V10.432ZM31.84 19V20C32.3923 20 32.84 19.5523 32.84 19H31.84ZM30.436 19H29.436C29.436 19.5523 29.8837 20 30.436 20V19ZM30.436 12.124H31.436C31.436 11.7284 31.2028 11.37 30.8411 11.2097C30.4794 11.0495 30.0572 11.1175 29.7642 11.3833L30.436 12.124ZM28.48 13.168H27.48C27.48 13.4821 27.6276 13.778 27.8786 13.9669C28.1296 14.1559 28.4548 14.2159 28.7566 14.129L28.48 13.168ZM28.48 11.776L28.2375 10.8059C27.7923 10.9171 27.48 11.3171 27.48 11.776H28.48ZM29.704 11.272L30.1896 12.1462C30.2017 12.1394 30.2137 12.1325 30.2254 12.1253L29.704 11.272ZM30.784 11.432H31.84V9.432H30.784V11.432ZM30.84 10.432V19H32.84V10.432H30.84ZM31.84 18H30.436V20H31.84V18ZM31.436 19V12.124H29.436V19H31.436ZM29.7642 11.3833C29.3785 11.7331 28.8725 12.0144 28.2034 12.207L28.7566 14.129C29.6715 13.8656 30.4615 13.4509 31.1078 12.8647L29.7642 11.3833ZM29.48 13.168V11.776H27.48V13.168H29.48ZM28.7225 12.7461C29.2094 12.6244 29.6992 12.4186 30.1896 12.1462L29.2184 10.3978C28.8448 10.6054 28.5186 10.7356 28.2375 10.8059L28.7225 12.7461ZM30.2254 12.1253C30.7088 11.8299 31.1424 11.5026 31.5054 11.1245L30.0626 9.73947C29.8496 9.96139 29.5632 10.1861 29.1826 10.4187L30.2254 12.1253ZM35.7059 10.432V9.432C35.4336 9.432 35.1731 9.54304 34.9845 9.73947L35.7059 10.432ZM36.7619 10.432H37.7619C37.7619 9.87971 37.3142 9.432 36.7619 9.432V10.432ZM36.7619 19V20C37.3142 20 37.7619 19.5523 37.7619 19H36.7619ZM35.3579 19H34.3579C34.3579 19.5523 34.8056 20 35.3579 20V19ZM35.3579 12.124H36.3579C36.3579 11.7284 36.1247 11.37 35.763 11.2097C35.4013 11.0495 34.9791 11.1175 34.6861 11.3833L35.3579 12.124ZM33.4019 13.168H32.4019C32.4019 13.4821 32.5495 13.778 32.8005 13.9669C33.0515 14.1559 33.3766 14.2159 33.6785 14.129L33.4019 13.168ZM33.4019 11.776L33.1593 10.8059C32.7142 10.9171 32.4019 11.3171 32.4019 11.776H33.4019ZM34.6259 11.272L35.1115 12.1462C35.1236 12.1394 35.1355 12.1325 35.1473 12.1253L34.6259 11.272ZM35.7059 11.432H36.7619V9.432H35.7059V11.432ZM35.7619 10.432V19H37.7619V10.432H35.7619ZM36.7619 18H35.3579V20H36.7619V18ZM36.3579 19V12.124H34.3579V19H36.3579ZM34.6861 11.3833C34.3004 11.7331 33.7944 12.0144 33.1252 12.207L33.6785 14.129C34.5934 13.8656 35.3834 13.4509 36.0297 12.8647L34.6861 11.3833ZM34.4019 13.168V11.776H32.4019V13.168H34.4019ZM33.6444 12.7461C34.1313 12.6244 34.6211 12.4186 35.1115 12.1462L34.1402 10.3978C33.7666 10.6054 33.4405 10.7356 33.1593 10.8059L33.6444 12.7461ZM35.1473 12.1253C35.6307 11.8299 36.0643 11.5026 36.4273 11.1245L34.9845 9.73947C34.7714 9.96139 34.4851 10.1861 34.1044 10.4187L35.1473 12.1253ZM40.9878 17.584L41.779 16.9726C41.7734 16.9652 41.7676 16.9579 41.7617 16.9508L40.9878 17.584ZM40.7477 20.284L41.5306 20.9062C41.5364 20.8989 41.5421 20.8915 41.5478 20.884L40.7477 20.284ZM39.2477 21.256H38.2477C38.2477 21.5702 38.3955 21.8662 38.6466 22.0551C38.8977 22.244 39.223 22.3039 39.5249 22.2168L39.2477 21.256ZM39.2477 20.464L38.9004 19.5263C38.5081 19.6715 38.2477 20.0457 38.2477 20.464H39.2477ZM40.0758 19.888L40.8326 20.5416C40.8476 20.5242 40.862 20.5064 40.8757 20.488L40.0758 19.888ZM40.3878 19.036H41.3878C41.3878 18.7146 41.2332 18.4127 40.9725 18.2248C40.7117 18.0368 40.3765 17.9857 40.0715 18.0873L40.3878 19.036ZM39.4277 18.808L38.7206 19.5151L38.7206 19.5151L39.4277 18.808ZM39.4517 17.452L40.1103 18.2046C40.127 18.19 40.1432 18.1748 40.1589 18.1591L39.4517 17.452ZM40.1717 18.188C40.1845 18.188 40.1901 18.1893 40.1902 18.1893C40.1904 18.1893 40.1898 18.1892 40.1886 18.1888C40.1874 18.1884 40.1861 18.1879 40.1849 18.1873C40.1822 18.1859 40.1826 18.1857 40.1865 18.1888C40.1906 18.1921 40.2001 18.2005 40.2138 18.2172L41.7617 16.9508C41.3632 16.4637 40.8072 16.188 40.1717 16.188V18.188ZM40.1965 18.1954C40.2377 18.2488 40.2997 18.3678 40.2997 18.616H42.2997C42.2997 18.0242 42.1458 17.4472 41.779 16.9726L40.1965 18.1954ZM40.2997 18.616C40.2997 19.0334 40.1793 19.3753 39.9478 19.684L41.5478 20.884C42.0362 20.2327 42.2997 19.4706 42.2997 18.616H40.2997ZM39.9649 19.6618C39.7358 19.9501 39.417 20.1664 38.9706 20.2952L39.5249 22.2168C40.3265 21.9856 41.0157 21.5539 41.5306 20.9062L39.9649 19.6618ZM40.2477 21.256V20.464H38.2477V21.256H40.2477ZM39.5951 21.4017C40.0789 21.2225 40.4953 20.9321 40.8326 20.5416L39.3189 19.2344C39.2002 19.3719 39.0646 19.4655 38.9004 19.5263L39.5951 21.4017ZM40.8757 20.488C41.1994 20.0564 41.3878 19.5746 41.3878 19.036H39.3878C39.3878 19.0734 39.3841 19.1436 39.2757 19.288L40.8757 20.488ZM40.0715 18.0873C40.0695 18.088 40.0701 18.0877 40.0725 18.0871C40.0749 18.0865 40.0779 18.0858 40.0814 18.0851C40.0848 18.0845 40.0874 18.0842 40.0891 18.084C40.0907 18.0839 40.0903 18.084 40.0877 18.084V20.084C40.3514 20.084 40.5558 20.0341 40.704 19.9847L40.0715 18.0873ZM40.0877 18.084C40.0827 18.084 40.0843 18.0836 40.0912 18.0849C40.0982 18.0863 40.1073 18.0889 40.1171 18.0931C40.1269 18.0972 40.134 18.1015 40.1379 18.1042C40.1417 18.1068 40.1405 18.1065 40.1349 18.1009L38.7206 19.5151C39.079 19.8735 39.5459 20.084 40.0877 20.084V18.084ZM40.1349 18.1009C40.1373 18.1034 40.1422 18.1088 40.1478 18.1174C40.1534 18.1259 40.1578 18.1348 40.161 18.1429C40.1676 18.16 40.1637 18.1613 40.1637 18.136H38.1637C38.1637 18.63 38.3296 19.124 38.7206 19.5151L40.1349 18.1009ZM40.1637 18.136C40.1637 18.1037 40.1689 18.1097 40.1574 18.1371C40.1519 18.1501 40.1442 18.1641 40.1345 18.1774C40.1249 18.1906 40.1159 18.1996 40.1103 18.2046L38.7932 16.6994C38.3549 17.083 38.1637 17.6011 38.1637 18.136H40.1637ZM40.1589 18.1591C40.1523 18.1657 40.1432 18.1732 40.1323 18.1801C40.1215 18.1869 40.1126 18.1908 40.1075 18.1926C40.0979 18.1961 40.1141 18.188 40.1717 18.188V16.188C39.6749 16.188 39.1555 16.334 38.7446 16.7449L40.1589 18.1591ZM51.5358 10.924V9.924C50.9835 9.924 50.5358 10.3717 50.5358 10.924H51.5358ZM53.9357 10.924V11.924C54.3065 11.924 54.6469 11.7188 54.82 11.3909C54.9932 11.063 54.9707 10.6662 54.7616 10.36L53.9357 10.924ZM52.8918 9.592L52.457 8.69145C52.1729 8.82861 51.9701 9.09183 51.9101 9.40156C51.85 9.71129 51.9396 10.0312 52.1518 10.2647L52.8918 9.592ZM53.9357 9.088L54.6721 8.41137C54.3738 8.08674 53.898 7.99577 53.501 8.18745L53.9357 9.088ZM55.0877 10.564L55.541 11.4554C55.7956 11.3259 55.9827 11.0937 56.0551 10.8174C56.1275 10.5411 56.0783 10.247 55.9198 10.0093L55.0877 10.564ZM54.3797 10.924L53.9265 10.0326C53.5142 10.2422 53.2995 10.7073 53.4073 11.157C53.5151 11.6068 53.9172 11.924 54.3797 11.924V10.924ZM56.7077 10.924V11.924C57.0538 11.924 57.3753 11.7451 57.5577 11.4509L56.7077 10.924ZM57.6798 9.028L58.0155 8.08605C57.5126 7.90679 56.9576 8.15421 56.7547 8.64808L57.6798 9.028ZM58.8918 9.46L59.7901 9.89921C59.9152 9.64341 59.9253 9.34643 59.8179 9.08274C59.7104 8.81904 59.4957 8.61365 59.2275 8.51805L58.8918 9.46ZM58.0158 10.924L57.2051 10.3385C56.9852 10.6429 56.9544 11.0449 57.1254 11.3793C57.2963 11.7136 57.6402 11.924 58.0158 11.924V10.924ZM60.1517 10.924H61.1517C61.1517 10.3717 60.704 9.924 60.1517 9.924V10.924ZM60.1517 16.144V17.144C60.704 17.144 61.1517 16.6963 61.1517 16.144H60.1517ZM56.4678 16.144V15.144C55.9155 15.144 55.4678 15.5917 55.4678 16.144H56.4678ZM56.4678 17.032H55.4678C55.4678 17.5843 55.9155 18.032 56.4678 18.032V17.032ZM61.2197 17.032H62.2197C62.2197 16.4797 61.772 16.032 61.2197 16.032V17.032ZM61.2197 18.208V19.208C61.772 19.208 62.2197 18.7603 62.2197 18.208H61.2197ZM56.4678 18.208V17.208C55.9155 17.208 55.4678 17.6557 55.4678 18.208H56.4678ZM56.4678 20.308V21.308C57.02 21.308 57.4678 20.8603 57.4678 20.308H56.4678ZM55.2197 20.308H54.2197C54.2197 20.8603 54.6675 21.308 55.2197 21.308V20.308ZM55.2197 18.208H56.2197C56.2197 17.6557 55.772 17.208 55.2197 17.208V18.208ZM50.4678 18.208H49.4678C49.4678 18.7603 49.9155 19.208 50.4678 19.208V18.208ZM50.4678 17.032V16.032C49.9155 16.032 49.4678 16.4797 49.4678 17.032H50.4678ZM55.2197 17.032V18.032C55.772 18.032 56.2197 17.5843 56.2197 17.032H55.2197ZM55.2197 16.144H56.2197C56.2197 15.5917 55.772 15.144 55.2197 15.144V16.144ZM51.5358 16.144H50.5358C50.5358 16.6963 50.9835 17.144 51.5358 17.144V16.144ZM58.9398 15.04V16.04C59.492 16.04 59.9398 15.5923 59.9398 15.04H58.9398ZM58.9398 14.044H59.9398C59.9398 13.4917 59.492 13.044 58.9398 13.044V14.044ZM56.4678 14.044V13.044C55.9155 13.044 55.4678 13.4917 55.4678 14.044H56.4678ZM56.4678 15.04H55.4678C55.4678 15.5923 55.9155 16.04 56.4678 16.04V15.04ZM55.2197 15.04V16.04C55.772 16.04 56.2197 15.5923 56.2197 15.04H55.2197ZM55.2197 14.044H56.2197C56.2197 13.4917 55.772 13.044 55.2197 13.044V14.044ZM52.7477 14.044V13.044C52.1955 13.044 51.7477 13.4917 51.7477 14.044H52.7477ZM52.7477 15.04H51.7477C51.7477 15.5923 52.1955 16.04 52.7477 16.04V15.04ZM52.7477 12.988H51.7477C51.7477 13.5403 52.1955 13.988 52.7477 13.988V12.988ZM55.2197 12.988V13.988C55.772 13.988 56.2197 13.5403 56.2197 12.988H55.2197ZM55.2197 12.016H56.2197C56.2197 11.4637 55.772 11.016 55.2197 11.016V12.016ZM52.7477 12.016V11.016C52.1955 11.016 51.7477 11.4637 51.7477 12.016H52.7477ZM56.4678 12.016V11.016C55.9155 11.016 55.4678 11.4637 55.4678 12.016H56.4678ZM56.4678 12.988H55.4678C55.4678 13.5403 55.9155 13.988 56.4678 13.988V12.988ZM58.9398 12.988V13.988C59.492 13.988 59.9398 13.5403 59.9398 12.988H58.9398ZM58.9398 12.016H59.9398C59.9398 11.4637 59.492 11.016 58.9398 11.016V12.016ZM51.5358 11.924H53.9357V9.924H51.5358V11.924ZM54.7616 10.36C54.4024 9.83408 54.026 9.35312 53.6317 8.91933L52.1518 10.2647C52.4775 10.6229 52.7971 11.0299 53.11 11.488L54.7616 10.36ZM53.3265 10.4926L54.3705 9.98855L53.501 8.18745L52.457 8.69145L53.3265 10.4926ZM53.1994 9.76463C53.5699 10.1678 53.9222 10.6185 54.2557 11.1187L55.9198 10.0093C55.5333 9.42948 55.1176 8.89624 54.6721 8.41137L53.1994 9.76463ZM54.6345 9.67261L53.9265 10.0326L54.833 11.8154L55.541 11.4554L54.6345 9.67261ZM54.3797 11.924H56.7077V9.924H54.3797V11.924ZM57.5577 11.4509C57.9568 10.8072 58.3065 10.1341 58.6048 9.40792L56.7547 8.64808C56.501 9.26585 56.2027 9.84084 55.8578 10.3971L57.5577 11.4509ZM57.344 9.96995L58.556 10.402L59.2275 8.51805L58.0155 8.08605L57.344 9.96995ZM57.9934 9.02079C57.7551 9.50816 57.4847 9.95135 57.2051 10.3385L58.8264 11.5095C59.1708 11.0326 59.5004 10.4918 59.7901 9.89921L57.9934 9.02079ZM58.0158 11.924H60.1517V9.924H58.0158V11.924ZM59.1517 10.924V16.144H61.1517V10.924H59.1517ZM60.1517 15.144H56.4678V17.144H60.1517V15.144ZM55.4678 16.144V17.032H57.4678V16.144H55.4678ZM56.4678 18.032H61.2197V16.032H56.4678V18.032ZM60.2197 17.032V18.208H62.2197V17.032H60.2197ZM61.2197 17.208H56.4678V19.208H61.2197V17.208ZM55.4678 18.208V20.308H57.4678V18.208H55.4678ZM56.4678 19.308H55.2197V21.308H56.4678V19.308ZM56.2197 20.308V18.208H54.2197V20.308H56.2197ZM55.2197 17.208H50.4678V19.208H55.2197V17.208ZM51.4678 18.208V17.032H49.4678V18.208H51.4678ZM50.4678 18.032H55.2197V16.032H50.4678V18.032ZM56.2197 17.032V16.144H54.2197V17.032H56.2197ZM55.2197 15.144H51.5358V17.144H55.2197V15.144ZM52.5358 16.144V10.924H50.5358V16.144H52.5358ZM59.9398 15.04V14.044H57.9398V15.04H59.9398ZM58.9398 13.044H56.4678V15.044H58.9398V13.044ZM55.4678 14.044V15.04H57.4678V14.044H55.4678ZM56.4678 16.04H58.9398V14.04H56.4678V16.04ZM56.2197 15.04V14.044H54.2197V15.04H56.2197ZM55.2197 13.044H52.7477V15.044H55.2197V13.044ZM51.7477 14.044V15.04H53.7477V14.044H51.7477ZM52.7477 16.04H55.2197V14.04H52.7477V16.04ZM52.7477 13.988H55.2197V11.988H52.7477V13.988ZM56.2197 12.988V12.016H54.2197V12.988H56.2197ZM55.2197 11.016H52.7477V13.016H55.2197V11.016ZM51.7477 12.016V12.988H53.7477V12.016H51.7477ZM55.4678 12.016V12.988H57.4678V12.016H55.4678ZM56.4678 13.988H58.9398V11.988H56.4678V13.988ZM59.9398 12.988V12.016H57.9398V12.988H59.9398ZM58.9398 11.016H56.4678V13.016H58.9398V11.016ZM68.4318 9.16H69.4318C69.4318 8.60771 68.984 8.16 68.4318 8.16V9.16ZM68.3478 11.86L67.3498 11.7956C67.3438 11.8894 67.351 11.9836 67.3712 12.0754L68.3478 11.86ZM73.4837 19.096L74.2796 19.7015C74.4508 19.4765 74.5187 19.1895 74.4666 18.9116C74.4145 18.6337 74.2471 18.3908 74.006 18.2432L73.4837 19.096ZM72.6437 20.2L72.085 21.0293C72.5245 21.3254 73.1187 21.2273 73.4396 20.8055L72.6437 20.2ZM67.8918 14.14L68.8312 13.7972C68.6848 13.3962 68.3001 13.1323 67.8732 13.1402C67.4464 13.1481 67.0717 13.426 66.9403 13.8322L67.8918 14.14ZM62.9598 20.224L62.1332 20.7868C62.4384 21.2351 63.0454 21.3584 63.5013 21.0647L62.9598 20.224ZM62.1917 19.096L61.6791 18.2374C61.4426 18.3786 61.2747 18.6112 61.2153 18.8803C61.1559 19.1494 61.2101 19.431 61.3652 19.6588L62.1917 19.096ZM67.1478 11.044L68.1474 11.0719C68.1476 11.0626 68.1478 11.0533 68.1478 11.044H67.1478ZM67.1598 9.16V8.16C66.6075 8.16 66.1598 8.60771 66.1598 9.16H67.1598ZM67.4318 9.16C67.4318 10.1931 67.3965 11.0716 67.3498 11.7956L69.3457 11.9244C69.395 11.1604 69.4318 10.2389 69.4318 9.16H67.4318ZM67.3712 12.0754C68.1252 15.4944 70.0037 18.1376 72.9615 19.9488L74.006 18.2432C71.5158 16.7184 69.9623 14.5376 69.3243 11.6446L67.3712 12.0754ZM72.6879 18.4905L71.8479 19.5945L73.4396 20.8055L74.2796 19.7015L72.6879 18.4905ZM73.2025 19.3707C71.132 17.9756 69.6822 16.1291 68.8312 13.7972L66.9523 14.4828C67.9494 17.2149 69.6675 19.4004 72.085 21.0293L73.2025 19.3707ZM66.9403 13.8322C66.2301 16.0275 64.7516 17.8801 62.4182 19.3833L63.5013 21.0647C66.1599 19.3519 67.9694 17.1485 68.8432 14.4478L66.9403 13.8322ZM63.7864 19.6612L63.0183 18.5332L61.3652 19.6588L62.1332 20.7868L63.7864 19.6612ZM62.7044 19.9546C66.1864 17.8758 68.041 14.8889 68.1474 11.0719L66.1481 11.0161C66.0625 14.0871 64.6291 16.4762 61.6791 18.2374L62.7044 19.9546ZM68.1478 11.044C68.1478 10.6469 68.1507 10.2937 68.1537 9.98107C68.1567 9.67084 68.1598 9.39416 68.1598 9.16H66.1598C66.1598 9.38184 66.1568 9.64516 66.1538 9.96193C66.1508 10.2763 66.1478 10.6371 66.1478 11.044H68.1478ZM67.1598 10.16H68.4318V8.16H67.1598V10.16ZM74.7798 10.936V9.936C74.2275 9.936 73.7798 10.3837 73.7798 10.936H74.7798ZM79.1598 10.936V11.936C79.4776 11.936 79.7766 11.7849 79.9651 11.5288C80.1535 11.2728 80.209 10.9425 80.1146 10.6389L79.1598 10.936ZM78.6077 9.412L78.446 8.42517C78.1431 8.47483 77.8797 8.66085 77.7317 8.92975C77.5837 9.19865 77.5674 9.52064 77.6874 9.80314L78.6077 9.412ZM80.0717 9.172L81.0247 8.8688C80.8742 8.3959 80.3997 8.10489 79.91 8.18517L80.0717 9.172ZM80.5638 10.936L79.5958 11.187C79.7101 11.628 80.1081 11.936 80.5638 11.936V10.936ZM84.9437 10.936H85.9437C85.9437 10.3837 85.496 9.936 84.9437 9.936V10.936ZM84.9437 12.148V13.148C85.496 13.148 85.9437 12.7003 85.9437 12.148H84.9437ZM74.7798 12.148H73.7798C73.7798 12.7003 74.2275 13.148 74.7798 13.148V12.148ZM74.3717 18.424V17.424C73.8195 17.424 73.3717 17.8717 73.3717 18.424H74.3717ZM80.2517 18.424V19.424C80.6488 19.424 81.0082 19.1891 81.1676 18.8256L80.2517 18.424ZM82.0638 12.64L82.3247 11.6746C82.0621 11.6037 81.7821 11.6427 81.549 11.7827C81.3158 11.9227 81.1498 12.1516 81.089 12.4166L82.0638 12.64ZM83.3958 13L84.3714 13.2194C84.4889 12.6968 84.1738 12.1744 83.6567 12.0346L83.3958 13ZM81.7038 18.424L80.7832 18.0335C80.6521 18.3423 80.6847 18.6963 80.8699 18.976C81.0551 19.2558 81.3683 19.424 81.7038 19.424V18.424ZM85.3518 18.424H86.3518C86.3518 17.8717 85.904 17.424 85.3518 17.424V18.424ZM85.3518 19.636V20.636C85.904 20.636 86.3518 20.1883 86.3518 19.636H85.3518ZM74.3717 19.636H73.3717C73.3717 20.1883 73.8195 20.636 74.3717 20.636V19.636ZM77.6598 12.616L78.6062 12.2932C78.4285 11.772 77.8628 11.4926 77.3409 11.6682L77.6598 12.616ZM79.0518 17.932L79.2923 18.9026C79.8129 18.7736 80.139 18.2568 80.0314 17.7313L79.0518 17.932ZM77.6958 18.268L76.7152 18.4641C76.7687 18.7319 76.9295 18.9662 77.1601 19.1125C77.3907 19.2587 77.6712 19.3043 77.9363 19.2386L77.6958 18.268ZM76.3397 13.06L76.0209 12.1122C75.4993 12.2876 75.2175 12.8517 75.3904 13.3742L76.3397 13.06ZM74.7798 11.936H79.1598V9.936H74.7798V11.936ZM80.1146 10.6389C79.9389 10.0742 79.7478 9.53784 79.5281 9.02086L77.6874 9.80314C77.8757 10.2462 78.0446 10.7178 78.2049 11.2331L80.1146 10.6389ZM78.7695 10.3988L80.2335 10.1588L79.91 8.18517L78.446 8.42517L78.7695 10.3988ZM79.1188 9.4752C79.2775 9.97403 79.4274 10.5376 79.5958 11.187L81.5317 10.685C81.3641 10.0384 81.202 9.42597 81.0247 8.8688L79.1188 9.4752ZM80.5638 11.936H84.9437V9.936H80.5638V11.936ZM83.9437 10.936V12.148H85.9437V10.936H83.9437ZM84.9437 11.148H74.7798V13.148H84.9437V11.148ZM75.7798 12.148V10.936H73.7798V12.148H75.7798ZM74.3717 19.424H80.2517V17.424H74.3717V19.424ZM81.1676 18.8256C81.8846 17.1904 82.5016 15.2061 83.0385 12.8634L81.089 12.4166C80.5699 14.6819 79.9869 16.5376 79.3359 18.0224L81.1676 18.8256ZM81.8028 13.6054L83.1348 13.9654L83.6567 12.0346L82.3247 11.6746L81.8028 13.6054ZM82.4201 12.7806C81.9745 14.7623 81.4273 16.5153 80.7832 18.0335L82.6243 18.8145C83.3242 17.1647 83.905 15.2937 84.3714 13.2194L82.4201 12.7806ZM81.7038 19.424H85.3518V17.424H81.7038V19.424ZM84.3518 18.424V19.636H86.3518V18.424H84.3518ZM85.3518 18.636H74.3717V20.636H85.3518V18.636ZM75.3717 19.636V18.424H73.3717V19.636H75.3717ZM76.7133 12.9388C77.2235 14.4347 77.6695 16.1672 78.0721 18.1327L80.0314 17.7313C79.618 15.7128 79.152 13.8933 78.6062 12.2932L76.7133 12.9388ZM78.8112 16.9614L77.4552 17.2974L77.9363 19.2386L79.2923 18.9026L78.8112 16.9614ZM78.6763 18.0719C78.3097 16.2387 77.8559 14.4586 77.2891 12.7458L75.3904 13.3742C75.9276 14.9974 76.3618 16.6973 76.7152 18.4641L78.6763 18.0719ZM76.6586 14.0078L77.9786 13.5638L77.3409 11.6682L76.0209 12.1122L76.6586 14.0078ZM91.0758 9.112V8.112C90.5235 8.112 90.0758 8.55971 90.0758 9.112H91.0758ZM92.3118 9.112H93.3118C93.3118 8.55971 92.864 8.112 92.3118 8.112V9.112ZM92.3118 12.172V13.172C92.864 13.172 93.3118 12.7243 93.3118 12.172H92.3118ZM91.0758 12.172H90.0758C90.0758 12.7243 90.5235 13.172 91.0758 13.172V12.172ZM88.3997 14.644H89.3997C89.3997 14.3463 89.2671 14.064 89.0378 13.874C88.8086 13.6841 88.5066 13.6061 88.2141 13.6614L88.3997 14.644ZM86.8757 14.932L85.9664 15.348C86.1577 15.7662 86.6096 16 87.0614 15.9146L86.8757 14.932ZM86.3597 13.804L86.205 12.8161C85.8958 12.8645 85.6271 13.0549 85.4789 13.3306C85.3307 13.6062 85.3202 13.9354 85.4504 14.22L86.3597 13.804ZM94.6517 11.14L95.1855 11.9856C95.4608 11.8119 95.6342 11.5151 95.6505 11.19C95.6668 10.865 95.5239 10.5523 95.2674 10.352L94.6517 11.14ZM93.4398 10.24L92.743 9.52272C92.5286 9.73092 92.4186 10.0241 92.4431 10.3219C92.4676 10.6197 92.6239 10.8909 92.8694 11.0614L93.4398 10.24ZM94.2797 9.424L94.8548 8.60591C94.4617 8.32956 93.9276 8.3719 93.583 8.70672L94.2797 9.424ZM97.3638 11.944L98.0757 12.6463C98.262 12.4574 98.3656 12.2023 98.3637 11.937C98.3619 11.6717 98.2547 11.4181 98.0658 11.2318L97.3638 11.944ZM96.4877 12.832L95.7529 13.5103C95.9383 13.7111 96.1979 13.8273 96.4712 13.8319C96.7445 13.8364 97.0077 13.7289 97.1997 13.5343L96.4877 12.832ZM95.5277 11.872L96.1967 11.1287C95.8548 10.8209 95.3469 10.7862 94.9662 11.0445L95.5277 11.872ZM91.9518 13.648L91.606 12.7097C91.1514 12.8772 90.8822 13.3466 90.9673 13.8236C91.0524 14.3006 91.4672 14.648 91.9518 14.648V13.648ZM95.9837 13.648H96.9837C96.9837 13.0957 96.536 12.648 95.9837 12.648V13.648ZM95.9837 20.224V21.224C96.536 21.224 96.9837 20.7763 96.9837 20.224H95.9837ZM94.7598 20.224H93.7598C93.7598 20.7763 94.2075 21.224 94.7598 21.224V20.224ZM94.7598 19.792H95.7598C95.7598 19.2397 95.312 18.792 94.7598 18.792V19.792ZM89.6117 19.792V18.792C89.0595 18.792 88.6117 19.2397 88.6117 19.792H89.6117ZM89.6117 20.248V21.248C90.164 21.248 90.6117 20.8003 90.6117 20.248H89.6117ZM88.3997 20.248H87.3997C87.3997 20.8003 87.8475 21.248 88.3997 21.248V20.248ZM89.6117 18.688H88.6117C88.6117 19.2403 89.0595 19.688 89.6117 19.688V18.688ZM94.7598 18.688V19.688C95.312 19.688 95.7598 19.2403 95.7598 18.688H94.7598ZM94.7598 17.968H95.7598C95.7598 17.4157 95.312 16.968 94.7598 16.968V17.968ZM89.6117 17.968V16.968C89.0595 16.968 88.6117 17.4157 88.6117 17.968H89.6117ZM89.6117 16.984H88.6117C88.6117 17.5363 89.0595 17.984 89.6117 17.984V16.984ZM94.7598 16.984V17.984C95.312 17.984 95.7598 17.5363 95.7598 16.984H94.7598ZM94.7598 16.336H95.7598C95.7598 15.7837 95.312 15.336 94.7598 15.336V16.336ZM89.6117 16.336V15.336C89.0595 15.336 88.6117 15.7837 88.6117 16.336H89.6117ZM89.6117 15.352H88.6117C88.6117 15.9043 89.0595 16.352 89.6117 16.352V15.352ZM94.7598 15.352V16.352C95.312 16.352 95.7598 15.9043 95.7598 15.352H94.7598ZM94.7598 14.692H95.7598C95.7598 14.1397 95.312 13.692 94.7598 13.692V14.692ZM89.6117 14.692V13.692C89.0595 13.692 88.6117 14.1397 88.6117 14.692H89.6117ZM89.2038 9.808L89.8688 9.06115C89.6655 8.88016 89.3972 8.78984 89.1259 8.81104C88.8545 8.83224 88.6035 8.96313 88.4308 9.17351L89.2038 9.808ZM90.0798 10.588L90.8585 11.2153C91.1929 10.8002 91.1429 10.1957 90.7448 9.84115L90.0798 10.588ZM87.4758 12.856L86.688 13.472C87.0037 13.8757 87.5735 13.9754 88.0075 13.7029L87.4758 12.856ZM86.7438 11.92L86.2231 11.0662C85.9795 11.2148 85.8109 11.4604 85.7599 11.7412C85.7088 12.022 85.7802 12.3112 85.956 12.536L86.7438 11.92ZM91.0758 10.112H92.3118V8.112H91.0758V10.112ZM91.3118 9.112V12.172H93.3118V9.112H91.3118ZM92.3118 11.172H91.0758V13.172H92.3118V11.172ZM92.0758 12.172V9.112H90.0758V12.172H92.0758ZM88.2141 13.6614L86.6901 13.9494L87.0614 15.9146L88.5854 15.6266L88.2141 13.6614ZM87.7851 14.516L87.2691 13.388L85.4504 14.22L85.9664 15.348L87.7851 14.516ZM86.5145 14.7919C90.1762 14.2183 93.1009 13.3016 95.1855 11.9856L94.118 10.2944C92.3626 11.4024 89.7433 12.2617 86.205 12.8161L86.5145 14.7919ZM95.2674 10.352C94.8756 10.0459 94.4634 9.7334 94.0101 9.41863L92.8694 11.0614C93.2801 11.3466 93.6599 11.6341 94.0361 11.928L95.2674 10.352ZM94.1365 10.9573L94.9765 10.1413L93.583 8.70672L92.743 9.52272L94.1365 10.9573ZM93.7047 10.2421C94.8841 11.0712 95.8707 11.8764 96.6618 12.6562L98.0658 11.2318C97.1768 10.3556 96.0993 9.48076 94.8548 8.60591L93.7047 10.2421ZM96.6518 11.2417L95.7758 12.1297L97.1997 13.5343L98.0757 12.6463L96.6518 11.2417ZM97.2226 12.1537C96.9248 11.8311 96.5893 11.482 96.1967 11.1287L94.8588 12.6153C95.1862 12.91 95.4747 13.2089 95.7529 13.5103L97.2226 12.1537ZM94.9662 11.0445C94.041 11.6723 92.9179 12.2263 91.606 12.7097L92.2975 14.5863C93.7216 14.0617 94.9985 13.4397 96.0892 12.6995L94.9662 11.0445ZM91.9518 14.648H95.9837V12.648H91.9518V14.648ZM94.9837 13.648V20.224H96.9837V13.648H94.9837ZM95.9837 19.224H94.7598V21.224H95.9837V19.224ZM95.7598 20.224V19.792H93.7598V20.224H95.7598ZM94.7598 18.792H89.6117V20.792H94.7598V18.792ZM88.6117 19.792V20.248H90.6117V19.792H88.6117ZM89.6117 19.248H88.3997V21.248H89.6117V19.248ZM89.3997 20.248V14.644H87.3997V20.248H89.3997ZM89.6117 19.688H94.7598V17.688H89.6117V19.688ZM95.7598 18.688V17.968H93.7598V18.688H95.7598ZM94.7598 16.968H89.6117V18.968H94.7598V16.968ZM88.6117 17.968V18.688H90.6117V17.968H88.6117ZM89.6117 17.984H94.7598V15.984H89.6117V17.984ZM95.7598 16.984V16.336H93.7598V16.984H95.7598ZM94.7598 15.336H89.6117V17.336H94.7598V15.336ZM88.6117 16.336V16.984H90.6117V16.336H88.6117ZM89.6117 16.352H94.7598V14.352H89.6117V16.352ZM95.7598 15.352V14.692H93.7598V15.352H95.7598ZM94.7598 13.692H89.6117V15.692H94.7598V13.692ZM88.6117 14.692V15.352H90.6117V14.692H88.6117ZM88.5387 10.5548L89.4147 11.3348L90.7448 9.84115L89.8688 9.06115L88.5387 10.5548ZM89.301 9.96067C88.6838 10.7268 87.8954 11.4117 86.944 12.0091L88.0075 13.7029C89.1201 13.0043 90.0837 12.1772 90.8585 11.2153L89.301 9.96067ZM88.2635 12.24L87.5315 11.304L85.956 12.536L86.688 13.472L88.2635 12.24ZM87.2644 12.7738C88.3386 12.1188 89.2414 11.3381 89.9767 10.4425L88.4308 9.17351C87.8461 9.88585 87.1169 10.5212 86.2231 11.0662L87.2644 12.7738ZM100.628 10.432V9.432C100.355 9.432 100.095 9.54304 99.9064 9.73947L100.628 10.432ZM101.684 10.432H102.684C102.684 9.87971 102.236 9.432 101.684 9.432V10.432ZM101.684 19V20C102.236 20 102.684 19.5523 102.684 19H101.684ZM100.28 19H99.2797C99.2797 19.5523 99.7275 20 100.28 20V19ZM100.28 12.124H101.28C101.28 11.7284 101.047 11.37 100.685 11.2097C100.323 11.0495 99.901 11.1175 99.6079 11.3833L100.28 12.124ZM98.3238 13.168H97.3238C97.3238 13.4821 97.4714 13.778 97.7224 13.9669C97.9733 14.1559 98.2985 14.2159 98.6004 14.129L98.3238 13.168ZM98.3238 11.776L98.0812 10.8059C97.636 10.9171 97.3238 11.3171 97.3238 11.776H98.3238ZM99.5478 11.272L100.033 12.1462C100.045 12.1394 100.057 12.1325 100.069 12.1253L99.5478 11.272ZM100.628 11.432H101.684V9.432H100.628V11.432ZM100.684 10.432V19H102.684V10.432H100.684ZM101.684 18H100.28V20H101.684V18ZM101.28 19V12.124H99.2797V19H101.28ZM99.6079 11.3833C99.2222 11.7331 98.7163 12.0144 98.0471 12.207L98.6004 14.129C99.5152 13.8656 100.305 13.4509 100.952 12.8647L99.6079 11.3833ZM99.3238 13.168V11.776H97.3238V13.168H99.3238ZM98.5663 12.7461C99.0531 12.6244 99.543 12.4186 100.033 12.1462L99.0621 10.3978C98.6885 10.6054 98.3624 10.7356 98.0812 10.8059L98.5663 12.7461ZM100.069 12.1253C100.553 11.8299 100.986 11.5026 101.349 11.1245L99.9064 9.73947C99.6933 9.96139 99.4069 10.1861 99.0263 10.4187L100.069 12.1253ZM108.706 11.512L109.538 10.9573L109.536 10.9546L108.706 11.512ZM108.706 17.92L109.532 18.483L109.538 18.4747L108.706 17.92ZM104.026 17.92L103.194 18.4747L104.026 17.92ZM104.026 11.512L104.858 12.0667L104.861 12.0612L104.026 11.512ZM104.926 12.592L105.863 12.9408L105.867 12.9302L104.926 12.592ZM104.926 16.84L103.986 17.1817L103.986 17.1829L104.926 16.84ZM107.806 16.84L108.74 17.196C108.742 17.1913 108.744 17.1865 108.745 17.1817L107.806 16.84ZM107.806 12.592L108.743 12.2433L108.742 12.2409L107.806 12.592ZM106.366 11.264C107.031 11.264 107.499 11.5083 107.875 12.0694L109.536 10.9546C108.785 9.8357 107.692 9.264 106.366 9.264V11.264ZM107.874 12.0667C108.256 12.6397 108.498 13.4913 108.498 14.716H110.498C110.498 13.2527 110.212 11.9683 109.538 10.9573L107.874 12.0667ZM108.498 14.716C108.498 15.9407 108.256 16.7923 107.874 17.3653L109.538 18.4747C110.212 17.4637 110.498 16.1793 110.498 14.716H108.498ZM107.879 17.357C107.498 17.9173 107.024 18.168 106.366 18.168V20.168C107.699 20.168 108.786 19.5787 109.532 18.483L107.879 17.357ZM106.366 18.168C105.691 18.168 105.224 17.9145 104.858 17.3653L103.194 18.4747C103.931 19.5815 105.024 20.168 106.366 20.168V18.168ZM104.858 17.3653C104.476 16.7923 104.234 15.9407 104.234 14.716H102.234C102.234 16.1793 102.52 17.4637 103.194 18.4747L104.858 17.3653ZM104.234 14.716C104.234 13.4913 104.476 12.6397 104.858 12.0667L103.194 10.9573C102.52 11.9683 102.234 13.2527 102.234 14.716H104.234ZM104.861 12.0612C105.223 11.5111 105.684 11.264 106.366 11.264V9.264C105.031 9.264 103.932 9.83295 103.19 10.9628L104.861 12.0612ZM106.366 10.452C105.831 10.452 105.314 10.602 104.874 10.9484C104.446 11.2853 104.166 11.7492 103.985 12.2538L105.867 12.9302C105.961 12.6668 106.059 12.5607 106.111 12.5196C106.152 12.488 106.216 12.452 106.366 12.452V10.452ZM103.988 12.2433C103.737 12.9192 103.638 13.7627 103.638 14.716H105.638C105.638 13.8693 105.73 13.2968 105.863 12.9407L103.988 12.2433ZM103.638 14.716C103.638 15.6609 103.738 16.4995 103.986 17.1817L105.865 16.4983C105.73 16.1245 105.638 15.5471 105.638 14.716H103.638ZM103.986 17.1829C104.168 17.6803 104.447 18.1405 104.871 18.4768C105.307 18.823 105.824 18.98 106.366 18.98V16.98C106.223 16.98 106.158 16.945 106.114 16.9102C106.058 16.8655 105.959 16.7557 105.865 16.4971L103.986 17.1829ZM106.366 18.98C106.906 18.98 107.418 18.8204 107.851 18.4768C108.271 18.1438 108.552 17.6888 108.74 17.196L106.871 16.484C106.771 16.7472 106.668 16.8622 106.608 16.9102C106.561 16.9476 106.497 16.98 106.366 16.98V18.98ZM108.745 17.1817C108.994 16.4995 109.094 15.6609 109.094 14.716H107.094C107.094 15.5471 107.002 16.1245 106.866 16.4983L108.745 17.1817ZM109.094 14.716C109.094 13.7627 108.994 12.9192 108.743 12.2433L106.868 12.9407C107.001 13.2968 107.094 13.8693 107.094 14.716H109.094ZM108.742 12.2409C108.554 11.7407 108.272 11.282 107.848 10.9484C107.412 10.6045 106.899 10.452 106.366 10.452V12.452C106.504 12.452 106.568 12.4855 106.611 12.5196C106.667 12.564 106.769 12.6753 106.869 12.9431L108.742 12.2409ZM114.377 10.432V9.432C114.068 9.432 113.776 9.57492 113.587 9.81915L114.377 10.432ZM115.661 10.432H116.661C116.661 9.87971 116.213 9.432 115.661 9.432V10.432ZM115.661 16.048H114.661C114.661 16.6003 115.109 17.048 115.661 17.048V16.048ZM116.933 16.048H117.933C117.933 15.4957 117.485 15.048 116.933 15.048V16.048ZM116.933 17.164V18.164C117.485 18.164 117.933 17.7163 117.933 17.164H116.933ZM115.661 17.164V16.164C115.109 16.164 114.661 16.6117 114.661 17.164H115.661ZM115.661 19V20C116.213 20 116.661 19.5523 116.661 19H115.661ZM114.329 19H113.329C113.329 19.5523 113.777 20 114.329 20V19ZM114.329 17.164H115.329C115.329 16.6117 114.881 16.164 114.329 16.164V17.164ZM110.189 17.164H109.189C109.189 17.7163 109.637 18.164 110.189 18.164V17.164ZM110.189 15.832L109.399 15.2192C109.263 15.3945 109.189 15.6101 109.189 15.832H110.189ZM114.293 12.208V11.208C113.983 11.208 113.691 11.3517 113.501 11.597L114.293 12.208ZM111.329 16.048L110.537 15.437C110.304 15.7388 110.263 16.1468 110.431 16.489C110.6 16.8312 110.948 17.048 111.329 17.048V16.048ZM114.329 16.048V17.048C114.881 17.048 115.329 16.6003 115.329 16.048H114.329ZM114.329 12.208H115.329C115.329 11.6557 114.881 11.208 114.329 11.208V12.208ZM114.377 11.432H115.661V9.432H114.377V11.432ZM114.661 10.432V16.048H116.661V10.432H114.661ZM115.661 17.048H116.933V15.048H115.661V17.048ZM115.933 16.048V17.164H117.933V16.048H115.933ZM116.933 16.164H115.661V18.164H116.933V16.164ZM114.661 17.164V19H116.661V17.164H114.661ZM115.661 18H114.329V20H115.661V18ZM115.329 19V17.164H113.329V19H115.329ZM114.329 16.164H110.189V18.164H114.329V16.164ZM111.189 17.164V15.832H109.189V17.164H111.189ZM110.979 16.4448L115.167 11.0448L113.587 9.81915L109.399 15.2192L110.979 16.4448ZM113.501 11.597L110.537 15.437L112.121 16.659L115.085 12.819L113.501 11.597ZM111.329 17.048H114.329V15.048H111.329V17.048ZM115.329 16.048V12.208H113.329V16.048H115.329ZM114.329 11.208H114.293V13.208H114.329V11.208ZM118.908 9.688V8.688C118.356 8.688 117.908 9.13572 117.908 9.688H118.908ZM127.308 9.688H128.308C128.308 9.13572 127.861 8.688 127.308 8.688V9.688ZM127.308 10.888V11.888C127.861 11.888 128.308 11.4403 128.308 10.888H127.308ZM118.908 10.888H117.908C117.908 11.4403 118.356 11.888 118.908 11.888V10.888ZM117.972 13.204V12.204C117.42 12.204 116.972 12.6517 116.972 13.204H117.972ZM128.352 13.204H129.352C129.352 12.6517 128.905 12.204 128.352 12.204V13.204ZM128.352 14.416V15.416C128.905 15.416 129.352 14.9683 129.352 14.416H128.352ZM125.172 14.416V13.416C124.62 13.416 124.172 13.8637 124.172 14.416H125.172ZM127.236 18.664L126.32 18.2632C126.316 18.2729 126.312 18.2827 126.308 18.2926L127.236 18.664ZM127.404 16.912L127.708 15.9593C127.408 15.8636 127.081 15.9147 126.824 16.0973C126.568 16.2799 126.412 16.5726 126.405 16.8873L127.404 16.912ZM128.532 17.272L129.53 17.3338C129.559 16.8766 129.273 16.4586 128.836 16.3193L128.532 17.272ZM128.076 19.684L128.82 20.353C128.825 20.347 128.83 20.3409 128.836 20.3348L128.076 19.684ZM123.948 14.416H124.948C124.948 13.8637 124.501 13.416 123.948 13.416V14.416ZM122.172 14.416V13.416C121.62 13.416 121.172 13.8637 121.172 14.416H122.172ZM122.172 14.656L123.171 14.6953C123.172 14.6822 123.172 14.6691 123.172 14.656H122.172ZM121.164 18.316L121.978 18.8972C121.984 18.8893 121.989 18.8813 121.995 18.8732L121.164 18.316ZM118.26 20.284L117.417 20.8209C117.666 21.2122 118.151 21.3809 118.589 21.2284L118.26 20.284ZM117.588 19.228L117.256 18.2847C116.969 18.3859 116.743 18.613 116.643 18.9012C116.543 19.1895 116.581 19.5075 116.745 19.7649L117.588 19.228ZM120.204 17.524L121.032 18.0855C121.04 18.0727 121.049 18.0597 121.057 18.0466L120.204 17.524ZM120.948 14.656L121.947 14.6968C121.948 14.6832 121.948 14.6696 121.948 14.656H120.948ZM120.948 14.416H121.948C121.948 13.8637 121.501 13.416 120.948 13.416V14.416ZM117.972 14.416H116.972C116.972 14.9683 117.42 15.416 117.972 15.416V14.416ZM118.908 10.688H127.308V8.688H118.908V10.688ZM126.308 9.688V10.888H128.308V9.688H126.308ZM127.308 9.888H118.908V11.888H127.308V9.888ZM119.908 10.888V9.688H117.908V10.888H119.908ZM117.972 14.204H128.352V12.204H117.972V14.204ZM127.352 13.204V14.416H129.352V13.204H127.352ZM128.352 13.416H125.172V15.416H128.352V13.416ZM124.172 14.416V18.472H126.172V14.416H124.172ZM124.172 18.472C124.172 18.7445 124.226 19.1419 124.517 19.4774C124.832 19.8415 125.254 19.94 125.58 19.94V17.94C125.631 17.94 125.849 17.9605 126.029 18.1686C126.184 18.3481 126.172 18.5115 126.172 18.472H124.172ZM125.58 19.94H126.9V17.94H125.58V19.94ZM126.9 19.94C127.587 19.94 127.998 19.4532 128.165 19.0354L126.308 18.2926C126.318 18.2665 126.358 18.1803 126.463 18.0946C126.579 18.0002 126.735 17.94 126.9 17.94V19.94ZM128.152 19.0648C128.267 18.8024 128.311 18.4528 128.338 18.1775C128.37 17.8515 128.392 17.4349 128.404 16.9367L126.405 16.8873C126.393 17.3611 126.373 17.7245 126.347 17.9835C126.335 18.1134 126.322 18.2055 126.311 18.2659C126.297 18.3409 126.294 18.3227 126.32 18.2632L128.152 19.0648ZM127.1 17.8647L128.228 18.2247L128.836 16.3193L127.708 15.9593L127.1 17.8647ZM127.534 17.2102C127.493 17.8685 127.437 18.3617 127.371 18.7051C127.339 18.8769 127.307 18.9912 127.283 19.0604C127.254 19.1439 127.254 19.1072 127.317 19.0332L128.836 20.3348C129.007 20.1348 129.107 19.9031 129.17 19.7226C129.239 19.5278 129.292 19.3091 129.336 19.0789C129.424 18.6183 129.487 18.0315 129.53 17.3338L127.534 17.2102ZM127.333 19.015C127.328 19.0206 127.323 19.0251 127.307 19.0315C127.288 19.0395 127.234 19.056 127.128 19.056V21.056C127.773 21.056 128.378 20.8436 128.82 20.353L127.333 19.015ZM127.128 19.056H125.22V21.056H127.128V19.056ZM125.22 19.056C124.959 19.056 124.946 18.9901 124.986 19.0323C125.019 19.0666 124.948 19.0301 124.948 18.736H122.948C122.948 19.3179 123.087 19.9414 123.543 20.4167C124.006 20.8999 124.629 21.056 125.22 21.056V19.056ZM124.948 18.736V14.416H122.948V18.736H124.948ZM123.948 13.416H122.172V15.416H123.948V13.416ZM121.172 14.416V14.656H123.172V14.416H121.172ZM121.173 14.6167C121.118 16.0256 120.81 17.0497 120.334 17.7588L121.995 18.8732C122.743 17.7583 123.107 16.3344 123.171 14.6953L121.173 14.6167ZM120.351 17.7348C119.905 18.3584 119.145 18.9172 117.931 19.3396L118.589 21.2284C120.064 20.7148 121.223 19.9536 121.978 18.8972L120.351 17.7348ZM119.104 19.7471L118.432 18.6911L116.745 19.7649L117.417 20.8209L119.104 19.7471ZM117.92 20.1713C119.305 19.684 120.402 19.0129 121.032 18.0855L119.377 16.9625C119.094 17.3791 118.463 17.86 117.256 18.2847L117.92 20.1713ZM121.057 18.0466C121.63 17.1108 121.895 15.9792 121.947 14.6968L119.949 14.6152C119.905 15.6848 119.69 16.4492 119.352 17.0014L121.057 18.0466ZM121.948 14.656V14.416H119.948V14.656H121.948ZM120.948 13.416H117.972V15.416H120.948V13.416ZM118.972 14.416V13.204H116.972V14.416H118.972Z" fill="#FFF2F4" mask="url(#path-2-outside-1_8424_678)"/>
<defs>
<linearGradient id="paint0_linear_8424_678" x1="-9.37162" y1="-10.5" x2="198.307" y2="2.63904" gradientUnits="userSpaceOnUse">
<stop stop-color="#FF3BDB"/>
<stop offset="0.54" stop-color="#FFB171"/>
<stop offset="0.771136" stop-color="#FE4F80"/>
</linearGradient>
<linearGradient id="paint1_linear_8424_678" x1="0" y1="14.5" x2="146" y2="14.5" gradientUnits="userSpaceOnUse">
<stop stop-color="#AFE5F4"/>
<stop offset="0.125" stop-color="#CBC1F6"/>
<stop offset="0.285" stop-color="#E4C2EF"/>
<stop offset="0.415" stop-color="#FFC0E3"/>
<stop offset="0.622346" stop-color="#EAEBDE"/>
<stop offset="0.775" stop-color="#C9F6F1"/>
<stop offset="0.965" stop-color="#ACE9FF"/>
</linearGradient>
<linearGradient id="paint2_linear_8424_678" x1="69.0541" y1="-5.5" x2="70.5745" y2="32.4984" gradientUnits="userSpaceOnUse">
<stop stop-color="white"/>
<stop offset="0.982463" stop-color="white" stop-opacity="0"/>
</linearGradient>
</defs>
</svg>
