<svg width="183" height="40" viewBox="0 0 183 40" fill="none" xmlns="http://www.w3.org/2000/svg">
<g clip-path="url(#clip0_3537_3957)">
<g clip-path="url(#clip1_3537_3957)">
<path d="M63.5544 21.7999C63.5053 22.3367 63.4097 22.8682 63.2687 23.3885C63.13 23.893 62.9385 24.3814 62.6972 24.8456C62.4432 25.3352 62.1304 25.7919 61.7658 26.2056C60.9498 27.19 59.9171 27.9723 58.7486 28.4914C57.5451 29.0083 56.2471 29.269 54.9372 29.2571C54.1049 29.2615 53.2759 29.15 52.4744 28.9256C51.707 28.7052 50.9714 28.3863 50.2858 27.9771C49.6146 27.5765 48.9997 27.0884 48.4572 26.5256C47.917 25.967 47.4487 25.3431 47.0629 24.6685C46.6707 23.9854 46.371 23.2533 46.1715 22.4914C45.9603 21.7109 45.8546 20.9056 45.8572 20.0971C45.854 18.4504 46.2752 16.8307 47.0801 15.3942C47.8519 14.0151 48.9759 12.8655 50.3372 12.0628C51.031 11.6579 51.7743 11.3448 52.5487 11.1314C53.3644 10.9094 54.2062 10.798 55.0515 10.7999C55.8756 10.7959 56.6971 10.8937 57.4972 11.0914C58.2515 11.2794 58.9791 11.5616 59.6629 11.9314C60.3348 12.3005 60.957 12.7536 61.5144 13.2799C62.0719 13.8169 62.5647 14.4171 62.9829 15.0685L61.4229 15.9942C60.7255 14.9161 59.7839 14.0176 58.6744 13.3714C57.5376 12.7346 56.2514 12.413 54.9487 12.4399C54.2908 12.4367 53.636 12.5311 53.0058 12.7199C52.4011 12.9007 51.8242 13.1642 51.2915 13.5028C50.7596 13.8429 50.272 14.2479 49.8401 14.7085C49.3946 15.1717 49.0105 15.6902 48.6972 16.2514C48.382 16.8171 48.1382 17.4198 47.9715 18.0456C47.7997 18.6828 47.7132 19.34 47.7144 19.9999C47.7121 20.6731 47.7986 21.3436 47.9715 21.9942C48.1371 22.6222 48.3809 23.2269 48.6972 23.7942C49.0107 24.3518 49.3948 24.8665 49.8401 25.3256C50.2809 25.787 50.7804 26.1886 51.3258 26.5199C51.8771 26.8551 52.471 27.1146 53.0915 27.2914C53.7381 27.4763 54.4076 27.5687 55.0801 27.5656C55.9187 27.5666 56.7514 27.4256 57.5429 27.1485C58.3008 26.8826 59.0023 26.4776 59.6115 25.9542C60.2136 25.4315 60.7084 24.7969 61.0686 24.0856C61.4463 23.322 61.6549 22.4858 61.6801 21.6342H55.7601V20.0456H63.6115C63.6227 20.631 63.6036 21.2165 63.5544 21.7999Z" fill="black"/>
<path d="M75.0344 28.9428V26.9485H74.9829C74.8029 27.3077 74.5589 27.6311 74.2629 27.9028C73.965 28.1844 73.6306 28.4247 73.2686 28.6171C72.8915 28.8109 72.4925 28.9586 72.0801 29.0571C71.672 29.1547 71.254 29.2046 70.8344 29.2057C70.0487 29.2172 69.2695 29.0614 68.5486 28.7485C67.8759 28.4543 67.2724 28.0221 66.7772 27.48C66.2761 26.9218 65.8879 26.2717 65.6344 25.5657C65.355 24.7987 65.2156 23.9877 65.2229 23.1714C65.2185 22.38 65.3559 21.5943 65.6286 20.8514C65.8842 20.1566 66.2724 19.5181 66.7715 18.9714C67.2693 18.4337 67.8723 18.0038 68.5429 17.7085C69.2638 17.3951 70.0427 17.2373 70.8286 17.2457C71.248 17.2442 71.6662 17.2922 72.0744 17.3885C72.4699 17.4865 72.8532 17.6283 73.2172 17.8114C73.5786 17.9938 73.9147 18.2224 74.2172 18.4914C74.5172 18.7579 74.7753 19.0681 74.9829 19.4114H75.0286V17.5142H76.7429V28.9428H75.0344ZM75.1029 23.08C75.1087 22.4957 75.01 21.9152 74.8115 21.3657C74.6204 20.8528 74.3356 20.38 73.9715 19.9714C73.6027 19.5688 73.1554 19.246 72.6572 19.0228C72.1168 18.7868 71.5326 18.668 70.9429 18.6742C70.3525 18.6656 69.7673 18.7866 69.2286 19.0285C68.7355 19.2542 68.2954 19.5813 67.9372 19.9885C67.5759 20.4092 67.3003 20.8964 67.1258 21.4228C66.9391 21.9906 66.8464 22.5851 66.8515 23.1828C66.8506 23.7666 66.9492 24.3464 67.1429 24.8971C67.3347 25.4269 67.6191 25.9183 67.9829 26.3485C68.3512 26.7687 68.8001 27.1107 69.3029 27.3542C69.8383 27.6085 70.4246 27.7375 71.0172 27.7314C71.5958 27.745 72.1697 27.6247 72.694 27.3799C73.2184 27.1351 73.6791 26.7723 74.0401 26.32C74.3948 25.875 74.6624 25.3671 74.8286 24.8228C75.0075 24.259 75.1 23.6714 75.1029 23.08Z" fill="black"/>
<path d="M93.177 28.9429V21.7829C93.2489 20.9478 93.0485 20.1118 92.6056 19.4001C92.3818 19.1451 92.1013 18.9462 91.7868 18.8192C91.4722 18.6921 91.1322 18.6406 90.7941 18.6686C90.4111 18.6406 90.0273 18.7128 89.6806 18.8781C89.3339 19.0434 89.0363 19.2962 88.817 19.6115C88.3454 20.4371 88.125 21.3824 88.1827 22.3315V28.9429H86.4684V22.1544C86.473 21.6317 86.4309 21.1096 86.3427 20.5944C86.2749 20.2054 86.1333 19.833 85.9256 19.4972C85.7425 19.2144 85.4801 18.9918 85.1713 18.8572C84.8099 18.7056 84.4201 18.6335 84.0284 18.6458C83.6492 18.6289 83.2723 18.7144 82.9375 18.8934C82.6027 19.0723 82.3222 19.3382 82.1256 19.6629C81.625 20.6108 81.3976 21.6791 81.4684 22.7486V28.9429H79.7542V17.5144H81.4684V18.9601H81.5141C81.7859 18.4306 82.2019 17.9888 82.7141 17.6858C83.2704 17.3814 83.8974 17.2296 84.5313 17.2458C85.212 17.2385 85.8824 17.412 86.4741 17.7486C87.0989 18.1204 87.5923 18.6777 87.8856 19.3429C88.1729 18.7005 88.6442 18.1576 89.2399 17.7829C89.8669 17.4122 90.5859 17.226 91.3141 17.2458C91.8237 17.207 92.3354 17.2846 92.8106 17.4727C93.2858 17.6608 93.712 17.9545 94.057 18.3315C94.7044 19.2292 95.0195 20.3241 94.9484 21.4286V28.9429H93.177Z" fill="black"/>
<path d="M98.7202 23.4858C98.7281 24.1028 98.8501 24.7131 99.0802 25.2858C99.2855 25.7989 99.5948 26.2639 99.9888 26.6515C100.371 27.029 100.826 27.3246 101.326 27.5201C101.846 27.727 102.401 27.8317 102.96 27.8286C103.749 27.8472 104.526 27.6282 105.189 27.2001C105.837 26.7561 106.374 26.1697 106.76 25.4858L108.206 25.8686C107.977 26.3843 107.67 26.8622 107.297 27.2858C106.936 27.6946 106.514 28.0453 106.046 28.3258C105.574 28.6114 105.064 28.8288 104.532 28.9715C103.972 29.1172 103.396 29.1902 102.817 29.1886C101.998 29.2004 101.185 29.0428 100.429 28.7258C99.7395 28.4323 99.1183 27.9997 98.604 27.4549C98.0897 26.9102 97.6935 26.2651 97.4402 25.5601C97.1618 24.8066 97.0224 24.009 97.0288 23.2058C97.0229 22.4101 97.1623 21.62 97.4402 20.8743C97.7104 20.1824 98.1099 19.5483 98.6173 19.0058C99.1256 18.4604 99.7401 18.0248 100.423 17.7258C101.158 17.4058 101.953 17.2461 102.754 17.2572C103.581 17.2415 104.401 17.3951 105.166 17.7086C105.859 17.9868 106.481 18.4186 106.983 18.9715C107.483 19.5441 107.86 20.2131 108.092 20.9372C108.351 21.7611 108.473 22.6222 108.452 23.4858H98.7202ZM106.297 20.8229C106.111 20.3916 105.852 19.9954 105.532 19.6515C105.211 19.3143 104.821 19.0511 104.389 18.8801C103.875 18.6823 103.328 18.5872 102.777 18.6001C102.253 18.594 101.733 18.6911 101.246 18.8858C100.795 19.0659 100.382 19.3296 100.029 19.6629C99.6863 19.9937 99.4022 20.3801 99.1888 20.8058C98.9751 21.2634 98.8418 21.7544 98.7945 22.2572H106.737C106.647 21.7635 106.5 21.2821 106.297 20.8229Z" fill="black"/>
<path d="M128.56 28.9429L125.897 15.0915H125.84L120.04 29.4172H119.611L113.897 15.0915H113.84L111.131 28.9429H109.314L112.983 10.5886H113.937L119.886 25.5029L125.908 10.5886H126.88L130.457 28.9429H128.56Z" fill="black"/>
<path d="M141.549 28.9428V26.9485H141.503C141.323 27.3091 141.077 27.6328 140.777 27.9028C140.474 28.1878 140.131 28.4283 139.76 28.6171C139.383 28.8109 138.984 28.9586 138.572 29.0571C138.163 29.1544 137.745 29.2042 137.326 29.2057C136.54 29.2172 135.761 29.0614 135.04 28.7485C134.367 28.4543 133.764 28.0221 133.269 27.48C132.768 26.9218 132.379 26.2717 132.126 25.5657C131.846 24.7987 131.707 23.9877 131.714 23.1714C131.707 22.3798 131.845 21.5936 132.12 20.8514C132.376 20.1566 132.764 19.5181 133.263 18.9714C133.761 18.4337 134.364 18.0038 135.034 17.7085C135.755 17.3951 136.534 17.2373 137.32 17.2457C137.738 17.2439 138.154 17.2918 138.56 17.3885C138.956 17.486 139.339 17.6279 139.703 17.8114C140.064 17.9938 140.4 18.2224 140.703 18.4914C141.007 18.7571 141.269 19.0673 141.48 19.4114H141.526V17.5142H143.24V28.9428H141.549ZM141.617 23.08C141.623 22.4957 141.524 21.9152 141.326 21.3657C141.135 20.8528 140.85 20.38 140.486 19.9714C140.117 19.5688 139.67 19.246 139.172 19.0228C138.631 18.7868 138.047 18.668 137.457 18.6742C136.867 18.6656 136.282 18.7866 135.743 19.0285C135.25 19.2542 134.81 19.5813 134.452 19.9885C134.09 20.4092 133.815 20.8964 133.64 21.4228C133.453 21.9906 133.361 22.5851 133.366 23.1828C133.365 23.7666 133.463 24.3464 133.657 24.8971C133.849 25.4269 134.133 25.9183 134.497 26.3485C134.866 26.7687 135.314 27.1107 135.817 27.3542C136.353 27.6085 136.939 27.7375 137.532 27.7314C138.11 27.745 138.684 27.6247 139.208 27.3799C139.733 27.1351 140.193 26.7723 140.554 26.32C140.909 25.875 141.177 25.3671 141.343 24.8228C141.522 24.259 141.614 23.6714 141.617 23.08Z" fill="black"/>
<path d="M153.16 28.9429L148.331 23.3715L147.834 23.8229V28.9658H146.12V9.34863H147.834V22.2001L152.708 17.5143H154.897L149.606 22.5143L155.32 28.9429H153.16Z" fill="black"/>
<path d="M157.56 23.4857C157.568 24.1028 157.69 24.7131 157.92 25.2857C158.125 25.7988 158.435 26.2638 158.829 26.6514C159.211 27.029 159.666 27.3246 160.166 27.52C160.684 27.7274 161.237 27.8322 161.794 27.8286C162.585 27.8445 163.362 27.6257 164.029 27.2C164.674 26.7554 165.21 26.169 165.594 25.4857L167.04 25.8686C166.815 26.3865 166.508 26.865 166.132 27.2857C165.771 27.693 165.351 28.0436 164.886 28.3257C164.412 28.6113 163.9 28.8287 163.366 28.9714C162.806 29.1175 162.23 29.1905 161.652 29.1886C160.834 29.2009 160.022 29.0432 159.269 28.7257C158.58 28.434 157.959 28.002 157.446 27.4571C156.931 26.9104 156.533 26.2651 156.274 25.56C155.996 24.8066 155.857 24.0089 155.863 23.2057C155.856 22.4094 155.998 21.6188 156.28 20.8743C156.55 20.1823 156.95 19.5482 157.457 19.0057C157.964 18.4591 158.579 18.0233 159.263 17.7257C159.996 17.4057 160.789 17.246 161.589 17.2571C162.417 17.2419 163.239 17.3955 164.006 17.7086C164.688 17.9967 165.299 18.4318 165.794 18.9828C166.293 19.5558 166.668 20.2248 166.897 20.9486C167.156 21.7728 167.28 22.6334 167.263 23.4971L157.56 23.4857ZM165.132 20.8228C164.947 20.3904 164.688 19.9939 164.366 19.6514C164.045 19.315 163.655 19.0518 163.223 18.88C162.707 18.6827 162.158 18.5876 161.606 18.6C161.084 18.5947 160.565 18.6918 160.08 18.8857C159.629 19.0658 159.216 19.3295 158.863 19.6628C158.517 19.9907 158.233 20.3778 158.023 20.8057C157.808 21.263 157.672 21.754 157.623 22.2571H165.566C165.48 21.7631 165.335 21.2814 165.132 20.8228Z" fill="black"/>
<path d="M174.148 18.9715C173.932 18.9258 173.712 18.9028 173.491 18.9029C173.141 18.8985 172.797 18.9941 172.5 19.1783C172.202 19.3625 171.963 19.6277 171.811 19.9429C171.358 20.9598 171.162 22.0724 171.24 23.1829V28.9429H169.526V17.5143H171.24V19.0743H171.286C171.488 18.5283 171.859 18.061 172.345 17.7404C172.831 17.4198 173.407 17.2625 173.988 17.2915C174.181 17.2912 174.373 17.3142 174.56 17.3601C174.755 17.4029 174.946 17.4621 175.131 17.5372L174.754 19.2C174.565 19.0943 174.361 19.0173 174.148 18.9715Z" fill="black"/>
<path d="M20 0L0 20L20 40L28.4343 31.6171V20.0229H40.0229L20 0ZM20 20V28.4514L11.5543 20.0229L20 11.5771L28.4286 20.0229L20 20Z" fill="black"/>
<path d="M178.126 10.9142V13.8057H177.794V10.9142H177V10.6228H178.92V10.9142H178.126Z" fill="black"/>
<path d="M182.423 13.8057L181.948 11.3371L180.914 13.8914H180.84L179.817 11.3371L179.331 13.8057H179.011L179.663 10.5371H179.828L180.891 13.1943L181.96 10.5371H182.137L182.771 13.8057H182.423Z" fill="black"/>
</g>
</g>
<defs>
<clipPath id="clip0_3537_3957">
<rect width="183" height="40" fill="white"/>
</clipPath>
<clipPath id="clip1_3537_3957">
<rect width="183" height="40" fill="white"/>
</clipPath>
</defs>
</svg>
