<svg xmlns="http://www.w3.org/2000/svg" width="20" height="20" viewBox="0 2 24 24">
    <path fill-rule="evenodd" d="M18 2c3.314 0 6 2.686 6 6v12c0 3.314-2.686 6-6 6H6c-3.314 0-6-2.686-6-6V8c0-3.314 2.686-6 6-6h12zM5.239 16.772H4v2.114l.005.15C4.085 20.134 5.016 21 6.157 21h11.686l.154-.005c1.12-.078 2.003-.993 2.003-2.11v-2.113h-1.239v2.114l-.006.106c-.053.451-.442.8-.912.8H6.157l-.107-.006c-.456-.052-.811-.434-.811-.9v-2.114zM12.619 6h-1.238l-.001 9.96-3.861-3.792-.879.852 4.92 4.832.086.07c.243.165.578.141.793-.07l4.92-4.832-.878-.852-3.862 3.791V6z"/>
</svg>
