<svg width="110" height="40" viewBox="0 0 110 40" fill="none" xmlns="http://www.w3.org/2000/svg">
<g clip-path="url(#clip0_3537_3854)">
<path d="M71.1876 16.8613C69.3917 16.8613 67.8951 17.7094 66.8475 19.0064V17.1606H65.4507V33.4236H66.8475V27.5869C67.8951 28.9338 69.3917 29.732 71.1876 29.732C74.4801 29.732 77.1739 26.8386 77.1739 23.2967C77.1241 19.7547 74.4801 16.8613 71.1876 16.8613ZM71.1876 28.385C68.6434 28.385 66.5981 26.1402 66.5981 23.3465C66.5981 20.5529 68.6434 18.308 71.1876 18.308C73.7318 18.308 75.7771 20.5529 75.7771 23.3465C75.7272 26.0903 73.6819 28.385 71.1876 28.385Z" fill="black"/>
<path d="M55.4237 12.1221C50.6845 12.1221 46.8433 16.1629 46.8433 21.1016C46.8433 26.0403 50.6845 30.0811 55.4237 30.0811C60.1629 30.0811 64.0041 26.0403 64.0041 21.1016C64.0041 16.1629 60.1629 12.1221 55.4237 12.1221ZM55.4237 28.7342C51.4328 28.7342 48.1902 25.292 48.1902 21.1016C48.1902 16.9111 51.4328 13.469 55.4237 13.469C59.4146 13.469 62.6572 16.9111 62.6572 21.1016C62.6572 25.3419 59.4146 28.7342 55.4237 28.7342Z" fill="black"/>
<path d="M96.9287 16.9111C96.4299 16.9111 95.9809 17.0608 95.5319 17.3102C94.634 17.8091 93.9854 18.5075 93.5864 19.4553C93.5864 19.4553 93.5864 19.5052 93.5365 19.5052C93.5365 18.7569 93.5365 18.0086 93.5365 17.2603H92.1396C92.1396 21.3011 92.1396 25.3419 92.1396 29.4326C92.5886 29.4326 93.0875 29.4326 93.5365 29.4326C93.5365 29.3827 93.5365 29.3827 93.5365 29.3328C93.5365 27.1378 93.5365 25.1922 93.5365 23.0471C93.5365 22.1492 93.6861 21.4009 93.9854 20.7025C94.2349 20.054 94.634 19.4553 95.1827 19.0064C95.8312 18.4576 96.5795 18.2082 97.4276 18.3578C97.5773 18.3578 97.677 18.4077 97.8267 18.4576C97.9265 18.0585 98.0761 17.5597 98.1759 17.1107C97.8267 16.961 97.2779 16.9111 96.9287 16.9111Z" fill="black"/>
<path d="M84.4072 16.9111C81.1148 16.9111 78.4209 19.8045 78.4209 23.3465C78.4209 26.8884 81.1148 29.7818 84.4072 29.7818C86.7519 29.7818 88.7972 28.2852 89.795 26.1401L88.5977 25.4417C87.8494 27.1877 86.3029 28.385 84.4571 28.385C82.0626 28.385 80.117 26.3396 79.8676 23.7954H89.5455H90.3936C90.3936 23.6458 90.3936 23.4961 90.3936 23.3465C90.3936 19.5551 87.8993 16.9111 84.4072 16.9111ZM84.4072 18.3079C86.9016 18.3079 88.6476 20.0041 88.9469 22.5483H79.8676C80.2168 20.1537 82.1125 18.3079 84.4072 18.3079Z" fill="black"/>
<path d="M108.203 17.1606V19.0064C107.156 17.6595 105.659 16.8613 103.863 16.8613C100.571 16.8613 97.877 19.7547 97.877 23.2967C97.877 26.8386 100.571 29.732 103.863 29.732C105.659 29.732 107.156 28.8839 108.203 27.5869V29.4327H109.6V17.1606H108.203ZM103.863 28.385C101.319 28.385 99.2738 26.1402 99.2738 23.3465C99.2738 20.5529 101.319 18.308 103.863 18.308C106.407 18.308 108.453 20.5529 108.453 23.3465C108.453 26.0903 106.407 28.385 103.863 28.385Z" fill="black"/>
<path d="M40.1089 20.0544C40.1089 25.9908 37.5148 31.3286 33.4241 35.0202C28.2858 37.5145 23.4967 35.7685 21.9004 34.671C26.9389 33.5735 30.7801 27.4375 30.7801 20.0544C30.7801 12.6712 26.9389 6.5352 21.9004 5.4377C23.4967 4.34021 28.2858 2.59419 33.4241 5.0885C37.5148 8.78008 40.1089 14.1179 40.1089 20.0544Z" fill="#FF1B2D"/>
<path d="M13.4693 8.73009C11.2743 11.3242 9.82759 15.2153 9.72781 19.5554V20.5032C9.82759 24.8433 11.2743 28.7345 13.4693 31.3285C16.3627 35.07 20.603 37.4147 25.3921 37.4147C28.3354 37.4147 31.0791 36.5167 33.4238 34.9702C29.8818 38.163 25.1925 40.0586 20.0543 40.0586C19.7549 40.0586 19.4057 40.0586 19.1064 40.0586C8.48066 39.6097 0 30.8297 0 20.0543C0 8.97952 8.97952 0 20.0543 0C20.1041 0 20.1041 0 20.154 0C25.2424 0 29.8818 1.94556 33.4238 5.08839C31.0791 3.54192 28.3354 2.64397 25.3921 2.64397C20.603 2.64397 16.3128 5.03851 13.4693 8.73009Z" fill="#FF1B2D"/>
</g>
<defs>
<clipPath id="clip0_3537_3854">
<rect width="110" height="40" fill="white"/>
</clipPath>
</defs>
</svg>
