<svg width="154" height="40" viewBox="0 0 154 40" fill="none" xmlns="http://www.w3.org/2000/svg">
<g clip-path="url(#clip0_3537_3928)">
<g clip-path="url(#clip1_3537_3928)">
<path fill-rule="evenodd" clip-rule="evenodd" d="M66.6412 18.9914C67.6678 17.6351 69.2695 16.8371 70.9705 16.8345C74.2611 16.8345 76.9384 19.7157 76.9384 23.2567C76.9384 26.798 74.2611 29.679 70.9705 29.679C69.2696 29.6765 67.6678 28.8785 66.6412 27.5223V33.3338H65.231V17.1279H66.6412V18.9914ZM66.3959 23.2568C66.3959 26.0299 68.448 28.2857 70.9705 28.2857C73.4929 28.2857 75.5449 26.0299 75.5449 23.2568C75.5449 20.484 73.4929 18.2282 70.9705 18.2282C68.448 18.2282 66.3959 20.484 66.3959 23.2568Z" fill="black"/>
<path fill-rule="evenodd" clip-rule="evenodd" d="M46.7188 21.0615C46.7188 16.1217 50.5522 12.103 55.264 12.103C59.976 12.103 63.8094 16.1217 63.8094 21.0615C63.8094 26.001 59.976 30.02 55.264 30.02C50.5522 30.02 46.7188 26.001 46.7188 21.0615ZM48.0641 21.0615C48.0641 25.2593 51.294 28.6746 55.264 28.6746C59.2341 28.6746 62.4639 25.2593 62.4639 21.0615C62.4639 16.8635 59.2341 13.4485 55.264 13.4485C51.294 13.4485 48.0641 16.8635 48.0641 21.0615Z" fill="black"/>
<path d="M96.6705 16.8845C96.1902 16.9052 95.7207 17.0342 95.2972 17.2619C94.4229 17.7295 93.7411 18.49 93.3713 19.4099C93.362 19.4322 93.3515 19.454 93.3415 19.4758L93.3285 19.4733V17.2281H93.3268V17.2056H91.9165V29.3478H93.329V29.2658C93.329 27.0815 93.3292 25.1595 93.329 22.9754C93.3134 22.1762 93.4612 21.3822 93.7631 20.6421C94.0195 19.9856 94.4295 19.4001 94.9588 18.9347C95.5574 18.3885 96.3744 18.1487 97.1732 18.2848C97.3093 18.3063 97.4441 18.3361 97.5858 18.3635C97.6663 17.9617 97.8577 17.4503 97.9392 17.0431C97.526 16.9303 97.0988 16.8769 96.6705 16.8845Z" fill="black"/>
<path fill-rule="evenodd" clip-rule="evenodd" d="M78.2031 23.2763C78.2031 19.735 80.8803 16.854 84.1709 16.854C87.6848 16.854 90.1388 19.4949 90.1388 23.2762C90.1388 23.4285 90.1322 23.5787 90.1224 23.728H79.6173C79.8261 26.2897 81.7874 28.3051 84.1709 28.3051C86.0173 28.2574 87.6538 27.1042 88.3198 25.3815L89.5348 26.0885C88.6128 28.2422 86.5134 29.6551 84.1709 29.6983C80.8803 29.6983 78.2031 26.8175 78.2031 23.2763ZM88.6976 22.498C88.4054 19.9266 86.6631 18.2473 84.1711 18.2473C81.8902 18.2473 79.9993 20.0942 79.6572 22.498H88.6976Z" fill="black"/>
<path fill-rule="evenodd" clip-rule="evenodd" d="M107.934 18.9914V17.1279H109.345V29.3472H107.934V27.5223C106.908 28.8785 105.306 29.6765 103.605 29.679C100.314 29.679 97.6372 26.798 97.6372 23.2567C97.6372 19.7157 100.314 16.8345 103.605 16.8345C105.306 16.8371 106.908 17.6351 107.934 18.9914ZM99.0306 23.2568C99.0306 26.0299 101.083 28.2857 103.605 28.2857C106.128 28.2857 108.179 26.0299 108.179 23.2568C108.179 20.484 106.128 18.2282 103.605 18.2282C101.083 18.2282 99.0306 20.484 99.0306 23.2568Z" fill="black"/>
<path d="M39.9981 20.0007C40.0036 13.8515 37.1752 8.04286 32.3311 4.25516C30.3627 3.32645 28.2131 2.84511 26.0367 2.8457C20.662 2.8457 15.9141 5.78568 13.0592 10.2252C14.8771 7.60617 17.4214 5.97866 20.2375 5.97866C25.7622 5.97866 30.2409 12.2422 30.2409 19.9686C30.2409 27.695 25.7622 33.9585 20.2375 33.9585C17.154 33.9585 14.3965 32.0072 12.5615 28.9397C15.3411 33.8475 20.3364 37.0786 26.0366 37.0786C29.0239 37.0786 31.1319 36.3881 32.7115 35.4404C37.33 31.6448 40.004 25.9788 39.9981 20.0007Z" fill="url(#paint0_linear_3537_3928)"/>
<path d="M26.037 37.0781C20.3368 37.0781 15.3415 33.847 12.5619 28.9393C11.0398 26.2247 10.2386 23.1655 10.2348 20.0533C10.2347 20.0449 10.2345 19.9793 10.2345 19.9548C10.2347 19.6271 10.2429 19.3021 10.2592 18.9799C10.4145 15.8675 11.3799 12.8495 13.0596 10.2247C15.9144 5.78519 20.6623 2.84522 26.037 2.84522C28.2135 2.84463 30.3631 3.32598 32.3314 4.2547C24.0782 -2.20922 12.2343 -1.20335 5.18933 6.5598C-1.85565 14.3229 -1.71066 26.2086 5.52158 33.7976C12.7538 41.3866 24.6187 42.1032 32.7118 35.4399C31.1323 36.3876 29.0243 37.0781 26.037 37.0781Z" fill="url(#paint1_linear_3537_3928)"/>
<path fill-rule="evenodd" clip-rule="evenodd" d="M41.5406 20.8516H24.1325C18.4876 20.8516 17.7705 26.4787 17.7705 28.562V31.4467H33.581C40.8465 31.4467 41.5406 25.2549 41.5406 23.1822L41.5406 20.8516Z" fill="#439F46"/>
<path d="M22.6768 23.5195H23.7185L25.3896 27.686L27.0607 23.5195H28.1011V28.7675H27.1419V25.5627C27.0978 25.6976 26.8877 26.3633 26.8877 26.3633L25.8616 28.7675H24.9175L23.8908 26.3633C23.8908 26.3633 23.6801 25.6976 23.636 25.5627V28.7675H22.6768L22.6768 23.5195Z" fill="white"/>
<path d="M28.8174 23.5195H29.8096V28.7675H28.8174V23.5195Z" fill="white"/>
<path d="M30.5264 23.5195H31.5342L33.7208 26.8567C33.7208 26.8567 33.9001 27.1589 33.9442 27.2713V23.5195H34.9034V28.7675H33.9021L31.7122 25.4116C31.6296 25.2787 31.5539 25.1415 31.4856 25.0007V28.7675H30.5264L30.5264 23.5195Z" fill="white"/>
<path d="M35.6313 23.5195H36.6126V28.7675H35.6313V23.5195Z" fill="white"/>
<path d="M117.043 12.835H118.68L125.084 28.2693L131.487 12.835H133.124V29.3549H131.728V15.313C131.584 15.7378 130.861 17.5786 130.861 17.5786L125.902 29.3549H124.265L119.306 17.6021C119.306 17.6021 118.584 15.7377 118.439 15.313V29.3549H117.043L117.043 12.835Z" fill="black"/>
<path d="M147.945 29.3444V21.9434C148.004 20.8951 147.623 19.8697 146.894 19.1142C145.867 18.1132 144.327 17.8528 143.028 18.4602C141.729 19.0676 140.941 20.416 141.051 21.8459V29.3444H139.636V17.1459H141.051V18.5717L141.091 18.511C141.884 17.4355 143.153 16.8164 144.488 16.8542C147.662 16.8542 149.36 18.9986 149.36 21.9434V29.3444H147.945Z" fill="black"/>
<path fill-rule="evenodd" clip-rule="evenodd" d="M137.255 13.3936H135.506V15.2674H137.255V13.3936ZM137.088 17.1441H135.673V29.3548H137.088V17.1441Z" fill="black"/>
<path fill-rule="evenodd" clip-rule="evenodd" d="M153.507 13.3936H151.758V15.2674H153.507V13.3936ZM153.341 17.1441H151.925V29.3548H153.341V17.1441Z" fill="black"/>
</g>
</g>
<defs>
<linearGradient id="paint0_linear_3537_3928" x1="12.5615" y1="2.84568" x2="12.5615" y2="37.0786" gradientUnits="userSpaceOnUse">
<stop stop-color="#9C0000"/>
<stop offset="0.7" stop-color="#FF4B4B"/>
</linearGradient>
<linearGradient id="paint1_linear_3537_3928" x1="9.94363e-05" y1="0.00074853" x2="9.94363e-05" y2="39.9997" gradientUnits="userSpaceOnUse">
<stop offset="0.3" stop-color="#FF1B2D"/>
<stop offset="0.43812" stop-color="#FA1A2C"/>
<stop offset="0.59385" stop-color="#ED1528"/>
<stop offset="0.75809" stop-color="#D60E21"/>
<stop offset="0.92723" stop-color="#B70519"/>
<stop offset="1" stop-color="#A70014"/>
</linearGradient>
<clipPath id="clip0_3537_3928">
<rect width="154" height="40" fill="white"/>
</clipPath>
<clipPath id="clip1_3537_3928">
<rect width="154" height="40" fill="white"/>
</clipPath>
</defs>
</svg>
