<svg width="154" height="40" viewBox="0 0 154 40" fill="none" xmlns="http://www.w3.org/2000/svg">
<g clip-path="url(#clip0_3537_3895)">
<path d="M153.468 28.5842H151.553L145.213 21.0271L138.874 28.5842H136.959L144.256 19.8859L136.784 10.979H138.699L145.213 18.7447L151.728 10.979H153.643L146.171 19.8859L153.468 28.5842Z" fill="black"/>
<path d="M135.539 20.5151H128.656L129.887 19.048H137.042V19.7816C137.042 24.6431 133.102 28.5842 128.242 28.5842C123.381 28.5842 119.441 24.6431 119.441 19.7816C119.441 14.9201 123.381 10.979 128.242 10.979C130.68 10.979 132.887 11.9711 134.481 13.5737L133.534 14.7034C132.199 13.3121 130.322 12.4461 128.242 12.4461C124.192 12.4461 120.908 15.7303 120.908 19.7816C120.908 23.8329 124.192 27.1171 128.242 27.1171C132.045 27.1171 135.171 24.222 135.539 20.5151Z" fill="black"/>
<path fill-rule="evenodd" clip-rule="evenodd" d="M71.2596 17.9139C72.2675 16.5799 73.8414 15.7946 75.5131 15.7915C78.7497 15.7915 81.4045 18.6181 81.4045 22.1C81.4045 25.5819 78.7692 28.4134 75.5375 28.4134C73.8667 28.4116 72.2929 27.6281 71.284 26.2959V32.0078H69.876V16.08H71.2596V17.9139ZM71.02 22.0953C71.02 24.8241 73.0343 27.0394 75.5131 27.0394V27.0443C77.9918 27.0443 80.0061 24.8241 80.0061 22.0953C80.0061 19.3664 77.9918 17.1511 75.5131 17.1511C73.0343 17.1511 71.02 19.3664 71.02 22.0953Z" fill="black"/>
<path fill-rule="evenodd" clip-rule="evenodd" d="M51.6787 19.9432C51.6787 15.092 55.4482 11.1406 60.0782 11.1406C64.7081 11.1406 68.4776 15.092 68.4776 19.9432C68.4776 24.7944 64.7081 28.7458 60.0782 28.7458C55.4482 28.7458 51.6787 24.7944 51.6787 19.9432ZM53.0037 19.9482C53.0037 24.0756 56.1669 27.4304 60.0782 27.4304V27.4255C63.9797 27.4255 67.1527 24.0561 67.1527 19.9286C67.1527 15.8012 63.9797 12.4464 60.0782 12.4464C56.1767 12.4464 53.0037 15.8207 53.0037 19.9482Z" fill="black"/>
<path d="M100.77 15.8402C100.298 15.8608 99.8368 15.9878 99.4207 16.2119C98.5634 16.6697 97.8938 17.4138 97.5287 18.3147L97.4993 18.3783V18.3783V16.1776V16.1776V16.1776H96.1157V28.0954H97.5042V28.0171C97.5042 25.8703 97.5042 23.9826 97.5042 21.8358C97.4886 21.0503 97.6333 20.2698 97.9296 19.5422C98.1811 18.8973 98.5835 18.3222 99.103 17.8648C99.6909 17.3276 100.493 17.0913 101.279 17.2242L101.684 17.3024C101.763 16.9063 101.953 16.4026 102.032 16.0065C101.621 15.8907 101.196 15.8347 100.77 15.8402V15.8402Z" fill="black"/>
<path fill-rule="evenodd" clip-rule="evenodd" d="M82.6216 22.1196C82.6216 18.6377 85.2568 15.8062 88.4885 15.8062C91.9402 15.8062 94.3505 18.4029 94.3358 22.1147V22.5597H84.0101C84.2154 25.0782 86.1417 27.0588 88.4836 27.0588C90.2984 27.0112 91.9066 25.877 92.5611 24.1833L93.7736 24.8875C92.8614 27.0054 90.7936 28.3925 88.4885 28.433C85.2519 28.433 82.6216 25.6015 82.6216 22.1196ZM92.9375 21.3517C92.6491 18.8283 90.933 17.1753 88.4885 17.1753V17.1802C86.2444 17.1802 84.3865 18.9945 84.0492 21.3517H92.9375Z" fill="black"/>
<path fill-rule="evenodd" clip-rule="evenodd" d="M111.839 17.9139V16.08H113.223V28.0956H111.839V26.3008C110.83 27.633 109.256 28.4164 107.586 28.4183C104.349 28.4183 101.719 25.5868 101.719 22.1049C101.719 18.623 104.354 15.7915 107.586 15.7915C109.257 15.7946 110.831 16.5799 111.839 17.9139ZM103.093 22.105C103.093 24.8338 105.107 27.0491 107.586 27.0491V27.0442C110.064 27.0442 112.079 24.8338 112.079 22.105C112.079 19.3762 110.064 17.1609 107.586 17.1609C105.107 17.1609 103.093 19.3762 103.093 22.105Z" fill="black"/>
<path fill-rule="evenodd" clip-rule="evenodd" d="M19.8046 0.000936313C24.6633 0.0191944 29.3118 1.80474 32.9148 5.02941C37.1009 8.77513 39.502 14.143 39.502 19.7562C39.502 25.3699 37.1005 30.7378 32.9134 34.4839L32.9092 34.4868C29.2866 37.7273 24.6132 39.5115 19.7512 39.5115C19.4362 39.5115 19.1231 39.5035 18.8119 39.489C8.26275 38.9942 0 30.3262 0 19.7562C0 8.86267 8.86043 0 19.7512 0C19.7568 0 19.7985 0.000468157 19.8046 0.000936313ZM18.8984 37.6184C9.35138 37.1704 1.87213 29.3245 1.87213 19.7563C1.87213 9.89555 9.89244 1.87275 19.7685 1.87322L19.8181 1.87369C21.3818 1.87931 22.9236 2.08951 24.4082 2.48978C19.9328 2.59652 15.7247 4.80201 12.8434 8.54586C10.5589 11.2429 9.19553 15.16 9.10285 19.313V20.2207C9.19553 24.3433 10.5533 28.2529 12.8294 30.9504C15.7368 34.7172 19.9403 36.9161 24.4096 37.0229C22.6329 37.5023 20.7476 37.7064 18.8984 37.6184ZM31.7152 33.0407C29.6104 34.4222 27.2042 35.1544 24.7499 35.1544C20.7327 35.1544 16.9238 33.1994 14.3 29.7908L14.2723 29.7566C12.2598 27.3802 11.0579 23.8892 10.975 20.1996L10.9745 19.334C11.0579 15.6229 12.2598 12.1319 14.2995 9.72182C16.9238 6.31317 20.7331 4.35815 24.7499 4.35815C27.2042 4.35815 29.6109 5.09034 31.7166 6.47281C35.4745 9.8618 37.6298 14.6983 37.6298 19.7563C37.6298 24.8147 35.474 29.6517 31.7152 33.0407Z" fill="#FA1E4E"/>
<path d="M23.3711 7.31104C26.8946 9.57428 29.3208 14.3069 29.3208 19.7814C29.3208 25.2559 26.8946 29.9889 23.3711 32.2517C27.8688 31.8789 31.4381 26.439 31.4381 19.7814C31.4381 13.1237 27.8688 7.68387 23.3711 7.31104" fill="#FA1E4E"/>
</g>
<defs>
<clipPath id="clip0_3537_3895">
<rect width="154" height="40" fill="white"/>
</clipPath>
</defs>
</svg>
